<?xml version="1.0" encoding="utf-8"?>
<!-- Generator: Adobe Illustrator 22.1.0, SVG Export Plug-In . SVG Version: 6.00 Build 0)  -->
<svg version="1.1" id="Layer_1" xmlns="http://www.w3.org/2000/svg" xmlns:xlink="http://www.w3.org/1999/xlink" x="0px" y="0px"
	 viewBox="0 0 130 107" style="enable-background:new 0 0 130 107;" xml:space="preserve">
<style type="text/css">
	.st0{fill:none;stroke:#000000;stroke-miterlimit:10;}
	.st1{fill:none;stroke:#000000;stroke-width:5.1095;stroke-miterlimit:10;}
	.st2{fill:#FFFFFF;}
</style>
<g>
	<polygon class="st2" points="63.9,11.9 61.6,14.2 100.9,52.9 61.8,91.6 64.1,93.8 105.4,52.9 	"/>
	<polygon class="st2" points="69.4,6.4 67.2,8.7 112,52.9 67.4,97.1 69.6,99.4 116.5,52.9 	"/>
	<polygon class="st2" points="13.9,58.6 13.9,61.8 81.1,61.8 56.5,86.2 58.7,88.5 88.8,58.6 	"/>
	<polygon class="st2" points="92.9,51.2 13.9,51.2 13.9,54.3 93,54.4 94.5,52.9 	"/>
	<polygon class="st2" points="13.9,43.6 13.9,46.8 88.5,46.8 58.6,17.2 56.4,19.5 80.8,43.6 	"/>
</g>
</svg>
