<?xml version="1.0" encoding="utf-8"?>
<!-- Generator: Adobe Illustrator 22.1.0, SVG Export Plug-In . SVG Version: 6.00 Build 0)  -->
<svg version="1.1" id="Layer_1" xmlns="http://www.w3.org/2000/svg" xmlns:xlink="http://www.w3.org/1999/xlink" x="0px" y="0px"
	 viewBox="0 0 306.4 306.1" style="enable-background:new 0 0 306.4 306.1;" xml:space="preserve">
<style type="text/css">
	.st0{clip-path:url(#XMLID_75_);}
	.st1{clip-path:url(#XMLID_76_);fill:none;stroke:#0C242D;stroke-width:4;stroke-miterlimit:10;}
	.st2{opacity:0.57;clip-path:url(#XMLID_77_);fill:none;stroke:#E2C991;stroke-width:4;stroke-miterlimit:10;}
	.st3{fill:#E2C991;}
	.st4{fill:#D6BB85;}
	.st5{opacity:4.000000e-02;}
	.st6{fill:#132126;}
	.st7{opacity:9.000000e-02;}
	.st8{clip-path:url(#XMLID_78_);}
	.st9{clip-path:url(#XMLID_79_);fill:none;stroke:#0C242D;stroke-width:4;stroke-miterlimit:10;}
	.st10{opacity:0.57;clip-path:url(#XMLID_80_);fill:none;stroke:#E2C991;stroke-width:4;stroke-miterlimit:10;}
	.st11{fill:none;stroke:#000000;stroke-width:3;stroke-miterlimit:10;}
	.st12{fill:none;stroke:#000000;stroke-width:2;stroke-miterlimit:10;}
	.st13{clip-path:url(#XMLID_81_);fill:none;stroke:#0C242D;stroke-width:4;stroke-miterlimit:10;}
	.st14{opacity:0.57;clip-path:url(#XMLID_82_);fill:none;stroke:#E2C991;stroke-width:4;stroke-miterlimit:10;}
	.st15{fill:#1F3139;}
	.st16{opacity:0.1;clip-path:url(#XMLID_83_);}
	.st17{opacity:0.1;clip-path:url(#XMLID_84_);}
	.st18{fill:none;stroke:#EFAF00;stroke-width:5;stroke-miterlimit:10;}
	.st19{fill:#6D5525;}
	.st20{fill:#111D21;}
	.st21{clip-path:url(#XMLID_85_);}
	.st22{opacity:0.1;clip-path:url(#XMLID_86_);}
	.st23{opacity:0.1;clip-path:url(#XMLID_87_);}
	.st24{fill:#AA936B;}
	.st25{opacity:0.11;clip-path:url(#XMLID_88_);}
	.st26{clip-path:url(#XMLID_89_);fill:#FFFFFF;}
	.st27{opacity:0.14;clip-path:url(#XMLID_90_);}
	.st28{fill:none;stroke:#000000;stroke-width:5;stroke-miterlimit:10;}
	.st29{opacity:0.21;clip-path:url(#XMLID_91_);}
	.st30{clip-path:url(#XMLID_92_);}
	.st31{opacity:0.11;clip-path:url(#XMLID_93_);}
	.st32{clip-path:url(#XMLID_93_);fill:none;stroke:#B58A28;stroke-width:3;stroke-miterlimit:10;}
	.st33{clip-path:url(#XMLID_94_);fill:#FFFFFF;}
	.st34{opacity:0.14;clip-path:url(#XMLID_95_);}
	.st35{opacity:0.21;clip-path:url(#XMLID_96_);}
	.st36{clip-path:url(#XMLID_92_);fill:none;stroke:#B58A28;stroke-width:3;stroke-miterlimit:10;}
	.st37{fill:#CEB382;}
	.st38{clip-path:url(#XMLID_97_);fill:#D94700;}
	.st39{fill:#4E9687;}
	.st40{fill:none;stroke:#4E9687;stroke-width:2;stroke-miterlimit:10;}
	.st41{clip-path:url(#XMLID_98_);}
	.st42{clip-path:url(#XMLID_99_);fill:#D94700;}
	.st43{opacity:4.000000e-02;clip-path:url(#XMLID_98_);}
	.st44{fill:#B55515;}
	.st45{opacity:0.2;clip-path:url(#XMLID_100_);}
	.st46{fill:#FFFFFF;}
	.st47{fill:none;stroke:#000000;stroke-width:6;stroke-miterlimit:10;}
	.st48{clip-path:url(#XMLID_101_);}
	.st49{opacity:0.2;clip-path:url(#XMLID_102_);}
	.st50{clip-path:url(#XMLID_103_);fill:#B55515;}
	.st51{fill:none;stroke:#B55515;stroke-width:3;stroke-miterlimit:10;}
	.st52{opacity:4.000000e-02;clip-path:url(#XMLID_101_);}
	.st53{opacity:0.12;clip-path:url(#XMLID_104_);}
	.st54{opacity:0.24;clip-path:url(#XMLID_104_);}
	.st55{opacity:0.11;clip-path:url(#XMLID_105_);}
	.st56{fill:none;stroke:#FF2400;stroke-width:6;stroke-miterlimit:10;}
	.st57{opacity:0.12;clip-path:url(#XMLID_106_);}
	.st58{fill:#B6D4E3;}
	.st59{clip-path:url(#XMLID_107_);}
	.st60{opacity:0.12;clip-path:url(#XMLID_108_);}
	.st61{opacity:0.24;clip-path:url(#XMLID_108_);}
	.st62{opacity:0.11;clip-path:url(#XMLID_109_);}
	.st63{opacity:0.12;clip-path:url(#XMLID_110_);}
	.st64{fill:#89CEE8;}
	.st65{opacity:4.000000e-02;clip-path:url(#XMLID_107_);}
	.st66{clip-path:url(#XMLID_111_);}
	.st67{clip-path:url(#XMLID_112_);fill:none;stroke:#0C242D;stroke-width:4;stroke-miterlimit:10;}
	.st68{opacity:0.57;clip-path:url(#XMLID_113_);fill:none;stroke:#E2C991;stroke-width:4;stroke-miterlimit:10;}
	.st69{clip-path:url(#XMLID_114_);}
	.st70{opacity:0.1;clip-path:url(#XMLID_115_);}
	.st71{opacity:0.1;clip-path:url(#XMLID_116_);}
	.st72{clip-path:url(#XMLID_117_);}
	.st73{opacity:0.11;clip-path:url(#XMLID_118_);}
	.st74{clip-path:url(#XMLID_119_);fill:#FFFFFF;}
	.st75{opacity:0.14;clip-path:url(#XMLID_120_);}
	.st76{opacity:0.21;clip-path:url(#XMLID_121_);}
	.st77{clip-path:url(#XMLID_122_);}
	.st78{clip-path:url(#XMLID_123_);fill:#D94700;}
	.st79{opacity:4.000000e-02;clip-path:url(#XMLID_122_);}
	.st80{clip-path:url(#XMLID_124_);}
	.st81{clip-path:url(#XMLID_125_);fill:#D94700;}
	.st82{opacity:4.000000e-02;clip-path:url(#XMLID_124_);}
	.st83{clip-path:url(#XMLID_126_);}
	.st84{opacity:0.2;clip-path:url(#XMLID_127_);}
	.st85{clip-path:url(#XMLID_128_);fill:#B55515;}
	.st86{fill:none;stroke:#E2C991;stroke-width:3;stroke-miterlimit:10;}
	.st87{opacity:4.000000e-02;clip-path:url(#XMLID_126_);}
	.st88{clip-path:url(#XMLID_129_);}
	.st89{opacity:0.2;clip-path:url(#XMLID_130_);}
	.st90{clip-path:url(#XMLID_131_);fill:#B55515;}
	.st91{opacity:4.000000e-02;clip-path:url(#XMLID_129_);}
	.st92{clip-path:url(#XMLID_132_);}
	.st93{opacity:0.12;clip-path:url(#XMLID_133_);}
	.st94{opacity:0.24;clip-path:url(#XMLID_133_);}
	.st95{opacity:0.11;clip-path:url(#XMLID_134_);}
	.st96{opacity:0.12;clip-path:url(#XMLID_135_);}
	.st97{opacity:4.000000e-02;clip-path:url(#XMLID_132_);}
	.st98{clip-path:url(#XMLID_136_);}
	.st99{opacity:0.12;clip-path:url(#XMLID_137_);}
	.st100{opacity:0.24;clip-path:url(#XMLID_137_);}
	.st101{opacity:0.11;clip-path:url(#XMLID_138_);}
	.st102{opacity:0.12;clip-path:url(#XMLID_139_);}
	.st103{opacity:4.000000e-02;clip-path:url(#XMLID_136_);}
	.st104{clip-path:url(#XMLID_140_);}
	.st105{opacity:0.1;clip-path:url(#XMLID_141_);}
	.st106{opacity:0.1;clip-path:url(#XMLID_142_);}
	.st107{clip-path:url(#XMLID_143_);}
	.st108{opacity:0.11;clip-path:url(#XMLID_144_);}
	.st109{clip-path:url(#XMLID_145_);fill:#FFFFFF;}
	.st110{opacity:0.14;clip-path:url(#XMLID_146_);}
	.st111{opacity:0.21;clip-path:url(#XMLID_147_);}
</style>
<g>
	<defs>
		<rect id="XMLID_66_" width="306.1" height="306.1"/>
	</defs>
	<use xlink:href="#XMLID_66_"  style="overflow:visible;fill:#4E9687;"/>
	<clipPath id="XMLID_75_">
		<use xlink:href="#XMLID_66_"  style="overflow:visible;"/>
	</clipPath>
	<g class="st0">
		<rect x="108.4" y="195.2" class="st37" width="75.4" height="94.9"/>
		<g>
			<defs>
				<path id="XMLID_69_" d="M76.6,206.9c0,0-12.2-13.7-13.9-25.6c-1.7-11.9,0.9-13.4-7.3-24.6C47.3,145.4,66,119.8,66,119.8
					s-9.3-16.2-3.3-33.3s27.7-31.1,33.3-33.3c5.5-2.1,8.1-12.4,32-9.4s28.2-3.2,38.4-0.5s27.7,14.2,29.9,23.1c2.1,9,10.2,7.3,20,8.1
					c9.8,0.9,22.6,11.9,23.5,20.9s1.3,18.8,3,26.4c1.7,7.7,7.3,5.1,5.5,17.1c-1.7,11.9-4.7,10.2-4.7,27.3s2.6,23.5-0.9,27.3
					s-17.9,17.5-22.6,26c-4.7,8.5-2.1,17.1-11.1,18.8c-9,1.7-20.9-6-20.9-6l-82.4,13.8c0,0-1.6,4.6-8.9,2.8
					c-7.3-1.7-6-6.4-14.1-14.9c-8.1-8.5-11.1-12.4-11.1-17.5C71.6,211.5,76.6,206.9,76.6,206.9z"/>
			</defs>
			<use xlink:href="#XMLID_69_"  style="overflow:visible;fill:#FFE61F;"/>
			<clipPath id="XMLID_76_">
				<use xlink:href="#XMLID_69_"  style="overflow:visible;"/>
			</clipPath>
			<path style="opacity:0.12;clip-path:url(#XMLID_76_);" d="M109.3,20.4c-13.7,23.6-31.2,81.8-27.7,115.2
				c3.5,33.4,28.4,108.3,8.1,129.4c-20.3,21.1-138.8-8.8-138.8-65.5S-22.7,49.8,21,38S109.3,20.4,109.3,20.4z"/>
			<path style="opacity:0.24;clip-path:url(#XMLID_76_);" d="M259.4,126.6c0.5,13.9-27.8,71.1-47.2,77.4
				c-19.4,6.3-41.7,21.5-38.7,35.4c2.9,13.9,36.1,46.3,48,25.8C233.4,244.6,259.4,126.6,259.4,126.6z"/>
		</g>
		<g>
			<defs>
				<path id="XMLID_68_" d="M135.4,254.4L135.4,254.4c-32.4,0-58.9-26.5-58.9-58.9v-47.6c0-32.4,26.5-58.9,58.9-58.9h0
					c32.4,0,58.9,26.5,58.9,58.9v47.6C194.3,227.9,167.8,254.4,135.4,254.4z"/>
			</defs>
			<use xlink:href="#XMLID_68_"  style="overflow:visible;fill:#E2C991;"/>
			<clipPath id="XMLID_77_">
				<use xlink:href="#XMLID_68_"  style="overflow:visible;"/>
			</clipPath>
			<path style="opacity:0.11;clip-path:url(#XMLID_77_);" d="M155,87c-5.4,7.7,31.4,17.6,34.8,59c1.5,17.7-0.1,50.5-10.5,55.7
				s5.6,21.3-5.9,36.2c-8.8,11.4-37.1,54.4-1.7,36.4s65.2-64.9,58.5-111.8S155,87,155,87z"/>
		</g>
		<path class="st4" d="M184.7,271.9c75.6-0.1,74.7,86.3,74.7,86.3s-74.7,16.6-122.7,16.7c-77,0.1-94-18.5-94-18.5
			s-1.3-31.9,14.1-55.2c15.5-23.4,52.3-29.3,52.3-29.3s17.9,40.5,74.1-0.1"/>
		<g>
			<defs>
				<path id="XMLID_67_" d="M138.6,97.8c-7.2,1.2-12.4,11.1-18.4,4.7c-6-6.4-23.6-0.4-24,6.9c-0.4,7.3,8.6,20.6,0,24.9
					s-19.6,3.9-19.6,20s0.4,48.4,0.4,48.4l-4.9-91.1l24-40.7l54.8,6l54.5,20.2l-3.9,85.8l-7.3,12.9c0,0-0.4-38.2,0-54.9
					S178.1,91.1,138.6,97.8z"/>
			</defs>
			<use xlink:href="#XMLID_67_"  style="overflow:visible;fill:#FFE61F;"/>
			<clipPath id="XMLID_78_">
				<use xlink:href="#XMLID_67_"  style="overflow:visible;"/>
			</clipPath>
			<path style="opacity:0.12;clip-path:url(#XMLID_78_);" d="M111.1,11C97.4,34.5,79.9,92.8,83.4,126.2
				c3.5,33.4,28.4,108.3,8.1,129.4s-138.8-8.8-138.8-65.5S-20.9,40.4,22.8,28.7S111.1,11,111.1,11z"/>
		</g>
	</g>
	<rect x="132.1" y="-79.8" style="opacity:4.000000e-02;clip-path:url(#XMLID_75_);" width="222.7" height="481.2"/>
</g>
<g>
	<defs>
		<rect id="XMLID_63_" x="0.3" y="-431.3" width="306.1" height="306.1"/>
	</defs>
	<use xlink:href="#XMLID_63_"  style="overflow:visible;fill:#D04200;"/>
	<clipPath id="XMLID_79_">
		<use xlink:href="#XMLID_63_"  style="overflow:visible;"/>
	</clipPath>
	<g style="clip-path:url(#XMLID_79_);">
		<path class="st15" d="M164.5,37.4h-19c-51.3,0-93.4-42-93.4-93.4v-79.1c0-51.3,42-93.4,93.4-93.4h19c51.3,0,93.4,42,93.4,93.4V-56
			C257.9-4.7,215.9,37.4,164.5,37.4z"/>
	</g>
</g>
</svg>
