<?xml version="1.0" encoding="utf-8"?>
<!-- Generator: Adobe Illustrator 22.1.0, SVG Export Plug-In . SVG Version: 6.00 Build 0)  -->
<svg version="1.1" id="Layer_1" xmlns="http://www.w3.org/2000/svg" xmlns:xlink="http://www.w3.org/1999/xlink" x="0px" y="0px"
	 viewBox="0 0 306.1 306.1" style="enable-background:new 0 0 306.1 306.1;" xml:space="preserve">
<style type="text/css">
	.st0{clip-path:url(#XMLID_75_);}
	.st1{clip-path:url(#XMLID_76_);fill:none;stroke:#0C242D;stroke-width:4;stroke-miterlimit:10;}
	.st2{opacity:0.57;clip-path:url(#XMLID_77_);fill:none;stroke:#E2C991;stroke-width:4;stroke-miterlimit:10;}
	.st3{fill:#E2C991;}
	.st4{fill:#D6BB85;}
	.st5{opacity:4.000000e-02;}
	.st6{fill:#132126;}
	.st7{opacity:9.000000e-02;}
	.st8{clip-path:url(#XMLID_78_);}
	.st9{clip-path:url(#XMLID_79_);fill:none;stroke:#0C242D;stroke-width:4;stroke-miterlimit:10;}
	.st10{opacity:0.57;clip-path:url(#XMLID_80_);fill:none;stroke:#E2C991;stroke-width:4;stroke-miterlimit:10;}
	.st11{fill:none;stroke:#000000;stroke-width:3;stroke-miterlimit:10;}
	.st12{fill:none;stroke:#000000;stroke-width:2;stroke-miterlimit:10;}
	.st13{clip-path:url(#XMLID_81_);fill:none;stroke:#0C242D;stroke-width:4;stroke-miterlimit:10;}
	.st14{opacity:0.57;clip-path:url(#XMLID_82_);fill:none;stroke:#E2C991;stroke-width:4;stroke-miterlimit:10;}
	.st15{fill:#1F3139;}
	.st16{opacity:0.1;clip-path:url(#XMLID_83_);}
	.st17{opacity:0.1;clip-path:url(#XMLID_84_);}
	.st18{fill:none;stroke:#EFAF00;stroke-width:5;stroke-miterlimit:10;}
	.st19{fill:#6D5525;}
	.st20{fill:#111D21;}
	.st21{clip-path:url(#XMLID_85_);}
	.st22{opacity:0.1;clip-path:url(#XMLID_86_);}
	.st23{opacity:0.1;clip-path:url(#XMLID_87_);}
	.st24{fill:#AA936B;}
	.st25{opacity:0.11;clip-path:url(#XMLID_88_);}
	.st26{clip-path:url(#XMLID_89_);fill:#FFFFFF;}
	.st27{opacity:0.14;clip-path:url(#XMLID_90_);}
	.st28{fill:none;stroke:#000000;stroke-width:5;stroke-miterlimit:10;}
	.st29{opacity:0.21;clip-path:url(#XMLID_91_);}
	.st30{clip-path:url(#XMLID_92_);}
	.st31{opacity:0.11;clip-path:url(#XMLID_93_);}
	.st32{clip-path:url(#XMLID_93_);fill:none;stroke:#B58A28;stroke-width:3;stroke-miterlimit:10;}
	.st33{clip-path:url(#XMLID_94_);fill:#FFFFFF;}
	.st34{opacity:0.14;clip-path:url(#XMLID_95_);}
	.st35{opacity:0.21;clip-path:url(#XMLID_96_);}
	.st36{clip-path:url(#XMLID_92_);fill:none;stroke:#B58A28;stroke-width:3;stroke-miterlimit:10;}
	.st37{fill:#CEB382;}
	.st38{clip-path:url(#XMLID_97_);fill:#D94700;}
	.st39{fill:#4E9687;}
	.st40{fill:none;stroke:#4E9687;stroke-width:2;stroke-miterlimit:10;}
	.st41{clip-path:url(#XMLID_98_);}
	.st42{clip-path:url(#XMLID_99_);fill:#D94700;}
	.st43{opacity:4.000000e-02;clip-path:url(#XMLID_98_);}
	.st44{fill:#B55515;}
	.st45{opacity:0.2;clip-path:url(#XMLID_100_);}
	.st46{fill:#FFFFFF;}
	.st47{fill:none;stroke:#000000;stroke-width:6;stroke-miterlimit:10;}
	.st48{clip-path:url(#XMLID_101_);}
	.st49{opacity:0.2;clip-path:url(#XMLID_102_);}
	.st50{clip-path:url(#XMLID_103_);fill:#B55515;}
	.st51{fill:none;stroke:#B55515;stroke-width:3;stroke-miterlimit:10;}
	.st52{opacity:4.000000e-02;clip-path:url(#XMLID_101_);}
	.st53{opacity:0.12;clip-path:url(#XMLID_104_);}
	.st54{opacity:0.24;clip-path:url(#XMLID_104_);}
	.st55{opacity:0.11;clip-path:url(#XMLID_105_);}
	.st56{fill:none;stroke:#FF2400;stroke-width:6;stroke-miterlimit:10;}
	.st57{opacity:0.12;clip-path:url(#XMLID_106_);}
	.st58{fill:#B6D4E3;}
	.st59{clip-path:url(#XMLID_107_);}
	.st60{opacity:0.12;clip-path:url(#XMLID_108_);}
	.st61{opacity:0.24;clip-path:url(#XMLID_108_);}
	.st62{opacity:0.11;clip-path:url(#XMLID_109_);}
	.st63{opacity:0.12;clip-path:url(#XMLID_110_);}
	.st64{fill:#89CEE8;}
	.st65{opacity:4.000000e-02;clip-path:url(#XMLID_107_);}
	.st66{clip-path:url(#XMLID_111_);}
	.st67{clip-path:url(#XMLID_112_);fill:none;stroke:#0C242D;stroke-width:4;stroke-miterlimit:10;}
	.st68{opacity:0.57;clip-path:url(#XMLID_113_);fill:none;stroke:#E2C991;stroke-width:4;stroke-miterlimit:10;}
	.st69{clip-path:url(#XMLID_114_);}
	.st70{opacity:0.1;clip-path:url(#XMLID_115_);}
	.st71{opacity:0.1;clip-path:url(#XMLID_116_);}
	.st72{clip-path:url(#XMLID_117_);}
	.st73{opacity:0.11;clip-path:url(#XMLID_118_);}
	.st74{clip-path:url(#XMLID_119_);fill:#FFFFFF;}
	.st75{opacity:0.14;clip-path:url(#XMLID_120_);}
	.st76{opacity:0.21;clip-path:url(#XMLID_121_);}
	.st77{clip-path:url(#XMLID_122_);}
	.st78{clip-path:url(#XMLID_123_);fill:#D94700;}
	.st79{opacity:4.000000e-02;clip-path:url(#XMLID_122_);}
	.st80{clip-path:url(#XMLID_124_);}
	.st81{clip-path:url(#XMLID_125_);fill:#D94700;}
	.st82{opacity:4.000000e-02;clip-path:url(#XMLID_124_);}
	.st83{clip-path:url(#XMLID_126_);}
	.st84{opacity:0.2;clip-path:url(#XMLID_127_);}
	.st85{clip-path:url(#XMLID_128_);fill:#B55515;}
	.st86{fill:none;stroke:#E2C991;stroke-width:3;stroke-miterlimit:10;}
	.st87{opacity:4.000000e-02;clip-path:url(#XMLID_126_);}
	.st88{clip-path:url(#XMLID_129_);}
	.st89{opacity:0.2;clip-path:url(#XMLID_130_);}
	.st90{clip-path:url(#XMLID_131_);fill:#B55515;}
	.st91{opacity:4.000000e-02;clip-path:url(#XMLID_129_);}
	.st92{clip-path:url(#XMLID_132_);}
	.st93{opacity:0.12;clip-path:url(#XMLID_133_);}
	.st94{opacity:0.24;clip-path:url(#XMLID_133_);}
	.st95{opacity:0.11;clip-path:url(#XMLID_134_);}
	.st96{opacity:0.12;clip-path:url(#XMLID_135_);}
	.st97{opacity:4.000000e-02;clip-path:url(#XMLID_132_);}
	.st98{clip-path:url(#XMLID_136_);}
	.st99{opacity:0.12;clip-path:url(#XMLID_137_);}
	.st100{opacity:0.24;clip-path:url(#XMLID_137_);}
	.st101{opacity:0.11;clip-path:url(#XMLID_138_);}
	.st102{opacity:0.12;clip-path:url(#XMLID_139_);}
	.st103{opacity:4.000000e-02;clip-path:url(#XMLID_136_);}
	.st104{clip-path:url(#XMLID_140_);}
	.st105{opacity:0.1;clip-path:url(#XMLID_141_);}
	.st106{opacity:0.1;clip-path:url(#XMLID_142_);}
	.st107{clip-path:url(#XMLID_143_);}
	.st108{opacity:0.11;clip-path:url(#XMLID_144_);}
	.st109{clip-path:url(#XMLID_145_);fill:#FFFFFF;}
	.st110{opacity:0.14;clip-path:url(#XMLID_146_);}
	.st111{opacity:0.21;clip-path:url(#XMLID_147_);}
</style>
<g>
	<defs>
		<rect id="XMLID_34_" width="306.1" height="306.1"/>
	</defs>
	<use xlink:href="#XMLID_34_"  style="overflow:visible;fill:#692E47;"/>
	<clipPath id="XMLID_75_">
		<use xlink:href="#XMLID_34_"  style="overflow:visible;"/>
	</clipPath>
	<g class="st0">
		<path class="st44" d="M191,171.8c0,0,3.6,7.8,0,18.3c-3.6,10.5-19.3,13.5-19.3,13.5l6.1-25.2L191,171.8z"/>
		<path class="st4" d="M177.6,180.5c0,0,9.9,0,16.8-11.3c6.9-11.3,6.2-23.3-2.1-25.2s-16.6,10.8-16.6,10.8L177.6,180.5z"/>
		<g>
			<defs>
				<path id="XMLID_56_" d="M292.1,298.5c0-1.5-41.6-61.7-65.9-71.4s-40.9-13.6-40.9-13.6l-8.1-16.9l-93.5,8.9l4.3,18.2
					c0,0-7.5,10-16.1,13.3c-8.6,3.3-41.7,12.1-47,30.5S-4.2,400.7-4.2,400.7h294.5L292.1,298.5z"/>
			</defs>
			<use xlink:href="#XMLID_56_"  style="overflow:visible;fill:#1F3139;"/>
			<clipPath id="XMLID_76_">
				<use xlink:href="#XMLID_56_"  style="overflow:visible;"/>
			</clipPath>
			<path style="opacity:0.2;clip-path:url(#XMLID_76_);" d="M178.8,183.2c0,0,0.5,46.9,0,56c-0.5,9.1-30.6,35.7-30.6,35.7h-12.7v11
				c0,0-14.9,13-23.4,17.6c-8.5,4.5-10.9,42.6-10.9,42.6l-3.7,57.7l2.1-107.3L178.8,183.2z"/>
			<path style="opacity:0.2;clip-path:url(#XMLID_76_);" d="M89.4,211.8l-17.5,32.6l8.8,10.6l-8.8,13.5c0,0,18.2,2.5,19.4,30.6
				c1.2,28.1,2.2,96.8,2.2,96.8s1.8-164,2.4-177.1C96.5,205.8,89.4,211.8,89.4,211.8z"/>
		</g>
		<polygon class="st46" points="161.1,223.6 99.8,296 94.6,228.2 		"/>
		<g>
			<defs>
				<path id="XMLID_55_" d="M124.8,236.9L124.8,236.9c-29.8,0-54.3-24.4-54.3-54.3v-74.7c0-29.8,24.4-54.3,54.3-54.3h0
					c29.8,0,54.3,24.4,54.3,54.3v74.7C179,212.5,154.6,236.9,124.8,236.9z"/>
			</defs>
			<use xlink:href="#XMLID_55_"  style="overflow:visible;fill:#E2C991;"/>
			<clipPath id="XMLID_77_">
				<use xlink:href="#XMLID_55_"  style="overflow:visible;"/>
			</clipPath>
			<path style="clip-path:url(#XMLID_77_);fill:#B55515;" d="M67.8,198.5c0,0,10.8-13.8,28-13.1s32.5,11.7,32.5,11.7
				s53-26.3,53-47.7c0,35.9,6.8,66-33.7,88.2S66.6,218.1,67.8,198.5z"/>
		</g>
		<path class="st86" d="M88,199c0,0,6.5-2.4,12.7-2.4s14.1,2.4,14.1,2.4"/>
		<path class="st44" d="M76.3,81.8c0,0,7.5-9.6,31-11.4c23.5-1.8,51.7-0.5,61.6,41.4s9.9,41.9,9.9,41.9s23.8,5.3,24.4-7.5
			c0.6-12.8,3.2-44.2-15.6-68.3s-47.6-31.8-69.3-25S87.2,64,76.3,81.8z"/>
	</g>
	<rect x="102" y="-59.5" style="opacity:4.000000e-02;clip-path:url(#XMLID_75_);" width="222.7" height="481.2"/>
</g>
</svg>
