<?xml version="1.0" encoding="utf-8"?>
<!-- Generator: Adobe Illustrator 22.1.0, SVG Export Plug-In . SVG Version: 6.00 Build 0)  -->
<svg version="1.1" id="Layer_1" xmlns="http://www.w3.org/2000/svg" xmlns:xlink="http://www.w3.org/1999/xlink" x="0px" y="0px"
	 viewBox="0 0 306.4 304.8" style="enable-background:new 0 0 306.4 304.8;" xml:space="preserve">
<style type="text/css">
	.st0{clip-path:url(#XMLID_75_);}
	.st1{clip-path:url(#XMLID_76_);fill:none;stroke:#0C242D;stroke-width:4;stroke-miterlimit:10;}
	.st2{opacity:0.57;clip-path:url(#XMLID_77_);fill:none;stroke:#E2C991;stroke-width:4;stroke-miterlimit:10;}
	.st3{fill:#E2C991;}
	.st4{fill:#D6BB85;}
	.st5{opacity:4.000000e-02;}
	.st6{fill:#132126;}
	.st7{opacity:9.000000e-02;}
	.st8{clip-path:url(#XMLID_78_);}
	.st9{clip-path:url(#XMLID_79_);fill:none;stroke:#0C242D;stroke-width:4;stroke-miterlimit:10;}
	.st10{opacity:0.57;clip-path:url(#XMLID_80_);fill:none;stroke:#E2C991;stroke-width:4;stroke-miterlimit:10;}
	.st11{fill:none;stroke:#000000;stroke-width:3;stroke-miterlimit:10;}
	.st12{fill:none;stroke:#000000;stroke-width:2;stroke-miterlimit:10;}
	.st13{clip-path:url(#XMLID_81_);fill:none;stroke:#0C242D;stroke-width:4;stroke-miterlimit:10;}
	.st14{opacity:0.57;clip-path:url(#XMLID_82_);fill:none;stroke:#E2C991;stroke-width:4;stroke-miterlimit:10;}
	.st15{fill:#1F3139;}
	.st16{opacity:0.1;clip-path:url(#XMLID_83_);}
	.st17{opacity:0.1;clip-path:url(#XMLID_84_);}
	.st18{fill:none;stroke:#EFAF00;stroke-width:5;stroke-miterlimit:10;}
	.st19{fill:#6D5525;}
	.st20{fill:#111D21;}
	.st21{clip-path:url(#XMLID_85_);}
	.st22{opacity:0.1;clip-path:url(#XMLID_86_);}
	.st23{opacity:0.1;clip-path:url(#XMLID_87_);}
	.st24{fill:#AA936B;}
	.st25{opacity:0.11;clip-path:url(#XMLID_88_);}
	.st26{clip-path:url(#XMLID_89_);fill:#FFFFFF;}
	.st27{opacity:0.14;clip-path:url(#XMLID_90_);}
	.st28{fill:none;stroke:#000000;stroke-width:5;stroke-miterlimit:10;}
	.st29{opacity:0.21;clip-path:url(#XMLID_91_);}
	.st30{clip-path:url(#XMLID_92_);}
	.st31{opacity:0.11;clip-path:url(#XMLID_93_);}
	.st32{clip-path:url(#XMLID_93_);fill:none;stroke:#B58A28;stroke-width:3;stroke-miterlimit:10;}
	.st33{clip-path:url(#XMLID_94_);fill:#FFFFFF;}
	.st34{opacity:0.14;clip-path:url(#XMLID_95_);}
	.st35{opacity:0.21;clip-path:url(#XMLID_96_);}
	.st36{clip-path:url(#XMLID_92_);fill:none;stroke:#B58A28;stroke-width:3;stroke-miterlimit:10;}
	.st37{fill:#CEB382;}
	.st38{clip-path:url(#XMLID_97_);fill:#D94700;}
	.st39{fill:#4E9687;}
	.st40{fill:none;stroke:#4E9687;stroke-width:2;stroke-miterlimit:10;}
	.st41{clip-path:url(#XMLID_98_);}
	.st42{clip-path:url(#XMLID_99_);fill:#D94700;}
	.st43{opacity:4.000000e-02;clip-path:url(#XMLID_98_);}
	.st44{fill:#B55515;}
	.st45{opacity:0.2;clip-path:url(#XMLID_100_);}
	.st46{fill:#FFFFFF;}
	.st47{fill:none;stroke:#000000;stroke-width:6;stroke-miterlimit:10;}
	.st48{clip-path:url(#XMLID_101_);}
	.st49{opacity:0.2;clip-path:url(#XMLID_102_);}
	.st50{clip-path:url(#XMLID_103_);fill:#B55515;}
	.st51{fill:none;stroke:#B55515;stroke-width:3;stroke-miterlimit:10;}
	.st52{opacity:4.000000e-02;clip-path:url(#XMLID_101_);}
	.st53{opacity:0.12;clip-path:url(#XMLID_104_);}
	.st54{opacity:0.24;clip-path:url(#XMLID_104_);}
	.st55{opacity:0.11;clip-path:url(#XMLID_105_);}
	.st56{fill:none;stroke:#FF2400;stroke-width:6;stroke-miterlimit:10;}
	.st57{opacity:0.12;clip-path:url(#XMLID_106_);}
	.st58{fill:#B6D4E3;}
	.st59{clip-path:url(#XMLID_107_);}
	.st60{opacity:0.12;clip-path:url(#XMLID_108_);}
	.st61{opacity:0.24;clip-path:url(#XMLID_108_);}
	.st62{opacity:0.11;clip-path:url(#XMLID_109_);}
	.st63{opacity:0.12;clip-path:url(#XMLID_110_);}
	.st64{fill:#89CEE8;}
	.st65{opacity:4.000000e-02;clip-path:url(#XMLID_107_);}
	.st66{clip-path:url(#XMLID_111_);}
	.st67{clip-path:url(#XMLID_112_);fill:none;stroke:#0C242D;stroke-width:4;stroke-miterlimit:10;}
	.st68{opacity:0.57;clip-path:url(#XMLID_113_);fill:none;stroke:#E2C991;stroke-width:4;stroke-miterlimit:10;}
	.st69{clip-path:url(#XMLID_114_);}
	.st70{opacity:0.1;clip-path:url(#XMLID_115_);}
	.st71{opacity:0.1;clip-path:url(#XMLID_116_);}
	.st72{clip-path:url(#XMLID_117_);}
	.st73{opacity:0.11;clip-path:url(#XMLID_118_);}
	.st74{clip-path:url(#XMLID_119_);fill:#FFFFFF;}
	.st75{opacity:0.14;clip-path:url(#XMLID_120_);}
	.st76{opacity:0.21;clip-path:url(#XMLID_121_);}
	.st77{clip-path:url(#XMLID_122_);}
	.st78{clip-path:url(#XMLID_123_);fill:#D94700;}
	.st79{opacity:4.000000e-02;clip-path:url(#XMLID_122_);}
	.st80{clip-path:url(#XMLID_124_);}
	.st81{clip-path:url(#XMLID_125_);fill:#D94700;}
	.st82{opacity:4.000000e-02;clip-path:url(#XMLID_124_);}
	.st83{clip-path:url(#XMLID_126_);}
	.st84{opacity:0.2;clip-path:url(#XMLID_127_);}
	.st85{clip-path:url(#XMLID_128_);fill:#B55515;}
	.st86{fill:none;stroke:#E2C991;stroke-width:3;stroke-miterlimit:10;}
	.st87{opacity:4.000000e-02;clip-path:url(#XMLID_126_);}
	.st88{clip-path:url(#XMLID_129_);}
	.st89{opacity:0.2;clip-path:url(#XMLID_130_);}
	.st90{clip-path:url(#XMLID_131_);fill:#B55515;}
	.st91{opacity:4.000000e-02;clip-path:url(#XMLID_129_);}
	.st92{clip-path:url(#XMLID_132_);}
	.st93{opacity:0.12;clip-path:url(#XMLID_133_);}
	.st94{opacity:0.24;clip-path:url(#XMLID_133_);}
	.st95{opacity:0.11;clip-path:url(#XMLID_134_);}
	.st96{opacity:0.12;clip-path:url(#XMLID_135_);}
	.st97{opacity:4.000000e-02;clip-path:url(#XMLID_132_);}
	.st98{clip-path:url(#XMLID_136_);}
	.st99{opacity:0.12;clip-path:url(#XMLID_137_);}
	.st100{opacity:0.24;clip-path:url(#XMLID_137_);}
	.st101{opacity:0.11;clip-path:url(#XMLID_138_);}
	.st102{opacity:0.12;clip-path:url(#XMLID_139_);}
	.st103{opacity:4.000000e-02;clip-path:url(#XMLID_136_);}
	.st104{clip-path:url(#XMLID_140_);}
	.st105{opacity:0.1;clip-path:url(#XMLID_141_);}
	.st106{opacity:0.1;clip-path:url(#XMLID_142_);}
	.st107{clip-path:url(#XMLID_143_);}
	.st108{opacity:0.11;clip-path:url(#XMLID_144_);}
	.st109{clip-path:url(#XMLID_145_);fill:#FFFFFF;}
	.st110{opacity:0.14;clip-path:url(#XMLID_146_);}
	.st111{opacity:0.21;clip-path:url(#XMLID_147_);}
</style>
<g>
	<defs>
		<rect id="XMLID_63_" x="0.3" width="306.1" height="306.1"/>
	</defs>
	<use xlink:href="#XMLID_63_"  style="overflow:visible;fill:#D04200;"/>
	<clipPath id="XMLID_75_">
		<use xlink:href="#XMLID_63_"  style="overflow:visible;"/>
	</clipPath>
	<g class="st0">
		<path class="st15" d="M164.5,468.7h-19c-51.3,0-93.4-42-93.4-93.4v-79.1c0-51.3,42-93.4,93.4-93.4h19c51.3,0,93.4,42,93.4,93.4
			v79.1C257.9,426.6,215.9,468.7,164.5,468.7z"/>
		<polygon class="st4" points="175.3,202.9 155,237.3 134.8,202.9 134.8,176.3 175.3,176.3 		"/>
		<g>
			<defs>
				<path id="XMLID_65_" d="M98.6,69.8c0,0-15.2-8-22.1,11.6s1.9,52.9,11,64.4s13,25.9,11,46c-1.9,20.1-12,42-12,42l12.5,11.5
					c0,0,21.7-24.7,21.7-47.1s0.7-46.8,0.7-46.8"/>
			</defs>
			<use xlink:href="#XMLID_65_"  style="overflow:visible;fill:#E2C991;"/>
			<clipPath id="XMLID_76_">
				<use xlink:href="#XMLID_65_"  style="overflow:visible;"/>
			</clipPath>
			<path style="opacity:0.1;clip-path:url(#XMLID_76_);" d="M96,66.2c0,0-13.2,19.9-6.4,50.4s33.5,57.2,33.5,57.2l5.1-49.1L96,66.2z
				"/>
		</g>
		<g>
			<defs>
				<path id="XMLID_64_" d="M210.6,72.7c0,0,8.9-9.6,14.9-6.9c14.7,6.6,0.2,36.1-6,50.9c-6.6,15.6-11.8,31.8-15.2,45.6
					s-3.3,42.5,6.4,53.5c-8.7,14.4-8.7,14.4-8.7,14.4s-8.6-13.4-13.2-27.4c-4.6-14-9-51.3-9-51.3"/>
			</defs>
			<use xlink:href="#XMLID_64_"  style="overflow:visible;fill:#E2C991;"/>
			<clipPath id="XMLID_77_">
				<use xlink:href="#XMLID_64_"  style="overflow:visible;"/>
			</clipPath>
			<path style="opacity:0.1;clip-path:url(#XMLID_77_);" d="M180.2,167.1c0,0,24.3-14.4,33.6-50.6s-4.1-78.4-4.1-78.4L178.2,88
				L180.2,167.1z"/>
		</g>
		<path class="st3" d="M159.2,30.7h-10.7c-28.3,0-51.4,23.1-51.4,51.4v25.5c0,15.6,7,29.6,18,39l0,0v0c2,1.7,4.1,3.3,6.3,4.7
			c4.2,3.8,9,9.7,9,17.3c0,13.5-0.7,35.3,23.4,34.3c26-1,26.3-27.9,26.5-38.2c0.1-6.4,4.9-11.9,8.5-15.1c1.3-1,2.6-2,3.9-3l0,0l0,0
			c10.9-9.4,17.9-23.4,17.9-38.9V82.1C210.6,53.8,187.4,30.7,159.2,30.7z"/>
		<rect x="151.1" y="-6.1" class="st5" width="176.6" height="381.6"/>
		<path class="st20" d="M100.7,212c0,0,23.9-5,31.1,14.9c-11.5,20.9-41.1,47.2-46.4,81.1s-33.6,64.5-40.8,43
			c-7.2-21.5,4.5-40.2,4.5-66.2C49,258.8,79.1,208.8,100.7,212z"/>
		<path class="st20" d="M208.6,207.7c0,0-22.4,10.7-22.4,23.4c27.8,27.1,54.7,109.5,59.1,122.9s19.7,11.2,19.7-12.8
			s-0.9-51.7-10.7-84.8C244.5,223.3,208.6,207.7,208.6,207.7z"/>
	</g>
</g>
</svg>
