<?xml version="1.0" encoding="utf-8"?>
<!-- Generator: Adobe Illustrator 22.1.0, SVG Export Plug-In . SVG Version: 6.00 Build 0)  -->
<svg version="1.1" id="Layer_1" xmlns="http://www.w3.org/2000/svg" xmlns:xlink="http://www.w3.org/1999/xlink" x="0px" y="0px"
	 viewBox="0 0 303.5 303.5" style="enable-background:new 0 0 303.5 303.5;" xml:space="preserve">
<style type="text/css">
	.st0{clip-path:url(#XMLID_75_);}
	.st1{clip-path:url(#XMLID_76_);fill:none;stroke:#0C242D;stroke-width:4;stroke-miterlimit:10;}
	.st2{opacity:0.57;clip-path:url(#XMLID_77_);fill:none;stroke:#E2C991;stroke-width:4;stroke-miterlimit:10;}
	.st3{fill:#E2C991;}
	.st4{fill:#D6BB85;}
	.st5{opacity:4.000000e-02;}
	.st6{fill:#132126;}
	.st7{opacity:9.000000e-02;}
	.st8{clip-path:url(#XMLID_78_);}
	.st9{clip-path:url(#XMLID_79_);fill:none;stroke:#0C242D;stroke-width:4;stroke-miterlimit:10;}
	.st10{opacity:0.57;clip-path:url(#XMLID_80_);fill:none;stroke:#E2C991;stroke-width:4;stroke-miterlimit:10;}
	.st11{fill:none;stroke:#000000;stroke-width:3;stroke-miterlimit:10;}
	.st12{fill:none;stroke:#000000;stroke-width:2;stroke-miterlimit:10;}
	.st13{clip-path:url(#XMLID_81_);fill:none;stroke:#0C242D;stroke-width:4;stroke-miterlimit:10;}
	.st14{opacity:0.57;clip-path:url(#XMLID_82_);fill:none;stroke:#E2C991;stroke-width:4;stroke-miterlimit:10;}
	.st15{fill:#1F3139;}
	.st16{opacity:0.1;clip-path:url(#XMLID_83_);}
	.st17{opacity:0.1;clip-path:url(#XMLID_84_);}
	.st18{fill:none;stroke:#EFAF00;stroke-width:5;stroke-miterlimit:10;}
	.st19{fill:#6D5525;}
	.st20{fill:#111D21;}
	.st21{clip-path:url(#XMLID_85_);}
	.st22{opacity:0.1;clip-path:url(#XMLID_86_);}
	.st23{opacity:0.1;clip-path:url(#XMLID_87_);}
	.st24{fill:#AA936B;}
	.st25{opacity:0.11;clip-path:url(#XMLID_88_);}
	.st26{clip-path:url(#XMLID_89_);fill:#FFFFFF;}
	.st27{opacity:0.14;clip-path:url(#XMLID_90_);}
	.st28{fill:none;stroke:#000000;stroke-width:5;stroke-miterlimit:10;}
	.st29{opacity:0.21;clip-path:url(#XMLID_91_);}
	.st30{clip-path:url(#XMLID_92_);}
	.st31{opacity:0.11;clip-path:url(#XMLID_93_);}
	.st32{clip-path:url(#XMLID_93_);fill:none;stroke:#B58A28;stroke-width:3;stroke-miterlimit:10;}
	.st33{clip-path:url(#XMLID_94_);fill:#FFFFFF;}
	.st34{opacity:0.14;clip-path:url(#XMLID_95_);}
	.st35{opacity:0.21;clip-path:url(#XMLID_96_);}
	.st36{clip-path:url(#XMLID_92_);fill:none;stroke:#B58A28;stroke-width:3;stroke-miterlimit:10;}
	.st37{fill:#CEB382;}
	.st38{clip-path:url(#XMLID_97_);fill:#D94700;}
	.st39{fill:#4E9687;}
	.st40{fill:none;stroke:#4E9687;stroke-width:2;stroke-miterlimit:10;}
	.st41{clip-path:url(#XMLID_98_);}
	.st42{clip-path:url(#XMLID_99_);fill:#D94700;}
	.st43{opacity:4.000000e-02;clip-path:url(#XMLID_98_);}
	.st44{fill:#B55515;}
	.st45{opacity:0.2;clip-path:url(#XMLID_100_);}
	.st46{fill:#FFFFFF;}
	.st47{fill:none;stroke:#000000;stroke-width:6;stroke-miterlimit:10;}
	.st48{clip-path:url(#XMLID_101_);}
	.st49{opacity:0.2;clip-path:url(#XMLID_102_);}
	.st50{clip-path:url(#XMLID_103_);fill:#B55515;}
	.st51{fill:none;stroke:#B55515;stroke-width:3;stroke-miterlimit:10;}
	.st52{opacity:4.000000e-02;clip-path:url(#XMLID_101_);}
	.st53{opacity:0.12;clip-path:url(#XMLID_104_);}
	.st54{opacity:0.24;clip-path:url(#XMLID_104_);}
	.st55{opacity:0.11;clip-path:url(#XMLID_105_);}
	.st56{fill:none;stroke:#FF2400;stroke-width:6;stroke-miterlimit:10;}
	.st57{opacity:0.12;clip-path:url(#XMLID_106_);}
	.st58{fill:#B6D4E3;}
	.st59{clip-path:url(#XMLID_107_);}
	.st60{opacity:0.12;clip-path:url(#XMLID_108_);}
	.st61{opacity:0.24;clip-path:url(#XMLID_108_);}
	.st62{opacity:0.11;clip-path:url(#XMLID_109_);}
	.st63{opacity:0.12;clip-path:url(#XMLID_110_);}
	.st64{fill:#89CEE8;}
	.st65{opacity:4.000000e-02;clip-path:url(#XMLID_107_);}
	.st66{clip-path:url(#XMLID_111_);}
	.st67{clip-path:url(#XMLID_112_);fill:none;stroke:#0C242D;stroke-width:4;stroke-miterlimit:10;}
	.st68{opacity:0.57;clip-path:url(#XMLID_113_);fill:none;stroke:#E2C991;stroke-width:4;stroke-miterlimit:10;}
	.st69{clip-path:url(#XMLID_114_);}
	.st70{opacity:0.1;clip-path:url(#XMLID_115_);}
	.st71{opacity:0.1;clip-path:url(#XMLID_116_);}
	.st72{clip-path:url(#XMLID_117_);}
	.st73{opacity:0.11;clip-path:url(#XMLID_118_);}
	.st74{clip-path:url(#XMLID_119_);fill:#FFFFFF;}
	.st75{opacity:0.14;clip-path:url(#XMLID_120_);}
	.st76{opacity:0.21;clip-path:url(#XMLID_121_);}
	.st77{clip-path:url(#XMLID_122_);}
	.st78{clip-path:url(#XMLID_123_);fill:#D94700;}
	.st79{opacity:4.000000e-02;clip-path:url(#XMLID_122_);}
	.st80{clip-path:url(#XMLID_124_);}
	.st81{clip-path:url(#XMLID_125_);fill:#D94700;}
	.st82{opacity:4.000000e-02;clip-path:url(#XMLID_124_);}
	.st83{clip-path:url(#XMLID_126_);}
	.st84{opacity:0.2;clip-path:url(#XMLID_127_);}
	.st85{clip-path:url(#XMLID_128_);fill:#B55515;}
	.st86{fill:none;stroke:#E2C991;stroke-width:3;stroke-miterlimit:10;}
	.st87{opacity:4.000000e-02;clip-path:url(#XMLID_126_);}
	.st88{clip-path:url(#XMLID_129_);}
	.st89{opacity:0.2;clip-path:url(#XMLID_130_);}
	.st90{clip-path:url(#XMLID_131_);fill:#B55515;}
	.st91{opacity:4.000000e-02;clip-path:url(#XMLID_129_);}
	.st92{clip-path:url(#XMLID_132_);}
	.st93{opacity:0.12;clip-path:url(#XMLID_133_);}
	.st94{opacity:0.24;clip-path:url(#XMLID_133_);}
	.st95{opacity:0.11;clip-path:url(#XMLID_134_);}
	.st96{opacity:0.12;clip-path:url(#XMLID_135_);}
	.st97{opacity:4.000000e-02;clip-path:url(#XMLID_132_);}
	.st98{clip-path:url(#XMLID_136_);}
	.st99{opacity:0.12;clip-path:url(#XMLID_137_);}
	.st100{opacity:0.24;clip-path:url(#XMLID_137_);}
	.st101{opacity:0.11;clip-path:url(#XMLID_138_);}
	.st102{opacity:0.12;clip-path:url(#XMLID_139_);}
	.st103{opacity:4.000000e-02;clip-path:url(#XMLID_136_);}
	.st104{clip-path:url(#XMLID_140_);}
	.st105{opacity:0.1;clip-path:url(#XMLID_141_);}
	.st106{opacity:0.1;clip-path:url(#XMLID_142_);}
	.st107{clip-path:url(#XMLID_143_);}
	.st108{opacity:0.11;clip-path:url(#XMLID_144_);}
	.st109{clip-path:url(#XMLID_145_);fill:#FFFFFF;}
	.st110{opacity:0.14;clip-path:url(#XMLID_146_);}
	.st111{opacity:0.21;clip-path:url(#XMLID_147_);}
</style>
<g>
	<defs>
		<rect id="XMLID_71_" width="303.5" height="303.5"/>
	</defs>
	<use xlink:href="#XMLID_71_"  style="overflow:visible;fill:#EFAF00;"/>
	<clipPath id="XMLID_75_">
		<use xlink:href="#XMLID_71_"  style="overflow:visible;"/>
	</clipPath>
	<g class="st0">
		<g>
			<defs>
				<path id="XMLID_73_" d="M242.6,346.7H34.8v-67.1c0-36.9,30.2-67.1,67.1-67.1h73.6c36.9,0,67.1,30.2,67.1,67.1V346.7z"/>
			</defs>
			<use xlink:href="#XMLID_73_"  style="overflow:visible;fill:#1F313A;"/>
			<clipPath id="XMLID_76_">
				<use xlink:href="#XMLID_73_"  style="overflow:visible;"/>
			</clipPath>
			<line class="st1" x1="200.3" y1="279.5" x2="200.3" y2="346.7"/>
		</g>
		<g>
			<defs>
				<path id="XMLID_72_" d="M144.5,288.2L144.5,288.2c-37,0-67.2-30.3-67.2-67.2V119.3c0-37,30.3-67.2,67.2-67.2h0
					c37,0,67.2,30.3,67.2,67.2v101.6C211.7,257.9,181.5,288.2,144.5,288.2z"/>
			</defs>
			<use xlink:href="#XMLID_72_"  style="overflow:visible;fill:#1F313A;"/>
			<clipPath id="XMLID_77_">
				<use xlink:href="#XMLID_72_"  style="overflow:visible;"/>
			</clipPath>
			<path class="st2" d="M130.4,89.8c0,0-2.7-15.9,4.9-26.3c7.6-10.4,16.7-15.2,16.7-15.2"/>
		</g>
		<rect x="118.8" y="148.8" class="st3" width="60" height="105.7"/>
		<path class="st4" d="M178.8,212.4c27.1,26.5,23.5,69,23.5,69s-23.5,6.8-61.6,6.9C79.5,288.3,66,274.6,66,274.6s-1-23.5,11.2-40.7
			s41.6-21.5,41.6-21.5s14.2,29.8,58.9-0.1"/>
		<path class="st3" d="M136,188.7h-4.4c-23.5,0-42.8-19.2-42.8-42.8V128c0-23.5,19.2-42.8,42.8-42.8h4.4c23.5,0,42.8,19.2,42.8,42.8
			v17.9C178.8,169.4,159.5,188.7,136,188.7z"/>
		<rect x="144.2" y="-17.5" class="st5" width="190.8" height="412.3"/>
		<path class="st6" d="M211.7,223.1c0,0-14.8,27.2-54.3,48.8c-32.4,17.7-47.2,74.8-47.2,74.8h132.4c0,0-0.5-40.8,0-67.1
			C243.4,241.2,211.7,223.1,211.7,223.1z"/>
		<path class="st6" d="M77.3,217.1c0,0-11.5,38.7-11.3,67.8c0.3,29.1-31.2,61.8-31.2,61.8s0-50.6,0-74.8S58.4,221.6,77.3,217.1z"/>
		<path class="st7" d="M132.6,76.7l-0.2,7.7c0,0,38,15.7,39.5,51.6s-4.4,72.3,5.8,76.4s14.8-26.5,14.8-26.5s2-8.6-3.5-50.1
			C183.6,94.2,143.4,70.3,132.6,76.7z"/>
	</g>
</g>
</svg>
