<?xml version="1.0" encoding="utf-8"?>
<!-- Generator: Adobe Illustrator 22.1.0, SVG Export Plug-In . SVG Version: 6.00 Build 0)  -->
<svg version="1.1" id="Layer_1" xmlns="http://www.w3.org/2000/svg" xmlns:xlink="http://www.w3.org/1999/xlink" x="0px" y="0px"
	 viewBox="0 0 303.5 304.8" style="enable-background:new 0 0 303.5 304.8;" xml:space="preserve">
<style type="text/css">
	.st0{clip-path:url(#XMLID_75_);}
	.st1{clip-path:url(#XMLID_76_);fill:none;stroke:#0C242D;stroke-width:4;stroke-miterlimit:10;}
	.st2{opacity:0.57;clip-path:url(#XMLID_77_);fill:none;stroke:#E2C991;stroke-width:4;stroke-miterlimit:10;}
	.st3{fill:#E2C991;}
	.st4{fill:#D6BB85;}
	.st5{opacity:4.000000e-02;}
	.st6{fill:#132126;}
	.st7{opacity:9.000000e-02;}
	.st8{clip-path:url(#XMLID_78_);}
	.st9{clip-path:url(#XMLID_79_);fill:none;stroke:#0C242D;stroke-width:4;stroke-miterlimit:10;}
	.st10{opacity:0.57;clip-path:url(#XMLID_80_);fill:none;stroke:#E2C991;stroke-width:4;stroke-miterlimit:10;}
	.st11{fill:none;stroke:#000000;stroke-width:3;stroke-miterlimit:10;}
	.st12{fill:none;stroke:#000000;stroke-width:2;stroke-miterlimit:10;}
	.st13{clip-path:url(#XMLID_81_);fill:none;stroke:#0C242D;stroke-width:4;stroke-miterlimit:10;}
	.st14{opacity:0.57;clip-path:url(#XMLID_82_);fill:none;stroke:#E2C991;stroke-width:4;stroke-miterlimit:10;}
	.st15{fill:#1F3139;}
	.st16{opacity:0.1;clip-path:url(#XMLID_83_);}
	.st17{opacity:0.1;clip-path:url(#XMLID_84_);}
	.st18{fill:none;stroke:#EFAF00;stroke-width:5;stroke-miterlimit:10;}
	.st19{fill:#6D5525;}
	.st20{fill:#111D21;}
	.st21{clip-path:url(#XMLID_85_);}
	.st22{opacity:0.1;clip-path:url(#XMLID_86_);}
	.st23{opacity:0.1;clip-path:url(#XMLID_87_);}
	.st24{fill:#AA936B;}
	.st25{opacity:0.11;clip-path:url(#XMLID_88_);}
	.st26{clip-path:url(#XMLID_89_);fill:#FFFFFF;}
	.st27{opacity:0.14;clip-path:url(#XMLID_90_);}
	.st28{fill:none;stroke:#000000;stroke-width:5;stroke-miterlimit:10;}
	.st29{opacity:0.21;clip-path:url(#XMLID_91_);}
	.st30{clip-path:url(#XMLID_92_);}
	.st31{opacity:0.11;clip-path:url(#XMLID_93_);}
	.st32{clip-path:url(#XMLID_93_);fill:none;stroke:#B58A28;stroke-width:3;stroke-miterlimit:10;}
	.st33{clip-path:url(#XMLID_94_);fill:#FFFFFF;}
	.st34{opacity:0.14;clip-path:url(#XMLID_95_);}
	.st35{opacity:0.21;clip-path:url(#XMLID_96_);}
	.st36{clip-path:url(#XMLID_92_);fill:none;stroke:#B58A28;stroke-width:3;stroke-miterlimit:10;}
	.st37{fill:#CEB382;}
	.st38{clip-path:url(#XMLID_97_);fill:#D94700;}
	.st39{fill:#4E9687;}
	.st40{fill:none;stroke:#4E9687;stroke-width:2;stroke-miterlimit:10;}
	.st41{clip-path:url(#XMLID_98_);}
	.st42{clip-path:url(#XMLID_99_);fill:#D94700;}
	.st43{opacity:4.000000e-02;clip-path:url(#XMLID_98_);}
	.st44{fill:#B55515;}
	.st45{opacity:0.2;clip-path:url(#XMLID_100_);}
	.st46{fill:#FFFFFF;}
	.st47{fill:none;stroke:#000000;stroke-width:6;stroke-miterlimit:10;}
	.st48{clip-path:url(#XMLID_101_);}
	.st49{opacity:0.2;clip-path:url(#XMLID_102_);}
	.st50{clip-path:url(#XMLID_103_);fill:#B55515;}
	.st51{fill:none;stroke:#B55515;stroke-width:3;stroke-miterlimit:10;}
	.st52{opacity:4.000000e-02;clip-path:url(#XMLID_101_);}
	.st53{opacity:0.12;clip-path:url(#XMLID_104_);}
	.st54{opacity:0.24;clip-path:url(#XMLID_104_);}
	.st55{opacity:0.11;clip-path:url(#XMLID_105_);}
	.st56{fill:none;stroke:#FF2400;stroke-width:6;stroke-miterlimit:10;}
	.st57{opacity:0.12;clip-path:url(#XMLID_106_);}
	.st58{fill:#B6D4E3;}
	.st59{clip-path:url(#XMLID_107_);}
	.st60{opacity:0.12;clip-path:url(#XMLID_108_);}
	.st61{opacity:0.24;clip-path:url(#XMLID_108_);}
	.st62{opacity:0.11;clip-path:url(#XMLID_109_);}
	.st63{opacity:0.12;clip-path:url(#XMLID_110_);}
	.st64{fill:#89CEE8;}
	.st65{opacity:4.000000e-02;clip-path:url(#XMLID_107_);}
	.st66{clip-path:url(#XMLID_111_);}
	.st67{clip-path:url(#XMLID_112_);fill:none;stroke:#0C242D;stroke-width:4;stroke-miterlimit:10;}
	.st68{opacity:0.57;clip-path:url(#XMLID_113_);fill:none;stroke:#E2C991;stroke-width:4;stroke-miterlimit:10;}
	.st69{clip-path:url(#XMLID_114_);}
	.st70{opacity:0.1;clip-path:url(#XMLID_115_);}
	.st71{opacity:0.1;clip-path:url(#XMLID_116_);}
	.st72{clip-path:url(#XMLID_117_);}
	.st73{opacity:0.11;clip-path:url(#XMLID_118_);}
	.st74{clip-path:url(#XMLID_119_);fill:#FFFFFF;}
	.st75{opacity:0.14;clip-path:url(#XMLID_120_);}
	.st76{opacity:0.21;clip-path:url(#XMLID_121_);}
	.st77{clip-path:url(#XMLID_122_);}
	.st78{clip-path:url(#XMLID_123_);fill:#D94700;}
	.st79{opacity:4.000000e-02;clip-path:url(#XMLID_122_);}
	.st80{clip-path:url(#XMLID_124_);}
	.st81{clip-path:url(#XMLID_125_);fill:#D94700;}
	.st82{opacity:4.000000e-02;clip-path:url(#XMLID_124_);}
	.st83{clip-path:url(#XMLID_126_);}
	.st84{opacity:0.2;clip-path:url(#XMLID_127_);}
	.st85{clip-path:url(#XMLID_128_);fill:#B55515;}
	.st86{fill:none;stroke:#E2C991;stroke-width:3;stroke-miterlimit:10;}
	.st87{opacity:4.000000e-02;clip-path:url(#XMLID_126_);}
	.st88{clip-path:url(#XMLID_129_);}
	.st89{opacity:0.2;clip-path:url(#XMLID_130_);}
	.st90{clip-path:url(#XMLID_131_);fill:#B55515;}
	.st91{opacity:4.000000e-02;clip-path:url(#XMLID_129_);}
	.st92{clip-path:url(#XMLID_132_);}
	.st93{opacity:0.12;clip-path:url(#XMLID_133_);}
	.st94{opacity:0.24;clip-path:url(#XMLID_133_);}
	.st95{opacity:0.11;clip-path:url(#XMLID_134_);}
	.st96{opacity:0.12;clip-path:url(#XMLID_135_);}
	.st97{opacity:4.000000e-02;clip-path:url(#XMLID_132_);}
	.st98{clip-path:url(#XMLID_136_);}
	.st99{opacity:0.12;clip-path:url(#XMLID_137_);}
	.st100{opacity:0.24;clip-path:url(#XMLID_137_);}
	.st101{opacity:0.11;clip-path:url(#XMLID_138_);}
	.st102{opacity:0.12;clip-path:url(#XMLID_139_);}
	.st103{opacity:4.000000e-02;clip-path:url(#XMLID_136_);}
	.st104{clip-path:url(#XMLID_140_);}
	.st105{opacity:0.1;clip-path:url(#XMLID_141_);}
	.st106{opacity:0.1;clip-path:url(#XMLID_142_);}
	.st107{clip-path:url(#XMLID_143_);}
	.st108{opacity:0.11;clip-path:url(#XMLID_144_);}
	.st109{clip-path:url(#XMLID_145_);fill:#FFFFFF;}
	.st110{opacity:0.14;clip-path:url(#XMLID_146_);}
	.st111{opacity:0.21;clip-path:url(#XMLID_147_);}
</style>
<g>
	<defs>
		<rect id="XMLID_57_" y="1.3" width="303.5" height="303.5"/>
	</defs>
	<use xlink:href="#XMLID_57_"  style="overflow:visible;fill:#E5D9C1;"/>
	<clipPath id="XMLID_75_">
		<use xlink:href="#XMLID_57_"  style="overflow:visible;"/>
	</clipPath>
	<g class="st0">
		<path class="st37" d="M183.6,300h-50.8c-6.1,0-11-4.9-11-11v-73.6c0-6.1,5-11,11-11h50.8c6.1,0,11,4.9,11,11V289
			C194.6,295.1,189.7,300,183.6,300z"/>
		<path class="st15" d="M277.7,525.9H31.2c-22.7,0-41.3-18.6-41.3-41.3v-178c0-22.7,18.6-41.3,41.3-41.3h246.5
			c22.7,0,41.3,18.6,41.3,41.3v178C319,507.3,300.4,525.9,277.7,525.9z"/>
		<g>
			<defs>
				<path id="XMLID_62_" d="M121.8,265.2c0,0-7.2,19.8,2.4,40.9s28.9,58.7,28.9,58.7s33.3-53.1,40-70.6c5-13,1.5-29,1.5-29H121.8z"
					/>
			</defs>
			<use xlink:href="#XMLID_62_"  style="overflow:visible;fill:#FFFFFF;"/>
			<clipPath id="XMLID_76_">
				<use xlink:href="#XMLID_62_"  style="overflow:visible;"/>
			</clipPath>
			<path style="clip-path:url(#XMLID_76_);fill:#D94700;" d="M156.8,275.2c-9.9,0.9-19,11.8-13.4,18.4s5.2,9.9,1.7,18.9
				c-3.5,9-9.5,21.9-9.5,21.9l18.9,43.5l23.6-44c0,0-8.8-22-13.2-27.7c-4.3-5.8-3-9.3,0-12.3C168.1,290.8,169.4,274.1,156.8,275.2z"
				/>
		</g>
		<path class="st4" d="M156.3,243.9L156.3,243.9c-27.9,0-50.7-22.8-50.7-50.7V96.8c0-27.9,22.8-50.7,50.7-50.7h0
			c27.9,0,50.7,22.8,50.7,50.7v96.4C207,221.1,184.2,243.9,156.3,243.9z"/>
		<path class="st15" d="M101.7,130V94.3c0-30,24.5-54.5,54.5-54.5h0c30,0,54.5,24.5,54.5,54.5V130"/>
		<path class="st6" d="M74.2,121c-4.1,4.1,17.2,15.2,54.4,16.4s91.2-3.2,102.4-8.2c11.2-5,9.2-11,0-10.6c-9.2,0.4-49,4.3-75.8,6
			C133.9,126,78.5,116.6,74.2,121z"/>
		<circle class="st39" cx="154.4" cy="180.7" r="33.2"/>
		<path class="st37" d="M105.6,147.5c0,0-8.9-7.3-10.5,0s10.5,26.7,10.5,26.7V147.5z"/>
		<path class="st37" d="M207,147.5c0,0,8.9-7.3,10.5,0c1.6,7.3-10.5,26.7-10.5,26.7V147.5z"/>
		<polyline class="st40" points="154.4,147.5 159.7,121.6 161.5,112.7 		"/>
		<path class="st39" d="M117.9,101l38.4,33.5c0,0-0.2-19.8-10-26.1C136.4,102,117.9,101,117.9,101z"/>
		<path class="st39" d="M155.1,144.2c0,0,5.9-10.1,19.7-16.1c13.8-6,19.4-4.7,19.4-4.7S185.6,144.7,155.1,144.2z"/>
	</g>
	<rect x="155.6" y="-58.2" style="opacity:4.000000e-02;clip-path:url(#XMLID_75_);" width="222.7" height="481.2"/>
</g>
</svg>
