<?xml version="1.0" encoding="utf-8"?>
<!-- Generator: Adobe Illustrator 22.1.0, SVG Export Plug-In . SVG Version: 6.00 Build 0)  -->
<svg version="1.1" id="Laag_1" xmlns="http://www.w3.org/2000/svg" xmlns:xlink="http://www.w3.org/1999/xlink" x="0px" y="0px"
	 viewBox="0 0 380.5 65.6" style="enable-background:new 0 0 380.5 65.6;" xml:space="preserve">
<style type="text/css">
	.st0{fill:#FFFFFF;}
</style>
<path class="st0" d="M5.1,0.6v2.8C6.4,1.2,8,0.1,10.7,0.1c2.6,0,4.2,1,5.2,3.3c1.3-2.3,3.3-3.3,5.9-3.3c3,0,5.9,1.8,5.9,6.8v12.9
	h-5.3V7.6c0-1.8-0.8-3.1-2.8-3.1c-1.5,0-3.1,0.6-3.1,3.8v11.4h-5.2V8.4c0-2.6-0.8-3.8-2.8-3.8S5.4,5.5,5.4,8.2v11.6H0.1V0.6H5.1z
	 M37.2,0.5V12c0,2.8,0.8,3.9,3,3.9c2.5,0,3.9-1.3,3.9-5V0.5h5.3v19.2h-5.1V17c-1.3,1.8-2.9,3.1-5.9,3.1c-4.4,0-6.6-2.5-6.6-7.3V0.5
	H37.2z M61.7,0c5.2,0,8.1,2,8.5,6.4H65c-0.2-1.9-1.4-2.5-3.2-2.5c-2.4,0-3,0.9-3,1.6c0,0.9,0.6,1.3,2.8,1.8l3.3,0.8
	c3.4,0.8,5.9,2.4,5.9,5.8c0,3.7-2.7,6.5-8.7,6.5c-5.1,0-8.9-1.9-8.9-6.8h5.3c0.2,1.8,0.9,2.8,4,2.8c1.9,0,3.1-0.6,3.1-1.7
	c0-1-0.5-1.3-2.6-1.9L59.6,12c-4.1-1-6-2.2-6-5.5C53.6,3.5,56.1,0,61.7,0z M82,0c5.8,0,9.4,3.5,9.1,11.5h-13c0,2.7,1.4,4.6,4.2,4.6
	c1.3,0,2.8-0.5,3.4-2h5.4c-0.3,3.3-3.4,6.2-8.8,6.2c-4.5,0-9.4-2.6-9.4-10.1C72.9,3.9,76.7,0,82,0z M85.8,8.2
	c-0.1-2.4-1.4-3.9-3.7-3.9c-2.2,0-3.5,1.5-3.8,3.9H85.8z M99.6,0.5V12c0,2.8,0.8,3.9,3,3.9c2.5,0,3.9-1.3,3.9-5V0.5h5.3v19.2h-5.1
	V17c-1.3,1.8-2.9,3.1-5.9,3.1c-4.4,0-6.6-2.5-6.6-7.3V0.5C94.2,0.5,99.6,0.5,99.6,0.5z M121.6,0.6v2.8c1.3-2.2,2.8-3.2,5.5-3.2
	c2.6,0,4.2,1,5.2,3.3c1.3-2.3,3.3-3.3,5.9-3.3c3,0,5.9,1.8,5.9,6.8v12.9h-5.3V7.6c0-1.8-0.8-3.1-2.8-3.1c-1.5,0-3.1,0.6-3.1,3.8
	v11.4h-5.2V8.4c0-2.6-0.8-3.8-2.8-3.8s-3.1,0.9-3.1,3.6v11.6h-5.3V0.6H121.6L121.6,0.6z M206.5,0.5l3.9,14l4-14h5.5L213,19.7h-5.5
	l-6.9-19.2H206.5z M229.9,0.1c2.4,0,4.4,1.2,5.4,3.3V0.6h5.1v19.1h-5.1V17c-1.2,1.9-2.8,3.3-5.8,3.3c-4.1,0-8-3.6-8-9.7
	C221.5,3.9,224.9,0.1,229.9,0.1L229.9,0.1z M231,15.9c2.3,0,4.2-1.6,4.2-5.5c0-3.7-1.6-5.8-4.2-5.8c-2.5,0-4.1,1.9-4.1,5.6
	C226.9,14.4,228.7,15.9,231,15.9z M250,0.6v2.8c1.5-2.2,3.3-3.3,5.7-3.3c4.2,0,6.8,2.1,6.8,6.7v13h-5.3V8.1c0-2.7-1.1-3.7-3.2-3.7
	c-1.9,0-3.8,0.8-3.8,5v10.3H245V0.6H250z M5.2,31.8V41c1.3-1.9,3-3,5.5-3c4.7,0,8.1,3.6,8.1,9.8c0,6.9-3.6,10.3-8,10.3
	c-2.6,0-4.1-0.8-5.7-2.9v2.4H0V31.8H5.2z M9.4,53.9c2.2,0,4-1.7,4-5.5c0-4.1-1.4-5.8-4.1-5.8c-2.8,0-4.1,2.1-4.1,5.8
	C5,51.8,6.7,53.9,9.4,53.9z M31.1,37.9c6.3,0,9.9,4,9.9,10.3c0,5.9-3.3,10.2-9.9,10.2c-6.2,0-9.9-4.2-9.9-10.3
	C21.2,42.2,24.7,37.9,31.1,37.9z M31.1,54.1c2.7,0,4.5-2.1,4.5-5.8c0-4-1.8-5.9-4.5-5.9c-2.1,0-4.5,1-4.5,5.9
	C26.6,52.1,28.3,54.1,31.1,54.1z M49.3,31.6v4.7H44v-4.7C44,31.6,49.3,31.6,49.3,31.6z M49.3,38.5v19.2H44V38.5
	C44,38.5,49.3,38.5,49.3,38.5z M59.7,38.6v21.1c0,2.5,0,5.8-5.7,5.8h-1.9v-4.1c0.3,0,0.7,0.1,1,0.1c0.8,0,1.4-0.3,1.4-1.7V38.6
	C54.5,38.6,59.7,38.6,59.7,38.6z M59.7,31.6v4.7h-5.2v-4.7H59.7z M69.4,38.6v2.8c1.3-2.2,2.8-3.2,5.5-3.2c2.6,0,4.2,1,5.2,3.3
	c1.3-2.3,3.3-3.3,5.9-3.3c3,0,5.9,1.8,5.9,6.8v12.9h-5.3V45.6c0-1.8-0.8-3.1-2.8-3.1c-1.5,0-3.1,0.6-3.1,3.8v11.4h-5.2V46.4
	c0-2.6-0.8-3.8-2.8-3.8s-3.1,0.9-3.1,3.6v11.6h-5.3V38.6C64.3,38.6,69.4,38.6,69.4,38.6z M103.4,38.1c2.4,0,4.4,1.2,5.4,3.3v-2.8
	h5.1v19.1h-5.1V55c-1.2,1.9-2.8,3.3-5.8,3.3c-4.1,0-8-3.6-8-9.7C95.1,41.9,98.5,38.1,103.4,38.1z M104.5,53.9c2.3,0,4.2-1.6,4.2-5.5
	c0-3.7-1.6-5.8-4.2-5.8c-2.5,0-4.1,1.9-4.1,5.6C100.4,52.4,102.2,53.9,104.5,53.9z M123.3,38.6v2.8c1.5-2.2,3.3-3.3,5.7-3.3
	c4.2,0,6.8,2.1,6.8,6.7v13h-5.3V46.1c0-2.7-1.1-3.7-3.2-3.7c-1.9,0-3.8,0.8-3.8,5v10.3h-5.2V38.6C118.3,38.6,123.3,38.6,123.3,38.6z
	 M147.7,38c5.2,0,8.1,2,8.5,6.4H151c-0.2-1.9-1.4-2.5-3.2-2.5c-2.4,0-3,0.9-3,1.6c0,0.9,0.6,1.3,2.8,1.8l3.3,0.8
	c3.4,0.8,5.9,2.4,5.9,5.8c0,3.7-2.7,6.5-8.7,6.5c-5.1,0-8.9-1.9-8.9-6.8h5.3c0.2,1.8,0.9,2.8,4,2.8c1.9,0,3.1-0.6,3.1-1.7
	c0-1-0.5-1.3-2.6-1.9l-3.3-0.8c-4.1-1-6-2.2-6-5.5C139.7,41.5,142.1,38,147.7,38L147.7,38z M207.6,31.8V41c1.3-1.9,3-3,5.5-3
	c4.7,0,8.1,3.6,8.1,9.8c0,6.9-3.6,10.3-8,10.3c-2.6,0-4.1-0.8-5.7-2.9v2.4h-5.1V31.8C202.4,31.8,207.6,31.8,207.6,31.8z M211.7,53.9
	c2.2,0,4-1.7,4-5.5c0-4.1-1.4-5.8-4.1-5.8c-2.8,0-4.1,2.1-4.1,5.8C207.4,51.8,209,53.9,211.7,53.9L211.7,53.9z M232.8,38
	c5.8,0,9.4,3.5,9.1,11.5h-13c0,2.7,1.4,4.6,4.2,4.6c1.3,0,2.8-0.5,3.4-2h5.4c-0.3,3.3-3.4,6.2-8.8,6.2c-4.5,0-9.4-2.6-9.4-10.1
	C223.7,41.9,227.5,38,232.8,38z M236.6,46.2c-0.1-2.4-1.4-3.9-3.7-3.9c-2.2,0-3.5,1.5-3.8,3.9H236.6z M250.3,38.5V50
	c0,2.8,0.8,3.9,3,3.9c2.5,0,3.9-1.3,3.9-5V38.5h5.3v19.2h-5.1V55c-1.3,1.8-2.9,3.1-5.9,3.1c-4.4,0-6.6-2.5-6.6-7.3V38.5H250.3
	L250.3,38.5z M271.9,38.6v2.8c1.5-2.2,3.3-3.3,5.7-3.3c4.2,0,6.8,2.1,6.8,6.7v13h-5.3V46.1c0-2.7-1.1-3.7-3.2-3.7
	c-1.9,0-3.8,0.8-3.8,5v10.3h-5.2V38.6H271.9z M294.4,31.6v4.7h-5.3v-4.7H294.4z M294.4,38.5v19.2h-5.3V38.5H294.4z M304,38.6v2.8
	c1.5-2.2,3.3-3.3,5.7-3.3c4.2,0,6.8,2.1,6.8,6.7v13h-5.3V46.1c0-2.7-1.1-3.7-3.2-3.7c-1.9,0-3.8,0.8-3.8,5v10.3H299V38.6H304z
	 M327.8,38.1c2.2,0,4.1,0.8,5.4,3.2v-2.8h5.1v18.2c0,5.9-2.6,8.7-9.6,8.8c-4.1,0-8.3-1.4-8.7-5.8h5.7c0.3,1.1,0.9,1.8,3.3,1.8
	c2.9,0,4.1-1.3,4.1-5.5v-1.3c-0.8,1.4-1.9,3-5.4,3c-4.9,0-8.1-3.5-8.1-9.6C319.6,41.9,323,38.1,327.8,38.1z M329.1,53.4
	c2.3,0,4.1-1.5,4.1-5.4c0-3.7-1.8-5.4-4.1-5.4c-2.6,0-4.1,1.8-4.1,5.5C325,51.1,326.3,53.4,329.1,53.4z M350.5,38
	c5.8,0,9.4,3.5,9.1,11.5h-13c0,2.7,1.4,4.6,4.2,4.6c1.3,0,2.8-0.5,3.4-2h5.4c-0.3,3.3-3.4,6.2-8.8,6.2c-4.5,0-9.4-2.6-9.4-10.1
	C341.4,41.9,345.2,38,350.5,38L350.5,38z M354.2,46.2c-0.1-2.4-1.4-3.9-3.7-3.9c-2.2,0-3.5,1.5-3.8,3.9H354.2z M368,38.6v2.8
	c1.5-2.2,3.3-3.3,5.7-3.3c4.2,0,6.8,2.1,6.8,6.7v13h-5.3V46.1c0-2.7-1.1-3.7-3.2-3.7c-1.9,0-3.8,0.8-3.8,5v10.3H363V38.6
	C363,38.6,368,38.6,368,38.6z"/>
</svg>
