<svg xmlns="http://www.w3.org/2000/svg" viewBox="0 0 307.26 280.91"><defs><style>.cls-1{fill:#e5d9c1;}</style></defs><title>heart-open</title><g id="Layer_2" data-name="Layer 2"><g id="Layer_1-2" data-name="Layer 1"><path class="cls-1" d="M217.26,20a70,70,0,0,1,49.51,119.49l-.27.26h0L153.63,252.62,40.76,139.75h0l-.26-.26a70,70,0,0,1,99-99l14.14,14.14,14.14-14.14A69.57,69.57,0,0,1,217.26,20m0-20a89.7,89.7,0,0,0-63.63,26.35,90,90,0,0,0-127.27,0h0a90,90,0,0,0,0,127.27h0L153.63,280.91,280.9,153.64h0a90,90,0,0,0,0-127.27h0A89.73,89.73,0,0,0,217.26,0Z"/></g></g></svg>