<?xml version="1.0" encoding="utf-8"?>
<!-- Generator: Adobe Illustrator 22.1.0, SVG Export Plug-In . SVG Version: 6.00 Build 0)  -->
<svg version="1.1" id="Layer_1" xmlns="http://www.w3.org/2000/svg" xmlns:xlink="http://www.w3.org/1999/xlink" x="0px" y="0px"
	 viewBox="0 0 303 303" style="enable-background:new 0 0 303 303;" xml:space="preserve">
<style type="text/css">
	.st0{clip-path:url(#XMLID_55_);}
	.st1{clip-path:url(#XMLID_56_);fill:none;stroke:#0C242D;stroke-width:4;stroke-miterlimit:10;}
	.st2{opacity:0.57;clip-path:url(#XMLID_57_);fill:none;stroke:#E2C991;stroke-width:4;stroke-miterlimit:10;}
	.st3{fill:#E2C991;}
	.st4{fill:#D6BB85;}
	.st5{fill:none;stroke:#000000;stroke-width:3;stroke-miterlimit:10;}
	.st6{opacity:4.000000e-02;}
	.st7{fill:#132126;}
	.st8{opacity:9.000000e-02;}
	.st9{fill:none;stroke:#000000;stroke-width:2;stroke-miterlimit:10;}
	.st10{clip-path:url(#XMLID_58_);fill:none;stroke:#0C242D;stroke-width:4;stroke-miterlimit:10;}
	.st11{opacity:0.57;clip-path:url(#XMLID_59_);fill:none;stroke:#E2C991;stroke-width:4;stroke-miterlimit:10;}
	.st12{fill:#1F3139;}
	.st13{opacity:0.1;clip-path:url(#XMLID_60_);}
	.st14{opacity:0.1;clip-path:url(#XMLID_61_);}
	.st15{fill:none;stroke:#EFAF00;stroke-width:5;stroke-miterlimit:10;}
	.st16{fill:#6D5525;}
	.st17{fill:#111D21;}
	.st18{clip-path:url(#XMLID_62_);}
	.st19{opacity:0.1;clip-path:url(#XMLID_63_);}
	.st20{opacity:0.1;clip-path:url(#XMLID_64_);}
	.st21{fill:#AA936B;}
	.st22{opacity:0.11;clip-path:url(#XMLID_65_);}
	.st23{clip-path:url(#XMLID_66_);fill:#FFFFFF;}
	.st24{opacity:0.14;clip-path:url(#XMLID_67_);}
	.st25{fill:none;stroke:#000000;stroke-width:5;stroke-miterlimit:10;}
	.st26{opacity:0.21;clip-path:url(#XMLID_68_);}
	.st27{clip-path:url(#XMLID_69_);}
	.st28{opacity:0.11;clip-path:url(#XMLID_70_);}
	.st29{clip-path:url(#XMLID_70_);fill:none;stroke:#B58A28;stroke-width:3;stroke-miterlimit:10;}
	.st30{clip-path:url(#XMLID_71_);fill:#FFFFFF;}
	.st31{opacity:0.14;clip-path:url(#XMLID_72_);}
	.st32{opacity:0.21;clip-path:url(#XMLID_73_);}
	.st33{clip-path:url(#XMLID_69_);fill:none;stroke:#B58A28;stroke-width:3;stroke-miterlimit:10;}
	.st34{fill:#CEB382;}
	.st35{clip-path:url(#XMLID_74_);fill:#D94700;}
	.st36{fill:#4E9687;}
	.st37{fill:none;stroke:#4E9687;stroke-width:2;stroke-miterlimit:10;}
	.st38{clip-path:url(#XMLID_75_);}
	.st39{clip-path:url(#XMLID_76_);fill:#D94700;}
	.st40{opacity:4.000000e-02;clip-path:url(#XMLID_75_);}
	.st41{fill:#B55515;}
	.st42{opacity:0.2;clip-path:url(#XMLID_77_);}
	.st43{fill:#FFFFFF;}
	.st44{fill:none;stroke:#000000;stroke-width:6;stroke-miterlimit:10;}
	.st45{clip-path:url(#XMLID_78_);}
	.st46{opacity:0.2;clip-path:url(#XMLID_79_);}
	.st47{clip-path:url(#XMLID_80_);fill:#B55515;}
	.st48{fill:none;stroke:#B55515;stroke-width:3;stroke-miterlimit:10;}
	.st49{opacity:4.000000e-02;clip-path:url(#XMLID_78_);}
	.st50{opacity:0.12;clip-path:url(#XMLID_81_);}
	.st51{opacity:0.24;clip-path:url(#XMLID_81_);}
	.st52{opacity:0.11;clip-path:url(#XMLID_82_);}
	.st53{fill:none;stroke:#FF2400;stroke-width:6;stroke-miterlimit:10;}
	.st54{opacity:0.12;clip-path:url(#XMLID_83_);}
	.st55{fill:#B6D4E3;}
	.st56{clip-path:url(#XMLID_84_);}
	.st57{opacity:0.12;clip-path:url(#XMLID_85_);}
	.st58{opacity:0.24;clip-path:url(#XMLID_85_);}
	.st59{opacity:0.11;clip-path:url(#XMLID_86_);}
	.st60{opacity:0.12;clip-path:url(#XMLID_87_);}
	.st61{fill:#89CEE8;}
	.st62{opacity:4.000000e-02;clip-path:url(#XMLID_84_);}
	.st63{clip-path:url(#XMLID_88_);}
	.st64{opacity:0.1;clip-path:url(#XMLID_89_);}
	.st65{opacity:0.1;clip-path:url(#XMLID_90_);}
	.st66{fill:none;stroke:#EFAF00;stroke-width:4.5338;stroke-miterlimit:10;}
	.st67{clip-path:url(#XMLID_91_);}
	.st68{opacity:0.11;clip-path:url(#XMLID_92_);}
	.st69{clip-path:url(#XMLID_92_);fill:none;stroke:#B58A28;stroke-width:2.7118;stroke-miterlimit:10;}
	.st70{clip-path:url(#XMLID_93_);fill:#FFFFFF;}
	.st71{opacity:0.14;clip-path:url(#XMLID_94_);}
	.st72{fill:none;stroke:#000000;stroke-width:2.7118;stroke-miterlimit:10;}
	.st73{opacity:0.21;clip-path:url(#XMLID_95_);}
	.st74{clip-path:url(#XMLID_91_);fill:none;stroke:#B58A28;stroke-width:2.7118;stroke-miterlimit:10;}
	.st75{clip-path:url(#XMLID_96_);}
	.st76{clip-path:url(#XMLID_97_);fill:none;stroke:#0C242D;stroke-width:3.627;stroke-miterlimit:10;}
	.st77{opacity:0.57;clip-path:url(#XMLID_98_);fill:none;stroke:#E2C991;stroke-width:3.627;stroke-miterlimit:10;}
	.st78{fill:none;stroke:#000000;stroke-width:2.7203;stroke-miterlimit:10;}
	.st79{fill:none;stroke:#000000;stroke-width:1.8135;stroke-miterlimit:10;}
	.st80{clip-path:url(#XMLID_99_);}
	.st81{clip-path:url(#XMLID_100_);fill:#D94700;}
	.st82{fill:none;stroke:#4E9687;stroke-width:1.8173;stroke-miterlimit:10;}
	.st83{opacity:4.000000e-02;clip-path:url(#XMLID_99_);}
	.st84{clip-path:url(#XMLID_101_);}
	.st85{opacity:0.2;clip-path:url(#XMLID_102_);}
	.st86{clip-path:url(#XMLID_103_);fill:#B55515;}
	.st87{fill:none;stroke:#000000;stroke-width:5.4295;stroke-miterlimit:10;}
	.st88{fill:none;stroke:#B55515;stroke-width:2.7148;stroke-miterlimit:10;}
	.st89{opacity:4.000000e-02;clip-path:url(#XMLID_101_);}
	.st90{clip-path:url(#XMLID_104_);}
	.st91{opacity:0.12;clip-path:url(#XMLID_105_);}
	.st92{opacity:0.24;clip-path:url(#XMLID_105_);}
	.st93{opacity:0.11;clip-path:url(#XMLID_106_);}
	.st94{fill:none;stroke:#000000;stroke-width:2.7114;stroke-miterlimit:10;}
	.st95{fill:none;stroke:#FF2400;stroke-width:5.4227;stroke-miterlimit:10;}
	.st96{opacity:0.12;clip-path:url(#XMLID_107_);}
	.st97{opacity:4.000000e-02;clip-path:url(#XMLID_104_);}
</style>
<g>
	<defs>
		<circle id="XMLID_45_" cx="151.5" cy="151.5" r="140.2"/>
	</defs>
	<use xlink:href="#XMLID_45_"  style="overflow:visible;fill:#E5D9C1;"/>
	<clipPath id="XMLID_55_">
		<use xlink:href="#XMLID_45_"  style="overflow:visible;"/>
	</clipPath>
	<g class="st0">
		<path class="st34" d="M170.8,263.4h-44.1c-6.1,0-11-5-11-11v-64.9c0-6.1,4.9-11,11-11h44.1c6.1,0,11,4.9,11,11v64.9
			C181.8,258.4,176.9,263.4,170.8,263.4z"/>
		<path class="st12" d="M253.5,468.6H37.1c-22.7,0-41.3-18.6-41.3-41.3V273.1c0-22.7,18.6-41.3,41.3-41.3h216.4
			c22.7,0,41.3,18.6,41.3,41.3v154.2C294.8,450,276.2,468.6,253.5,468.6z"/>
		<g>
			<defs>
				<path id="XMLID_46_" d="M115.7,231.8c0,0-6.6,17.9,2.2,37.1c8.8,19.2,26.3,53.4,26.3,53.4s30.3-48.3,36.3-64.2
					c4.5-11.8,1.3-26.3,1.3-26.3H115.7z"/>
			</defs>
			<use xlink:href="#XMLID_46_"  style="overflow:visible;fill:#FFFFFF;"/>
			<clipPath id="XMLID_56_">
				<use xlink:href="#XMLID_46_"  style="overflow:visible;"/>
			</clipPath>
			<path style="clip-path:url(#XMLID_56_);fill:#D94700;" d="M147.5,240.8c-9,0.8-17.3,10.7-12.2,16.7c5.1,6,4.7,9,1.6,17.2
				c-3.1,8.2-8.6,19.9-8.6,19.9l17.2,39.6l21.5-40c0,0-8-20-12-25.2c-3.9-5.2-2.8-8.5,0-11.2C157.7,255,158.9,239.8,147.5,240.8z"/>
		</g>
		<path class="st4" d="M158.5,212.4h-22.9c-19,0-34.6-15.6-34.6-34.6V67.2c0-19,15.6-34.6,34.6-34.6h22.9c19,0,34.6,15.6,34.6,34.6
			v110.6C193.1,196.8,177.5,212.4,158.5,212.4z"/>
		<path class="st12" d="M97.3,108.9V76.4c0-27.2,22.3-49.5,49.5-49.5h0c27.2,0,49.5,22.3,49.5,49.5v32.5"/>
		<path class="st7" d="M72.4,100.7c-3.7,3.7,15.6,13.8,49.4,14.9c33.8,1.1,82.8-2.9,93-7.4c10.2-4.5,8.4-10,0-9.6
			c-8.4,0.4-44.6,3.9-68.9,5.5C126.7,105.2,76.3,96.7,72.4,100.7z"/>
		<circle class="st36" cx="145.3" cy="154.9" r="30.2"/>
		<path class="st34" d="M100.9,124.8c0,0-8.1-6.7-9.6,0c-1.5,6.7,9.6,24.2,9.6,24.2V124.8z"/>
		<path class="st34" d="M193.1,124.8c0,0,8.1-6.7,9.6,0c1.5,6.7-9.6,24.2-9.6,24.2V124.8z"/>
		<polyline class="st82" points="145.3,124.8 150.1,101.2 151.7,93.2 		"/>
		<path class="st36" d="M112.1,82.5l34.9,30.4c0,0-0.1-18-9.1-23.7C128.9,83.4,112.1,82.5,112.1,82.5z"/>
		<path class="st36" d="M145.9,121.8c0,0,5.3-9.2,17.9-14.6c12.5-5.5,17.6-4.2,17.6-4.2S173.6,122.2,145.9,121.8z"/>
	</g>
	<rect x="146.3" y="-62.1" style="opacity:4.000000e-02;clip-path:url(#XMLID_55_);" width="202.4" height="437.2"/>
</g>
</svg>
