<?xml version="1.0" encoding="utf-8"?>
<!-- Generator: Adobe Illustrator 22.1.0, SVG Export Plug-In . SVG Version: 6.00 Build 0)  -->
<svg version="1.1" id="Layer_1" xmlns="http://www.w3.org/2000/svg" xmlns:xlink="http://www.w3.org/1999/xlink" x="0px" y="0px"
	 viewBox="0 0 302.5 302.5" style="enable-background:new 0 0 302.5 302.5;" xml:space="preserve">
<style type="text/css">
	.st0{clip-path:url(#XMLID_61_);}
	.st1{clip-path:url(#XMLID_67_);fill:none;stroke:#0C242D;stroke-width:4;stroke-miterlimit:10;}
	.st2{opacity:0.57;clip-path:url(#XMLID_68_);fill:none;stroke:#E2C991;stroke-width:4;stroke-miterlimit:10;}
	.st3{fill:#E2C991;}
	.st4{fill:#D6BB85;}
	.st5{fill:none;stroke:#000000;stroke-width:3;stroke-miterlimit:10;}
	.st6{opacity:4.000000e-02;}
	.st7{fill:#132126;}
	.st8{opacity:9.000000e-02;}
	.st9{fill:none;stroke:#000000;stroke-width:2;stroke-miterlimit:10;}
	.st10{clip-path:url(#XMLID_69_);fill:none;stroke:#0C242D;stroke-width:4;stroke-miterlimit:10;}
	.st11{opacity:0.57;clip-path:url(#XMLID_70_);fill:none;stroke:#E2C991;stroke-width:4;stroke-miterlimit:10;}
	.st12{fill:#1F3139;}
	.st13{opacity:0.1;clip-path:url(#XMLID_71_);}
	.st14{opacity:0.1;clip-path:url(#XMLID_72_);}
	.st15{fill:none;stroke:#EFAF00;stroke-width:5;stroke-miterlimit:10;}
	.st16{fill:#6D5525;}
	.st17{fill:#111D21;}
	.st18{clip-path:url(#XMLID_73_);}
	.st19{opacity:0.1;clip-path:url(#XMLID_74_);}
	.st20{opacity:0.1;clip-path:url(#XMLID_75_);}
	.st21{fill:#AA936B;}
	.st22{opacity:0.11;clip-path:url(#XMLID_76_);}
	.st23{clip-path:url(#XMLID_77_);fill:#FFFFFF;}
	.st24{opacity:0.14;clip-path:url(#XMLID_78_);}
	.st25{fill:none;stroke:#000000;stroke-width:5;stroke-miterlimit:10;}
	.st26{opacity:0.21;clip-path:url(#XMLID_79_);}
	.st27{clip-path:url(#XMLID_80_);}
	.st28{opacity:0.11;clip-path:url(#XMLID_81_);}
	.st29{clip-path:url(#XMLID_81_);fill:none;stroke:#B58A28;stroke-width:3;stroke-miterlimit:10;}
	.st30{clip-path:url(#XMLID_82_);fill:#FFFFFF;}
	.st31{opacity:0.14;clip-path:url(#XMLID_83_);}
	.st32{opacity:0.21;clip-path:url(#XMLID_84_);}
	.st33{clip-path:url(#XMLID_80_);fill:none;stroke:#B58A28;stroke-width:3;stroke-miterlimit:10;}
	.st34{fill:#CEB382;}
	.st35{clip-path:url(#XMLID_85_);fill:#D94700;}
	.st36{fill:#4E9687;}
	.st37{fill:none;stroke:#4E9687;stroke-width:2;stroke-miterlimit:10;}
	.st38{clip-path:url(#XMLID_86_);}
	.st39{clip-path:url(#XMLID_87_);fill:#D94700;}
	.st40{opacity:4.000000e-02;clip-path:url(#XMLID_86_);}
	.st41{fill:#B55515;}
	.st42{opacity:0.2;clip-path:url(#XMLID_88_);}
	.st43{fill:#FFFFFF;}
	.st44{fill:none;stroke:#000000;stroke-width:6;stroke-miterlimit:10;}
	.st45{clip-path:url(#XMLID_89_);}
	.st46{opacity:0.2;clip-path:url(#XMLID_90_);}
	.st47{clip-path:url(#XMLID_91_);fill:#B55515;}
	.st48{fill:none;stroke:#B55515;stroke-width:3;stroke-miterlimit:10;}
	.st49{opacity:4.000000e-02;clip-path:url(#XMLID_89_);}
	.st50{opacity:0.12;clip-path:url(#XMLID_92_);}
	.st51{opacity:0.24;clip-path:url(#XMLID_92_);}
	.st52{opacity:0.11;clip-path:url(#XMLID_93_);}
	.st53{fill:none;stroke:#FF2400;stroke-width:6;stroke-miterlimit:10;}
	.st54{opacity:0.12;clip-path:url(#XMLID_94_);}
	.st55{fill:#B6D4E3;}
	.st56{clip-path:url(#XMLID_95_);}
	.st57{opacity:0.12;clip-path:url(#XMLID_96_);}
	.st58{opacity:0.24;clip-path:url(#XMLID_96_);}
	.st59{opacity:0.11;clip-path:url(#XMLID_97_);}
	.st60{opacity:0.12;clip-path:url(#XMLID_98_);}
	.st61{fill:#89CEE8;}
	.st62{opacity:4.000000e-02;clip-path:url(#XMLID_95_);}
	.st63{clip-path:url(#XMLID_99_);}
	.st64{opacity:0.1;clip-path:url(#XMLID_100_);}
	.st65{opacity:0.1;clip-path:url(#XMLID_101_);}
	.st66{fill:none;stroke:#EFAF00;stroke-width:4.5338;stroke-miterlimit:10;}
	.st67{clip-path:url(#XMLID_102_);}
	.st68{opacity:0.11;clip-path:url(#XMLID_103_);}
	.st69{clip-path:url(#XMLID_103_);fill:none;stroke:#B58A28;stroke-width:2.7118;stroke-miterlimit:10;}
	.st70{clip-path:url(#XMLID_104_);fill:#FFFFFF;}
	.st71{opacity:0.14;clip-path:url(#XMLID_105_);}
	.st72{fill:none;stroke:#000000;stroke-width:2.7118;stroke-miterlimit:10;}
	.st73{opacity:0.21;clip-path:url(#XMLID_106_);}
	.st74{clip-path:url(#XMLID_102_);fill:none;stroke:#B58A28;stroke-width:2.7118;stroke-miterlimit:10;}
	.st75{clip-path:url(#XMLID_107_);}
	.st76{clip-path:url(#XMLID_108_);fill:none;stroke:#0C242D;stroke-width:3.627;stroke-miterlimit:10;}
	.st77{opacity:0.57;clip-path:url(#XMLID_109_);fill:none;stroke:#E2C991;stroke-width:3.627;stroke-miterlimit:10;}
	.st78{fill:none;stroke:#000000;stroke-width:2.7203;stroke-miterlimit:10;}
	.st79{fill:none;stroke:#000000;stroke-width:1.8135;stroke-miterlimit:10;}
	.st80{clip-path:url(#XMLID_110_);}
	.st81{clip-path:url(#XMLID_111_);fill:#D94700;}
	.st82{fill:none;stroke:#4E9687;stroke-width:1.8173;stroke-miterlimit:10;}
	.st83{opacity:4.000000e-02;clip-path:url(#XMLID_110_);}
	.st84{clip-path:url(#XMLID_112_);}
	.st85{opacity:0.2;clip-path:url(#XMLID_113_);}
	.st86{clip-path:url(#XMLID_114_);fill:#B55515;}
	.st87{fill:none;stroke:#000000;stroke-width:5.4295;stroke-miterlimit:10;}
	.st88{fill:none;stroke:#B55515;stroke-width:2.7148;stroke-miterlimit:10;}
	.st89{opacity:4.000000e-02;clip-path:url(#XMLID_112_);}
	.st90{clip-path:url(#SVGID_1_);}
	.st91{opacity:0.1;clip-path:url(#XMLID_115_);}
	.st92{opacity:0.1;clip-path:url(#XMLID_116_);}
	.st93{clip-path:url(#XMLID_117_);}
	.st94{opacity:0.2;clip-path:url(#XMLID_118_);}
	.st95{clip-path:url(#XMLID_119_);fill:#B55515;}
	.st96{fill:none;stroke:#E2C991;stroke-width:3;stroke-miterlimit:10;}
	.st97{clip-path:url(#XMLID_120_);}
	.st98{opacity:0.11;clip-path:url(#XMLID_121_);}
	.st99{clip-path:url(#XMLID_122_);fill:#FFFFFF;}
	.st100{opacity:0.14;clip-path:url(#XMLID_123_);}
	.st101{opacity:0.21;clip-path:url(#XMLID_124_);}
	.st102{clip-path:url(#XMLID_125_);}
	.st103{clip-path:url(#XMLID_126_);fill:none;stroke:#0C242D;stroke-width:3.8745;stroke-miterlimit:10;}
	.st104{opacity:0.57;clip-path:url(#XMLID_127_);fill:none;stroke:#E2C991;stroke-width:3.8745;stroke-miterlimit:10;}
</style>
<g>
	<defs>
		<circle id="XMLID_45_" cx="151.3" cy="489" r="140.2"/>
	</defs>
	<use xlink:href="#XMLID_45_"  style="overflow:visible;fill:#E5D9C1;"/>
	<clipPath id="XMLID_61_">
		<use xlink:href="#XMLID_45_"  style="overflow:visible;"/>
	</clipPath>
	<rect x="146.1" y="275.4" style="opacity:4.000000e-02;clip-path:url(#XMLID_61_);" width="202.4" height="437.2"/>
</g>
<g>
	<defs>
		<rect id="XMLID_62_" x="-0.2" width="303" height="303"/>
	</defs>
	<use xlink:href="#XMLID_62_"  style="overflow:visible;fill:#CF4463;"/>
	<clipPath id="XMLID_67_">
		<use xlink:href="#XMLID_62_"  style="overflow:visible;"/>
	</clipPath>
	<g style="clip-path:url(#XMLID_67_);">
		
			<rect x="130.1" y="181.6" transform="matrix(0.93 -0.3676 0.3676 0.93 -67.6517 72.6614)" class="st21" width="53.5" height="64.6"/>
		<g>
			<defs>
				<path id="XMLID_66_" d="M120.1,224.6L120.1,224.6c-29.6,0-53.8-24.2-53.8-53.8v-42.1c0-29.6,24.2-53.8,53.8-53.8h0
					c29.6,0,53.8,24.2,53.8,53.8v42.1C173.9,200.4,149.7,224.6,120.1,224.6z"/>
			</defs>
			<use xlink:href="#XMLID_66_"  style="overflow:visible;fill:#E2C991;"/>
			<clipPath id="XMLID_68_">
				<use xlink:href="#XMLID_66_"  style="overflow:visible;"/>
			</clipPath>
			<path style="opacity:0.11;clip-path:url(#XMLID_68_);" d="M102.5,49.6c0,0,44.9,23.3,44.7,60.3s-7.7,75.6-19.1,87.8
				c-11.4,12.2-14.3,27.3-3.2,32.8c11.1,5.5,60.7-37,60.7-86.7C185.6,77.7,102.5,49.6,102.5,49.6z"/>
		</g>
		<g>
			<defs>
				<path id="XMLID_65_" d="M66.4,363.2c0,0,26.7-93.3,47.1-114.9s60.3-41.9,80.6-40c20.3,1.9,54,23.5,54,23.5v131.4H66.4z"/>
			</defs>
			<use xlink:href="#XMLID_65_"  style="overflow:visible;fill:#1F3139;"/>
			<clipPath id="XMLID_69_">
				<use xlink:href="#XMLID_65_"  style="overflow:visible;"/>
			</clipPath>
			<path style="clip-path:url(#XMLID_69_);fill:#FFFFFF;" d="M97.8,274.7c0,0,16.5-22.1,38-31.3s80.9-28.6,80.9-28.6L190.4,194
				l-43.1,17.4l-49.5,32V274.7z"/>
		</g>
		<g>
			<defs>
				<path id="XMLID_64_" d="M66.4,119.6c0,0,3.1-7.9,17.9-7.4s53.3,8.4,74,45.4c13.7,24.5,25.4,51.3,25.4,51.3l29.5-78
					c0,0-34.7-63.8-96.5-56.1C67.9,80.9,66.4,119.6,66.4,119.6z"/>
			</defs>
			<use xlink:href="#XMLID_64_"  style="overflow:visible;fill:#324785;"/>
			<clipPath id="XMLID_70_">
				<use xlink:href="#XMLID_64_"  style="overflow:visible;"/>
			</clipPath>
			<path style="opacity:0.14;clip-path:url(#XMLID_70_);" d="M190.5,86.4c-9,7.9-31.2,19.2-38.4,38.4c-7.2,19.1-23.1,36.8-12.4,46.9
				s41.8,60.7,41.8,60.7l50-98.7L190.5,86.4z"/>
		</g>
		<g>
			<defs>
				<path id="XMLID_63_" d="M139.3,63.5c0,0,0.8-12.1,17.9-14.3c17.1-2.2,41.3,8.9,46.2,31.4c4.9,22.4,46.6,185.6,47.5,192.3
					c0.9,6.7-24.2,5.8-24.2,5.8s4.9,14.8-2.7,15.2c-7.6,0.4-20.6,4.5-20.2-4.9c0.4-9.4-11.2-173.9-10.8-176.6
					c0.4-2.7-27.7-42.1-73-38C127.7,65.2,139.3,63.5,139.3,63.5z"/>
			</defs>
			<use xlink:href="#XMLID_63_"  style="overflow:visible;fill:#D6A732;"/>
			<clipPath id="XMLID_71_">
				<use xlink:href="#XMLID_63_"  style="overflow:visible;"/>
			</clipPath>
			<path style="opacity:0.21;clip-path:url(#XMLID_71_);" d="M107.7,75.6c7.6-10,20.5-14.9,39.4-10.6C166,69.4,193,87.2,193,102.3
				s0,31.8,0,31.8l-77-57.9L107.7,75.6z"/>
		</g>
	</g>
</g>
</svg>
