<?xml version="1.0" encoding="utf-8"?>
<!-- Generator: Adobe Illustrator 22.1.0, SVG Export Plug-In . SVG Version: 6.00 Build 0)  -->
<svg version="1.1" id="Layer_1" xmlns="http://www.w3.org/2000/svg" xmlns:xlink="http://www.w3.org/1999/xlink" x="0px" y="0px"
	 viewBox="0 0 303 303" style="enable-background:new 0 0 303 303;" xml:space="preserve">
<style type="text/css">
	.st0{clip-path:url(#XMLID_55_);}
	.st1{clip-path:url(#XMLID_56_);fill:none;stroke:#0C242D;stroke-width:4;stroke-miterlimit:10;}
	.st2{opacity:0.57;clip-path:url(#XMLID_57_);fill:none;stroke:#E2C991;stroke-width:4;stroke-miterlimit:10;}
	.st3{fill:#E2C991;}
	.st4{fill:#D6BB85;}
	.st5{fill:none;stroke:#000000;stroke-width:3;stroke-miterlimit:10;}
	.st6{opacity:4.000000e-02;}
	.st7{fill:#132126;}
	.st8{opacity:9.000000e-02;}
	.st9{fill:none;stroke:#000000;stroke-width:2;stroke-miterlimit:10;}
	.st10{clip-path:url(#XMLID_58_);fill:none;stroke:#0C242D;stroke-width:4;stroke-miterlimit:10;}
	.st11{opacity:0.57;clip-path:url(#XMLID_59_);fill:none;stroke:#E2C991;stroke-width:4;stroke-miterlimit:10;}
	.st12{fill:#1F3139;}
	.st13{opacity:0.1;clip-path:url(#XMLID_60_);}
	.st14{opacity:0.1;clip-path:url(#XMLID_61_);}
	.st15{fill:none;stroke:#EFAF00;stroke-width:5;stroke-miterlimit:10;}
	.st16{fill:#6D5525;}
	.st17{fill:#111D21;}
	.st18{clip-path:url(#XMLID_62_);}
	.st19{opacity:0.1;clip-path:url(#XMLID_63_);}
	.st20{opacity:0.1;clip-path:url(#XMLID_64_);}
	.st21{fill:#AA936B;}
	.st22{opacity:0.11;clip-path:url(#XMLID_65_);}
	.st23{clip-path:url(#XMLID_66_);fill:#FFFFFF;}
	.st24{opacity:0.14;clip-path:url(#XMLID_67_);}
	.st25{fill:none;stroke:#000000;stroke-width:5;stroke-miterlimit:10;}
	.st26{opacity:0.21;clip-path:url(#XMLID_68_);}
	.st27{clip-path:url(#XMLID_69_);}
	.st28{opacity:0.11;clip-path:url(#XMLID_70_);}
	.st29{clip-path:url(#XMLID_70_);fill:none;stroke:#B58A28;stroke-width:3;stroke-miterlimit:10;}
	.st30{clip-path:url(#XMLID_71_);fill:#FFFFFF;}
	.st31{opacity:0.14;clip-path:url(#XMLID_72_);}
	.st32{opacity:0.21;clip-path:url(#XMLID_73_);}
	.st33{clip-path:url(#XMLID_69_);fill:none;stroke:#B58A28;stroke-width:3;stroke-miterlimit:10;}
	.st34{fill:#CEB382;}
	.st35{clip-path:url(#XMLID_74_);fill:#D94700;}
	.st36{fill:#4E9687;}
	.st37{fill:none;stroke:#4E9687;stroke-width:2;stroke-miterlimit:10;}
	.st38{clip-path:url(#XMLID_75_);}
	.st39{clip-path:url(#XMLID_76_);fill:#D94700;}
	.st40{opacity:4.000000e-02;clip-path:url(#XMLID_75_);}
	.st41{fill:#B55515;}
	.st42{opacity:0.2;clip-path:url(#XMLID_77_);}
	.st43{fill:#FFFFFF;}
	.st44{fill:none;stroke:#000000;stroke-width:6;stroke-miterlimit:10;}
	.st45{clip-path:url(#XMLID_78_);}
	.st46{opacity:0.2;clip-path:url(#XMLID_79_);}
	.st47{clip-path:url(#XMLID_80_);fill:#B55515;}
	.st48{fill:none;stroke:#B55515;stroke-width:3;stroke-miterlimit:10;}
	.st49{opacity:4.000000e-02;clip-path:url(#XMLID_78_);}
	.st50{opacity:0.12;clip-path:url(#XMLID_81_);}
	.st51{opacity:0.24;clip-path:url(#XMLID_81_);}
	.st52{opacity:0.11;clip-path:url(#XMLID_82_);}
	.st53{fill:none;stroke:#FF2400;stroke-width:6;stroke-miterlimit:10;}
	.st54{opacity:0.12;clip-path:url(#XMLID_83_);}
	.st55{fill:#B6D4E3;}
	.st56{clip-path:url(#XMLID_84_);}
	.st57{opacity:0.12;clip-path:url(#XMLID_85_);}
	.st58{opacity:0.24;clip-path:url(#XMLID_85_);}
	.st59{opacity:0.11;clip-path:url(#XMLID_86_);}
	.st60{opacity:0.12;clip-path:url(#XMLID_87_);}
	.st61{fill:#89CEE8;}
	.st62{opacity:4.000000e-02;clip-path:url(#XMLID_84_);}
	.st63{clip-path:url(#XMLID_88_);}
	.st64{opacity:0.1;clip-path:url(#XMLID_89_);}
	.st65{opacity:0.1;clip-path:url(#XMLID_90_);}
	.st66{fill:none;stroke:#EFAF00;stroke-width:4.5338;stroke-miterlimit:10;}
	.st67{clip-path:url(#XMLID_91_);}
	.st68{opacity:0.11;clip-path:url(#XMLID_92_);}
	.st69{clip-path:url(#XMLID_92_);fill:none;stroke:#B58A28;stroke-width:2.7118;stroke-miterlimit:10;}
	.st70{clip-path:url(#XMLID_93_);fill:#FFFFFF;}
	.st71{opacity:0.14;clip-path:url(#XMLID_94_);}
	.st72{fill:none;stroke:#000000;stroke-width:2.7118;stroke-miterlimit:10;}
	.st73{opacity:0.21;clip-path:url(#XMLID_95_);}
	.st74{clip-path:url(#XMLID_91_);fill:none;stroke:#B58A28;stroke-width:2.7118;stroke-miterlimit:10;}
	.st75{clip-path:url(#XMLID_96_);}
	.st76{clip-path:url(#XMLID_97_);fill:none;stroke:#0C242D;stroke-width:3.627;stroke-miterlimit:10;}
	.st77{opacity:0.57;clip-path:url(#XMLID_98_);fill:none;stroke:#E2C991;stroke-width:3.627;stroke-miterlimit:10;}
	.st78{fill:none;stroke:#000000;stroke-width:2.7203;stroke-miterlimit:10;}
	.st79{fill:none;stroke:#000000;stroke-width:1.8135;stroke-miterlimit:10;}
	.st80{clip-path:url(#XMLID_99_);}
	.st81{clip-path:url(#XMLID_100_);fill:#D94700;}
	.st82{fill:none;stroke:#4E9687;stroke-width:1.8173;stroke-miterlimit:10;}
	.st83{opacity:4.000000e-02;clip-path:url(#XMLID_99_);}
	.st84{clip-path:url(#XMLID_101_);}
	.st85{opacity:0.2;clip-path:url(#XMLID_102_);}
	.st86{clip-path:url(#XMLID_103_);fill:#B55515;}
	.st87{fill:none;stroke:#000000;stroke-width:5.4295;stroke-miterlimit:10;}
	.st88{fill:none;stroke:#B55515;stroke-width:2.7148;stroke-miterlimit:10;}
	.st89{opacity:4.000000e-02;clip-path:url(#XMLID_101_);}
	.st90{clip-path:url(#XMLID_104_);}
	.st91{opacity:0.12;clip-path:url(#XMLID_105_);}
	.st92{opacity:0.24;clip-path:url(#XMLID_105_);}
	.st93{opacity:0.11;clip-path:url(#XMLID_106_);}
	.st94{fill:none;stroke:#000000;stroke-width:2.7114;stroke-miterlimit:10;}
	.st95{fill:none;stroke:#FF2400;stroke-width:5.4227;stroke-miterlimit:10;}
	.st96{opacity:0.12;clip-path:url(#XMLID_107_);}
	.st97{opacity:4.000000e-02;clip-path:url(#XMLID_104_);}
</style>
<g>
	<defs>
		<circle id="XMLID_34_" cx="151.5" cy="151.5" r="139.5"/>
	</defs>
	<use xlink:href="#XMLID_34_"  style="overflow:visible;fill:#CF4463;"/>
	<clipPath id="XMLID_55_">
		<use xlink:href="#XMLID_34_"  style="overflow:visible;"/>
	</clipPath>
	<g class="st0">
		<rect x="132.3" y="171" transform="matrix(0.93 -0.3676 0.3676 0.93 -63.605 72.7058)" class="st21" width="53.5" height="64.6"/>
		<g>
			<defs>
				<path id="XMLID_41_" d="M122.3,214L122.3,214c-29.6,0-53.8-24.2-53.8-53.8v-42.1c0-29.6,24.2-53.8,53.8-53.8h0
					c29.6,0,53.8,24.2,53.8,53.8v42.1C176.1,189.8,151.9,214,122.3,214z"/>
			</defs>
			<use xlink:href="#XMLID_41_"  style="overflow:visible;fill:#E2C991;"/>
			<clipPath id="XMLID_56_">
				<use xlink:href="#XMLID_41_"  style="overflow:visible;"/>
			</clipPath>
			<path style="opacity:0.11;clip-path:url(#XMLID_56_);" d="M104.6,39c0,0,44.9,23.3,44.7,60.3s-7.7,75.6-19.1,87.8
				c-11.4,12.2-14.3,27.3-3.2,32.8c11.1,5.5,60.7-37,60.7-86.7C187.8,67.1,104.6,39,104.6,39z"/>
			<path style="clip-path:url(#XMLID_56_);fill:none;stroke:#B58A28;stroke-width:2.7118;stroke-miterlimit:10;" d="M86.7,126.4
				c-4.2-5.6-9.3-6.1-12.7-5.8c-3.4,0.3-5.5,1.9-5.5,1.9"/>
		</g>
		<g>
			<defs>
				<path id="XMLID_40_" d="M68.5,352.6c0,0,26.7-93.3,47.1-114.9s60.3-41.9,80.6-40s54,23.5,54,23.5v131.4H68.5z"/>
			</defs>
			<use xlink:href="#XMLID_40_"  style="overflow:visible;fill:#1F3139;"/>
			<clipPath id="XMLID_57_">
				<use xlink:href="#XMLID_40_"  style="overflow:visible;"/>
			</clipPath>
			<path style="clip-path:url(#XMLID_57_);fill:#FFFFFF;" d="M99.9,264.1c0,0,16.5-22.1,38-31.3s80.9-28.6,80.9-28.6l-26.3-20.8
				l-43.1,17.4l-49.5,32V264.1z"/>
		</g>
		<g>
			<defs>
				<path id="XMLID_36_" d="M68.5,109c0,0,3.1-7.9,17.9-7.4c14.8,0.5,53.3,8.4,74,45.4c13.7,24.5,25.4,51.3,25.4,51.3l29.5-78
					c0,0-34.7-63.8-96.5-56.1C70,70.3,68.5,109,68.5,109z"/>
			</defs>
			<use xlink:href="#XMLID_36_"  style="overflow:visible;fill:#324785;"/>
			<clipPath id="XMLID_58_">
				<use xlink:href="#XMLID_36_"  style="overflow:visible;"/>
			</clipPath>
			<path style="opacity:0.14;clip-path:url(#XMLID_58_);" d="M192.6,75.8c-9,7.9-31.2,19.2-38.4,38.4c-7.2,19.1-23.1,36.8-12.4,46.9
				s41.8,60.7,41.8,60.7l50-98.7L192.6,75.8z"/>
		</g>
		<circle cx="77.9" cy="134.5" r="4.7"/>
		<circle cx="119.5" cy="143.9" r="4.7"/>
		<path class="st72" d="M80.4,175.4c0,0,0,10.5,9.3,10.5c9,0,10.7-7.9,10.7-7.9"/>
		<g>
			<defs>
				<path id="XMLID_35_" d="M141.5,52.9c0,0,0.8-12.1,17.9-14.3s41.3,8.9,46.2,31.4c4.9,22.4,46.6,185.6,47.5,192.3
					c0.9,6.7-24.2,5.8-24.2,5.8s4.9,14.8-2.7,15.2s-20.6,4.5-20.2-4.9c0.4-9.4-11.2-173.9-10.8-176.6s-27.7-42.1-73-38
					C129.8,54.6,141.5,52.9,141.5,52.9z"/>
			</defs>
			<use xlink:href="#XMLID_35_"  style="overflow:visible;fill:#D6A732;"/>
			<clipPath id="XMLID_59_">
				<use xlink:href="#XMLID_35_"  style="overflow:visible;"/>
			</clipPath>
			<path style="opacity:0.21;clip-path:url(#XMLID_59_);" d="M109.9,65c7.6-10,20.5-14.9,39.4-10.6s45.9,22.1,45.9,37.2
				s0,31.8,0,31.8l-77-57.9L109.9,65z"/>
		</g>
	</g>
	<path style="clip-path:url(#XMLID_55_);fill:none;stroke:#B58A28;stroke-width:2.7118;stroke-miterlimit:10;" d="M109.4,133.7
		c0,0,6.2-3.7,15.4-2.1s10.8,7.1,10.8,7.1"/>
</g>
</svg>
