<?xml version="1.0" encoding="utf-8"?>
<!-- Generator: Adobe Illustrator 22.1.0, SVG Export Plug-In . SVG Version: 6.00 Build 0)  -->
<svg version="1.1" id="Layer_1" xmlns="http://www.w3.org/2000/svg" xmlns:xlink="http://www.w3.org/1999/xlink" x="0px" y="0px"
	 viewBox="0 0 302.5 302.5" style="enable-background:new 0 0 302.5 302.5;" xml:space="preserve">
<style type="text/css">
	.st0{fill:#E5D9C1;}
	.st1{opacity:4.000000e-02;clip-path:url(#SVGID_2_);enable-background:new    ;}
	.st2{fill:#692E47;}
	.st3{opacity:4.000000e-02;clip-path:url(#SVGID_4_);enable-background:new    ;}
	.st4{fill:#EFAF00;}
	.st5{clip-path:url(#SVGID_6_);}
	.st6{fill:#1F313A;}
	.st7{clip-path:url(#SVGID_8_);fill:none;stroke:#0C242D;stroke-width:3.8745;stroke-miterlimit:10;}
	
		.st8{opacity:0.57;clip-path:url(#SVGID_10_);fill:none;stroke:#E2C991;stroke-width:3.8745;stroke-miterlimit:10;enable-background:new    ;}
	.st9{fill:#E2C991;}
	.st10{fill:#D6BB85;}
	.st11{fill:#132126;}
	.st12{opacity:9.000000e-02;enable-background:new    ;}
</style>
<g>
	<g>
		<circle id="XMLID_45_" class="st0" cx="-193.8" cy="489" r="140.2"/>
	</g>
	<g>
		<defs>
			<circle id="SVGID_1_" cx="-193.8" cy="489" r="140.2"/>
		</defs>
		<clipPath id="SVGID_2_">
			<use xlink:href="#SVGID_1_"  style="overflow:visible;"/>
		</clipPath>
		<rect x="-199" y="275.4" class="st1" width="202.4" height="437.2"/>
	</g>
</g>
<g>
	<g>
		<circle id="XMLID_47_" class="st2" cx="144.1" cy="491.2" r="139.7"/>
	</g>
	<g>
		<defs>
			<circle id="SVGID_3_" cx="144.1" cy="491.2" r="139.7"/>
		</defs>
		<clipPath id="SVGID_4_">
			<use xlink:href="#SVGID_3_"  style="overflow:visible;"/>
		</clipPath>
		<rect x="112.7" y="273.5" class="st3" width="201.5" height="435.4"/>
	</g>
</g>
<g>
	<g>
		<rect id="XMLID_54_" x="-0.2" class="st4" width="302.5" height="302.5"/>
	</g>
	<g>
		<defs>
			<rect id="SVGID_5_" x="-0.2" width="302.5" height="302.5"/>
		</defs>
		<clipPath id="SVGID_6_">
			<use xlink:href="#SVGID_5_"  style="overflow:visible;"/>
		</clipPath>
		<g class="st5">
			<g>
				<g>
					<path id="XMLID_59_" class="st6" d="M251.9,309H50.5v-63c0-36.9,30.2-67.1,67.1-67.1h67c36.9,0,67.1,30.2,67.1,67.1v63H251.9z"
						/>
				</g>
				<g>
					<defs>
						<path id="SVGID_7_" d="M251.9,309H50.5v-63c0-36.9,30.2-67.1,67.1-67.1h67c36.9,0,67.1,30.2,67.1,67.1v63H251.9z"/>
					</defs>
					<clipPath id="SVGID_8_">
						<use xlink:href="#SVGID_7_"  style="overflow:visible;"/>
					</clipPath>
					<line class="st7" x1="210.9" y1="243.9" x2="210.9" y2="309"/>
				</g>
				<g>
					<g>
						<path id="XMLID_58_" class="st6" d="M166.7,252.3H147c-30.4,0-55.3-24.9-55.3-55.3V78.9c0-30.4,24.9-55.3,55.3-55.3h19.7
							c30.4,0,55.3,24.9,55.3,55.3V197C222,227.4,197.1,252.3,166.7,252.3z"/>
					</g>
					<g>
						<defs>
							<path id="SVGID_9_" d="M166.7,252.3H147c-30.4,0-55.3-24.9-55.3-55.3V78.9c0-30.4,24.9-55.3,55.3-55.3h19.7
								c30.4,0,55.3,24.9,55.3,55.3V197C222,227.4,197.1,252.3,166.7,252.3z"/>
						</defs>
						<clipPath id="SVGID_10_">
							<use xlink:href="#SVGID_9_"  style="overflow:visible;"/>
						</clipPath>
						<path class="st8" d="M143.1,60.1c0,0-2.6-15.4,4.7-25.5s16.1-14.7,16.1-14.7"/>
					</g>
					<rect x="132" y="117.3" class="st9" width="58.1" height="102.4"/>
					<path class="st10" d="M190,178.9c26.2,25.7,22.7,66.8,22.7,66.8s-22.7,6.6-59.7,6.7c-59.3,0.1-72.3-13.2-72.3-13.2
						s-1-22.7,10.9-39.4s40.3-20.9,40.3-20.9s13.8,28.9,57-0.1"/>
					<path class="st9" d="M153.1,155.9h-13.2c-20.3,0-37-16.6-37-37V92.6c0-20.3,16.6-37,37-37h13.2c20.3,0,37,16.6,37,37v26.3
						C190,139.3,173.4,155.9,153.1,155.9z"/>
					<path class="st11" d="M222,189.3c0,0-14.3,26.3-52.6,47.3C138,253.7,123.7,309,123.7,309H252c0,0-0.5-39.5,0-65
						C252.6,206.8,222,189.3,222,189.3z"/>
					<path class="st11" d="M91.7,183.5c0,0-11.2,37.5-10.9,65.7c0.3,28.2-30.3,59.8-30.3,59.8s0-49,0-72.4S73.5,187.8,91.7,183.5z"
						/>
					<path class="st12" d="M145.3,47.5l-0.2,7.4c0,0,36.8,15.2,38.3,50s-4.3,70.1,5.6,74c9.9,3.9,14.4-25.6,14.4-25.6
						s1.9-8.4-3.4-48.6S155.8,41.2,145.3,47.5z"/>
				</g>
			</g>
		</g>
	</g>
</g>
</svg>
