<?xml version="1.0" encoding="utf-8"?>
<!-- Generator: Adobe Illustrator 22.1.0, SVG Export Plug-In . SVG Version: 6.00 Build 0)  -->
<svg version="1.1" id="Layer_1" xmlns="http://www.w3.org/2000/svg" xmlns:xlink="http://www.w3.org/1999/xlink" x="0px" y="0px"
	 viewBox="0 0 303 303" style="enable-background:new 0 0 303 303;" xml:space="preserve">
<style type="text/css">
	.st0{clip-path:url(#XMLID_55_);}
	.st1{clip-path:url(#XMLID_56_);fill:none;stroke:#0C242D;stroke-width:4;stroke-miterlimit:10;}
	.st2{opacity:0.57;clip-path:url(#XMLID_57_);fill:none;stroke:#E2C991;stroke-width:4;stroke-miterlimit:10;}
	.st3{fill:#E2C991;}
	.st4{fill:#D6BB85;}
	.st5{fill:none;stroke:#000000;stroke-width:3;stroke-miterlimit:10;}
	.st6{opacity:4.000000e-02;}
	.st7{fill:#132126;}
	.st8{opacity:9.000000e-02;}
	.st9{fill:none;stroke:#000000;stroke-width:2;stroke-miterlimit:10;}
	.st10{clip-path:url(#XMLID_58_);fill:none;stroke:#0C242D;stroke-width:4;stroke-miterlimit:10;}
	.st11{opacity:0.57;clip-path:url(#XMLID_59_);fill:none;stroke:#E2C991;stroke-width:4;stroke-miterlimit:10;}
	.st12{fill:#1F3139;}
	.st13{opacity:0.1;clip-path:url(#XMLID_60_);}
	.st14{opacity:0.1;clip-path:url(#XMLID_61_);}
	.st15{fill:none;stroke:#EFAF00;stroke-width:5;stroke-miterlimit:10;}
	.st16{fill:#6D5525;}
	.st17{fill:#111D21;}
	.st18{clip-path:url(#XMLID_62_);}
	.st19{opacity:0.1;clip-path:url(#XMLID_63_);}
	.st20{opacity:0.1;clip-path:url(#XMLID_64_);}
	.st21{fill:#AA936B;}
	.st22{opacity:0.11;clip-path:url(#XMLID_65_);}
	.st23{clip-path:url(#XMLID_66_);fill:#FFFFFF;}
	.st24{opacity:0.14;clip-path:url(#XMLID_67_);}
	.st25{fill:none;stroke:#000000;stroke-width:5;stroke-miterlimit:10;}
	.st26{opacity:0.21;clip-path:url(#XMLID_68_);}
	.st27{clip-path:url(#XMLID_69_);}
	.st28{opacity:0.11;clip-path:url(#XMLID_70_);}
	.st29{clip-path:url(#XMLID_70_);fill:none;stroke:#B58A28;stroke-width:3;stroke-miterlimit:10;}
	.st30{clip-path:url(#XMLID_71_);fill:#FFFFFF;}
	.st31{opacity:0.14;clip-path:url(#XMLID_72_);}
	.st32{opacity:0.21;clip-path:url(#XMLID_73_);}
	.st33{clip-path:url(#XMLID_69_);fill:none;stroke:#B58A28;stroke-width:3;stroke-miterlimit:10;}
	.st34{fill:#CEB382;}
	.st35{clip-path:url(#XMLID_74_);fill:#D94700;}
	.st36{fill:#4E9687;}
	.st37{fill:none;stroke:#4E9687;stroke-width:2;stroke-miterlimit:10;}
	.st38{clip-path:url(#XMLID_75_);}
	.st39{clip-path:url(#XMLID_76_);fill:#D94700;}
	.st40{opacity:4.000000e-02;clip-path:url(#XMLID_75_);}
	.st41{fill:#B55515;}
	.st42{opacity:0.2;clip-path:url(#XMLID_77_);}
	.st43{fill:#FFFFFF;}
	.st44{fill:none;stroke:#000000;stroke-width:6;stroke-miterlimit:10;}
	.st45{clip-path:url(#XMLID_78_);}
	.st46{opacity:0.2;clip-path:url(#XMLID_79_);}
	.st47{clip-path:url(#XMLID_80_);fill:#B55515;}
	.st48{fill:none;stroke:#B55515;stroke-width:3;stroke-miterlimit:10;}
	.st49{opacity:4.000000e-02;clip-path:url(#XMLID_78_);}
	.st50{opacity:0.12;clip-path:url(#XMLID_81_);}
	.st51{opacity:0.24;clip-path:url(#XMLID_81_);}
	.st52{opacity:0.11;clip-path:url(#XMLID_82_);}
	.st53{fill:none;stroke:#FF2400;stroke-width:6;stroke-miterlimit:10;}
	.st54{opacity:0.12;clip-path:url(#XMLID_83_);}
	.st55{fill:#B6D4E3;}
	.st56{clip-path:url(#XMLID_84_);}
	.st57{opacity:0.12;clip-path:url(#XMLID_85_);}
	.st58{opacity:0.24;clip-path:url(#XMLID_85_);}
	.st59{opacity:0.11;clip-path:url(#XMLID_86_);}
	.st60{opacity:0.12;clip-path:url(#XMLID_87_);}
	.st61{fill:#89CEE8;}
	.st62{opacity:4.000000e-02;clip-path:url(#XMLID_84_);}
	.st63{clip-path:url(#XMLID_88_);}
	.st64{opacity:0.1;clip-path:url(#XMLID_89_);}
	.st65{opacity:0.1;clip-path:url(#XMLID_90_);}
	.st66{fill:none;stroke:#EFAF00;stroke-width:4.5338;stroke-miterlimit:10;}
	.st67{clip-path:url(#XMLID_91_);}
	.st68{opacity:0.11;clip-path:url(#XMLID_92_);}
	.st69{clip-path:url(#XMLID_92_);fill:none;stroke:#B58A28;stroke-width:2.7118;stroke-miterlimit:10;}
	.st70{clip-path:url(#XMLID_93_);fill:#FFFFFF;}
	.st71{opacity:0.14;clip-path:url(#XMLID_94_);}
	.st72{fill:none;stroke:#000000;stroke-width:2.7118;stroke-miterlimit:10;}
	.st73{opacity:0.21;clip-path:url(#XMLID_95_);}
	.st74{clip-path:url(#XMLID_91_);fill:none;stroke:#B58A28;stroke-width:2.7118;stroke-miterlimit:10;}
	.st75{clip-path:url(#XMLID_96_);}
	.st76{clip-path:url(#XMLID_97_);fill:none;stroke:#0C242D;stroke-width:3.627;stroke-miterlimit:10;}
	.st77{opacity:0.57;clip-path:url(#XMLID_98_);fill:none;stroke:#E2C991;stroke-width:3.627;stroke-miterlimit:10;}
	.st78{fill:none;stroke:#000000;stroke-width:2.7203;stroke-miterlimit:10;}
	.st79{fill:none;stroke:#000000;stroke-width:1.8135;stroke-miterlimit:10;}
	.st80{clip-path:url(#XMLID_99_);}
	.st81{clip-path:url(#XMLID_100_);fill:#D94700;}
	.st82{fill:none;stroke:#4E9687;stroke-width:1.8173;stroke-miterlimit:10;}
	.st83{opacity:4.000000e-02;clip-path:url(#XMLID_99_);}
	.st84{clip-path:url(#XMLID_101_);}
	.st85{opacity:0.2;clip-path:url(#XMLID_102_);}
	.st86{clip-path:url(#XMLID_103_);fill:#B55515;}
	.st87{fill:none;stroke:#000000;stroke-width:5.4295;stroke-miterlimit:10;}
	.st88{fill:none;stroke:#B55515;stroke-width:2.7148;stroke-miterlimit:10;}
	.st89{opacity:4.000000e-02;clip-path:url(#XMLID_101_);}
	.st90{clip-path:url(#XMLID_104_);}
	.st91{opacity:0.12;clip-path:url(#XMLID_105_);}
	.st92{opacity:0.24;clip-path:url(#XMLID_105_);}
	.st93{opacity:0.11;clip-path:url(#XMLID_106_);}
	.st94{fill:none;stroke:#000000;stroke-width:2.7114;stroke-miterlimit:10;}
	.st95{fill:none;stroke:#FF2400;stroke-width:5.4227;stroke-miterlimit:10;}
	.st96{opacity:0.12;clip-path:url(#XMLID_107_);}
	.st97{opacity:4.000000e-02;clip-path:url(#XMLID_104_);}
</style>
<g>
	<defs>
		<circle id="XMLID_42_" cx="151.5" cy="151.5" r="139.9"/>
	</defs>
	<use xlink:href="#XMLID_42_"  style="overflow:visible;fill:#EFAF00;"/>
	<clipPath id="XMLID_55_">
		<use xlink:href="#XMLID_42_"  style="overflow:visible;"/>
	</clipPath>
	<g class="st0">
		<g>
			<defs>
				<path id="XMLID_44_" d="M248.2,310.7H59.7v-54.6c0-36.9,30.2-67.1,67.1-67.1H181c36.9,0,67.1,30.2,67.1,67.1V310.7z"/>
			</defs>
			<use xlink:href="#XMLID_44_"  style="overflow:visible;fill:#1F313A;"/>
			<clipPath id="XMLID_56_">
				<use xlink:href="#XMLID_44_"  style="overflow:visible;"/>
			</clipPath>
			
				<line style="clip-path:url(#XMLID_56_);fill:none;stroke:#0C242D;stroke-width:3.627;stroke-miterlimit:10;" x1="209.8" y1="249.8" x2="209.8" y2="310.7"/>
		</g>
		<g>
			<defs>
				<path id="XMLID_43_" d="M164.9,257.7h-11.4c-30.4,0-55.3-24.9-55.3-55.3V98.8c0-30.4,24.9-55.3,55.3-55.3h11.4
					c30.4,0,55.3,24.9,55.3,55.3v103.6C220.2,232.8,195.3,257.7,164.9,257.7z"/>
			</defs>
			<use xlink:href="#XMLID_43_"  style="overflow:visible;fill:#1F313A;"/>
			<clipPath id="XMLID_57_">
				<use xlink:href="#XMLID_43_"  style="overflow:visible;"/>
			</clipPath>
			<path style="opacity:0.57;clip-path:url(#XMLID_57_);fill:none;stroke:#E2C991;stroke-width:3.627;stroke-miterlimit:10;" d="
				M146.4,77.7c0,0-2.4-14.4,4.4-23.9s15.1-13.8,15.1-13.8"/>
		</g>
		<rect x="135.9" y="131.3" class="st3" width="54.4" height="95.8"/>
		<path class="st4" d="M190.3,188.9c24.5,24.1,21.3,62.5,21.3,62.5s-21.3,6.2-55.8,6.2c-55.5,0.1-67.7-12.3-67.7-12.3
			s-0.9-21.3,10.2-36.9s37.7-19.5,37.7-19.5s12.9,27,53.4-0.1"/>
		<path class="st3" d="M153.3,167.4h-7.6c-20.3,0-37-16.6-37-37v-19.9c0-20.3,16.6-37,37-37h7.6c20.3,0,37,16.6,37,37v19.9
			C190.3,150.8,173.7,167.4,153.3,167.4z"/>
		<circle cx="129.7" cy="115.8" r="3.9"/>
		<circle cx="163.1" cy="115.8" r="3.9"/>
		<path class="st78" d="M137,139.6c0.7,2,4,7.7,9.9,7.5c5.2-0.2,9.2-7.9,9.2-7.9"/>
		<rect x="146.4" y="-19.5" class="st6" width="173" height="373.8"/>
		<path class="st7" d="M220.2,198.7c0,0-13.4,24.7-49.3,44.2c-29.4,16-42.8,67.8-42.8,67.8h120.1c0,0-0.5-37,0-60.9
			C248.9,215.1,220.2,198.7,220.2,198.7z"/>
		<path class="st7" d="M98.2,193.2c0,0-10.4,35.1-10.2,61.5c0.2,26.4-28.3,56-28.3,56s0-45.9,0-67.8S81.2,197.3,98.2,193.2z"/>
		<path class="st8" d="M148.4,65.9l-0.2,6.9c0,0,34.4,14.2,35.8,46.8s-4,65.6,5.3,69.3s13.5-24,13.5-24s1.8-7.8-3.2-45.5
			C194.7,81.8,158.2,60.1,148.4,65.9z"/>
		<path class="st79" d="M137,107.8c0,0-4-3-8.9-2.7c-4.9,0.3-7.4,5.8-7.4,5.8"/>
		<path class="st79" d="M153.9,109.1c0,0,1.1-4.2,7.4-4.8c6.3-0.5,9.9,4.8,9.9,4.8"/>
	</g>
</g>
</svg>
