<?xml version="1.0" encoding="utf-8"?>
<!-- Generator: Adobe Illustrator 22.1.0, SVG Export Plug-In . SVG Version: 6.00 Build 0)  -->
<svg version="1.1" id="Layer_1" xmlns="http://www.w3.org/2000/svg" xmlns:xlink="http://www.w3.org/1999/xlink" x="0px" y="0px"
	 viewBox="0 0 81 118" style="enable-background:new 0 0 81 118;" xml:space="preserve">
<style type="text/css">
	.st0{fill:none;stroke:#000000;stroke-width:2.551;stroke-linecap:square;}
	.st1{fill:none;stroke:#000000;stroke-width:2.551;}
	.st2{opacity:0.44;fill:none;stroke:#FFFFFF;stroke-width:3.1534;stroke-linecap:square;}
</style>
<path id="B" class="st0" d="M353.5-236.1h17.9 M381.2-239.1c-2.8,1.8-6.2,2.9-9.8,2.9c3.6,0,7,1.1,9.8,2.9 M371.4-241.2
	c7,0,12.7-5.7,12.7-12.8c0-7-5.7-12.8-12.8-12.8h-12.8v25.5L371.4-241.2C371.4-241.2,371.4-241.2,371.4-241.2 M371.4-231
	c7,0,12.8,5.7,12.8,12.8c0,7-5.7,12.8-12.8,12.8h-12.8V-231H371.4z M381.2-239.1c4.9-3.2,8.1-8.7,8.1-14.9c0-9.9-8-17.9-17.9-17.9
	h-17.9v71.4h17.9c9.9,0,17.9-8,17.9-17.9c0-6.3-3.2-11.8-8.1-14.9 M385.8-236.1c5.2-4.2,8.5-10.6,8.5-17.9c0-12.7-10.3-23-23-23h-23
	v81.6l23,0c12.7,0,23-10.3,23-23C394.4-225.5,391-231.9,385.8-236.1z"/>
<path id="A" class="st1" d="M319.4-197.4v-35.7h-25.5v35.7 M288.7-238.3h35.7 M319.4-243.4h-25.5l0-12.8c0-7,5.7-12.8,12.8-12.8
	c7,0,12.8,5.7,12.8,12.8V-243.4z M324.5-197.4v-58.7c0-9.9-8-17.9-17.9-17.9c-9.9,0-17.9,8-17.9,17.9v58.7 M283.6-197.4v-58.7
	c0-12.7,10.3-23,23-23s23,10.3,23,23v58.7"/>
<path id="C" class="st1" d="M443.9-223.7c0,9.9-8,17.9-17.9,17.9c-9.9,0-17.9-8-17.9-17.9v-35.7c0-9.9,8-17.9,17.9-17.9
	c9.9,0,17.9,8,17.9,17.9 M438.8-259.4c0-7-5.7-12.8-12.8-12.8c-7,0-12.8,5.7-12.8,12.8v35.7c0,7,5.7,12.8,12.8,12.8
	c7,0,12.8-5.7,12.8-12.8 M449-259.4c0-12.7-10.3-23-23-23c-12.7,0-23,10.3-23,23v35.7c0,12.7,10.3,23,23,23c12.7,0,23-10.3,23-23"/>
<path id="D" class="st0" d="M483.6-273.9c9.9,0,17.9,8,17.9,17.9v35.7c0,9.9-8,17.9-17.9,17.9h-17.9v-71.4H483.6z M483.6-207.5
	c7,0,12.8-5.7,12.8-12.8V-256c0-7-5.7-12.8-12.8-12.8h-12.8v61.2L483.6-207.5z M483.6-197.3c12.7,0,23-10.3,23-23V-256
	c0-12.7-10.3-23-23-23h-23v81.6H483.6z"/>
<path id="E" class="st0" d="M550.5-223.3c0,7-5.7,12.8-12.8,12.8c-7,0-12.8-5.7-12.8-12.8c0-7,5.7-12.8,12.8-12.8 M560.7-259
	c0-12.7-10.3-23-23-23c-12.7,0-23,10.3-23,23c0,7.2,3.3,13.6,8.5,17.9c-5.2,4.2-8.5,10.6-8.5,17.9c0,12.7,10.3,23,23,23
	c12.7,0,23-10.3,23-23 M550.5-259c0-7-5.7-12.8-12.8-12.8c-7,0-12.8,5.7-12.8,12.8c0,7,5.7,12.8,12.7,12.8 M555.6-223.3
	c0,9.9-8,17.9-17.9,17.9c-9.9,0-17.9-8-17.9-17.9c0-9.9,8-17.9,17.9-17.9 M537.8-241.1c-9.9,0-17.9-8-17.9-17.9
	c0-9.9,8-17.9,17.9-17.9c9.9,0,17.9,8,17.9,17.9"/>
<path id="F" class="st0" d="M613.8-259c0-9.9-8-17.9-17.9-17.9c-9.9,0-17.9,8-17.9,17.9v58.7 M578-241.1l17.9,0 M608.7-259
	c0-7-5.7-12.8-12.8-12.8c-7,0-12.8,5.7-12.8,12.8v12.8h12.8 M583.1-200.3V-236h12.8 M618.9-259c0-12.7-10.3-23-23-23s-23,10.3-23,23
	v58.7"/>
<path id="G" class="st0" d="M661.8-254c0-7-5.7-12.8-12.8-12.8c-7,0-12.8,5.7-12.8,12.8v35.7c0,7,5.7,12.8,12.8,12.8
	c7,0,12.8-5.7,12.8-12.8V-231H649 M672-254c0-12.7-10.3-23-23-23s-23,10.3-23,23v35.7c0,12.7,10.3,23,23,23s23-10.3,23-23v-23h-23
	 M666.9-254c0-9.9-8-17.9-17.9-17.9c-9.9,0-17.9,8-17.9,17.9v35.7c0,9.9,8,17.9,17.9,17.9c9.9,0,17.9-8,17.9-17.9v-17.9l-17.9,0"/>
<path id="H" class="st0" d="M720.9-192.3V-228h-25.5v35.7 M690.3-233.1H726 M720.9-274v35.7h-25.5V-274 M726-192.3V-274 M690.3-274
	v81.6 M685.2-192.3V-274 M731.1-274v81.6"/>
<path id="I" class="st0" d="M293.5-178.9v81.6 M288.4-178.9v81.6 M283.3-97.3v-81.6"/>
<path id="J" class="st0" d="M311.9-120.2c0,7,5.7,12.8,12.8,12.8c7,0,12.8-5.7,12.8-12.8v-58.7 M306.8-120.2c0,9.9,8,17.9,17.9,17.9
	c9.9,0,17.9-8,17.9-17.9v-58.7 M301.7-120.2c0,12.7,10.3,23,23,23s23-10.3,23-23v-58.7"/>
<path id="K" class="st0" d="M371.5-138.1h17.9 M399.1-141c-2.8,1.8-6.2,2.9-9.8,2.9c3.6,0,7,1.1,9.8,2.9 M389.4-143.2
	c7,0,12.7-5.7,12.7-12.8l0-23 M376.6-178.9v35.7l12.8,0c0,0,0,0,0,0 M376.6-97.3V-133h12.8c7,0,12.8,5.7,12.8,12.8l0,23 M399.1-141
	c4.9-3.2,8.1-8.7,8.1-14.9v-23 M371.5-178.9v81.6 M399.1-135.2c4.9,3.2,8.1,8.7,8.1,14.9v23 M412.3-178.9l0,23
	c0,7.2-3.3,13.6-8.5,17.9c5.2,4.2,8.5,10.6,8.5,17.9l0,23 M366.4-178.9v81.6"/>
<path id="L" class="st1" d="M440.1-181.1v71.4h25.5 M435-181.1v76.5h30.6 M465.6-99.4h-35.7v-81.6"/>
<path id="M" class="st0" d="M545.2-97.3V-156c0-7-5.7-12.8-12.8-12.8c-7,0-12.8,5.7-12.8,12.8v58.7 M550.3-97.3V-156
	c0-9.9-8-17.9-17.9-17.9c-6.3,0-11.8,3.2-14.9,8.1c-1.8,2.8-2.9,6.2-2.9,9.8v58.7 M555.4-97.3V-156c0-12.7-10.3-23-23-23
	c-7.2,0-13.6,3.3-17.9,8.5c-4.2-5.2-10.6-8.5-17.9-8.5c-12.7,0-23,10.3-23,23v58.7 M509.5-97.3V-156c0-7-5.7-12.8-12.8-12.8
	c-7,0-12.8,5.7-12.8,12.8v58.7 M514.6-156c0-3.6-1.1-7-2.9-9.8c-3.2-4.9-8.7-8.1-14.9-8.1c-9.9,0-17.9,8-17.9,17.9v58.7"/>
<path id="N" class="st0" d="M602.3-97.3V-156c0-7-5.7-12.8-12.8-12.8c-7,0-12.8,5.7-12.8,12.8v58.7 M607.4-97.3V-156
	c0-9.9-8-17.9-17.9-17.9c-9.9,0-17.9,8-17.9,17.9v58.7 M612.6-97.3V-156c0-12.7-10.3-23-23-23c-12.7,0-23,10.3-23,23v58.7"/>
<path id="Q_1_" class="st1" d="M324.7-0.7h-23c-12.7,0-23-10.3-23-23v-35.7c0-12.7,10.3-23,23-23c12.7,0,23,10.3,23,23v35.7
	c0,4.7-1.4,9.1-3.9,12.8h3.9 M324.7-5.8h-23 M301.8-10.9c7,0,12.8-5.7,12.8-12.8v-35.7c0-7-5.7-12.8-12.8-12.8
	c-7,0-12.8,5.7-12.8,12.8v35.7C289-16.6,294.7-10.9,301.8-10.9 M314.3-10.9c3.3-3.2,5.4-7.8,5.4-12.8v-35.7c0-9.9-8-17.9-17.9-17.9
	c-9.9,0-17.9,8-17.9,17.9v35.7c0,9.9,8,17.9,17.9,17.9C306.7-5.8,311.1-7.8,314.3-10.9"/>
<path id="O" class="st0" d="M634-117.2c0,7,5.7,12.8,12.8,12.8c7,0,12.8-5.7,12.8-12.8V-153c0-7-5.7-12.8-12.8-12.8
	c-7,0-12.8,5.7-12.8,12.8V-117.2z M628.9-117.2c0,9.9,8,17.9,17.9,17.9c9.9,0,17.9-8,17.9-17.9V-153c0-9.9-8-17.9-17.9-17.9
	c-9.9,0-17.9,8-17.9,17.9V-117.2z M669.7-153c0-12.7-10.3-23-23-23s-23,10.3-23,23v35.7c0,12.7,10.3,23,23,23s23-10.3,23-23V-153z"
	/>
<path id="P" class="st0" d="M700.1-92.3V-128h12.8c12.7,0,23-10.3,23-23c0-12.7-10.3-23-23-23h-23v81.6 M695-133.1v40.8
	 M712.8-133.1c3.6,0,7-1.1,9.8-2.9c4.9-3.2,8.1-8.7,8.1-14.9c0-9.9-8-17.9-17.9-17.9H695v35.7h5.1H712.8z M712.9-138.2
	c7,0,12.7-5.7,12.7-12.8c0-7-5.7-12.8-12.8-12.8h-12.8v25.5H712.9"/>
<path id="R" class="st0" d="M358.4-40.5h-17.9 M358.4-45.6c7,0,12.7-5.7,12.7-12.8c0-7-5.7-12.8-12.8-12.8h-12.8v25.5H358.4
	C358.4-45.6,358.4-45.6,358.4-45.6 M340.5,0.3v-76.5h17.9c9.9,0,17.9,8,17.9,17.9c0,6.3-3.2,11.7-8.1,14.9c-2.8,1.8-6.2,2.9-9.8,2.9
	c3.6,0,7,1.1,9.8,2.9c4.9,3.2,8.1,8.7,8.1,14.9v23 M335.4,0.3v-81.6h23c12.7,0,23,10.3,23,23c0,7.2-3.3,13.6-8.5,17.9
	c5.2,4.2,8.5,10.6,8.5,17.9v23 M371.1,0.3v-23c0-7-5.7-12.8-12.8-12.8h-12.8V0.3"/>
<path id="S" class="st0" d="M391.6-22.6c0,12.7,10.3,23,23,23c12.7,0,23-10.3,23-23c0-7.2-3.3-13.6-8.5-17.9c-1.4-1.1-3-2.1-4.6-2.9
	c-3-1.4-6.3-2.2-9.8-2.2c-7,0-12.8-5.7-12.8-12.8c0-7,5.7-12.8,12.8-12.8c7,0,12.8,5.7,12.8,12.8 M401.8-22.6
	c0,7,5.7,12.8,12.8,12.8c7,0,12.8-5.7,12.8-12.8c0-7-5.7-12.8-12.8-12.8c-3.5,0-6.8-0.8-9.8-2.2c-1.7-0.8-3.2-1.8-4.6-2.9
	c-5.2-4.2-8.5-10.6-8.5-17.9c0-12.7,10.3-23,23-23c12.7,0,23,10.3,23,23 M396.7-22.6c0,9.9,8,17.9,17.9,17.9c9.9,0,17.9-8,17.9-17.9
	c0-6.3-3.2-11.8-8.1-14.9c-2.8-1.8-6.2-2.9-9.8-2.9c-3.6,0-7-1.1-9.8-2.9c-4.9-3.2-8.1-8.7-8.1-14.9c0-9.9,8-17.9,17.9-17.9
	c9.9,0,17.9,8,17.9,17.9"/>
<path id="T" class="st0" d="M445.6-79.3h51 M496.6-74.2h-25.5 M466,2.3v-71.4h-20.4 M471.1,2.3v-76.5h-25.5 M496.6-69.1h-20.4
	l0,71.4"/>
<path id="U" class="st0" d="M517.5-81.3v58.7c0,7,5.7,12.8,12.8,12.8c7,0,12.8-5.7,12.8-12.8v-58.7 M512.4-81.3v58.7
	c0,9.9,8,17.9,17.9,17.9c9.9,0,17.9-8,17.9-17.9v-58.7 M507.3-81.3v58.7c0,12.7,10.3,23,23,23c12.7,0,23-10.3,23-23v-58.7"/>
<path id="V" class="st0" d="M602.1-82.3v58.7c0,7-5.7,12.8-12.8,12.8h-12.8v-71.4 M612.3-82.3v58.7c0,12.7-10.3,23-23,23h-23v-81.6
	 M607.2-82.3v58.7c0,9.9-8,17.9-17.9,17.9h-17.9v-76.5"/>
<path id="W" class="st0" d="M641.7-81.3v58.7c0,7,5.7,12.8,12.8,12.8c7,0,12.8-5.7,12.8-12.8v-58.7 M636.6-81.3v58.7
	c0,9.9,8,17.9,17.9,17.9c6.3,0,11.8-3.2,14.9-8.1c1.8-2.8,2.9-6.2,2.9-9.8v-58.7 M631.5-81.3v58.7c0,12.7,10.3,23,23,23
	c7.2,0,13.6-3.3,17.9-8.5c4.2,5.2,10.6,8.5,17.9,8.5c12.7,0,23-10.3,23-23v-58.7 M677.4-81.3v58.7c0,7,5.7,12.8,12.8,12.8
	s12.8-5.7,12.8-12.8v-58.7 M672.3-22.6c0,3.6,1.1,7,2.9,9.8c3.2,4.9,8.7,8.1,14.9,8.1c9.9,0,17.9-8,17.9-17.9v-58.7"/>
<path id="X" class="st0" d="M314,104.4v-23c0-7-5.7-12.8-12.8-12.8c-7,0-12.8,5.7-12.8,12.8v23 M319.1,104.4v-23
	c0-9.9-8-17.9-17.9-17.9c-9.9,0-17.9,8-17.9,17.9v23 M288.5,22.7v23c0,7,5.7,12.8,12.8,12.8S314,52.7,314,45.7v-23 M283.4,22.7v23
	c0,9.9,8,17.9,17.9,17.9c9.9,0,17.9-8,17.9-17.9v-23 M324.2,104.4v-23c0-7.2-3.3-13.7-8.5-17.9c5.2-4.2,8.5-10.6,8.5-17.9v-23
	 M278.3,104.4v-23c0-7.2,3.3-13.7,8.5-17.9c-5.2-4.2-8.5-10.6-8.5-17.9v-23"/>
<path id="Y" class="st1" d="M394.4,22.9v23c0,10.9-7.6,20.1-17.9,22.4v36.3 M366.3,104.6V68.3c-10.2-2.3-17.9-11.5-17.9-22.4v-23
	 M358.7,22.9v23c0,7,5.7,12.8,12.8,12.8c7,0,12.8-5.7,12.8-12.8v-23 M353.6,22.9v23c0,9.9,8,17.9,17.9,17.9c9.9,0,17.9-8,17.9-17.9
	v-23 M371.4,104.6V63.7"/>
<path id="Z" class="st0" d="M414.6,32.9h35.7v12.8c0,7-5.7,12.8-12.8,12.8c-3.5,0-6.8,0.8-9.8,2.2c-1.7,0.8-3.2,1.8-4.6,2.9
	c-5.2,4.2-8.5,10.6-8.5,17.9v23h45.9 M414.6,22.7h45.9v23c0,7.2-3.3,13.6-8.5,17.9c-1.4,1.1-3,2.1-4.6,2.9c-3,1.4-6.3,2.2-9.8,2.2
	c-7,0-12.8,5.7-12.8,12.8l0,12.8h35.7 M414.6,27.8h40.8v17.9c0,6.3-3.2,11.8-8.1,14.9c-2.8,1.8-6.2,2.9-9.8,2.9
	c-3.6,0-7,1.1-9.8,2.9c-4.9,3.2-8.1,8.7-8.1,14.9v17.9h40.8"/>
<path id="graden_teken" class="st0" d="M496.9,44.2c0,7,5.7,12.8,12.8,12.8c7,0,12.8-5.7,12.8-12.8v-2.6c0-7-5.7-12.8-12.8-12.8
	c-7,0-12.8,5.7-12.8,12.8V44.2z M491.8,44.2c0,9.9,8,17.9,17.9,17.9c9.9,0,17.9-8,17.9-17.9v-2.6c0-9.9-8-17.9-17.9-17.9
	c-9.9,0-17.9,8-17.9,17.9V44.2z M532.6,41.7c0-12.7-10.3-23-23-23c-12.7,0-23,10.3-23,23v2.6c0,12.7,10.3,23,23,23
	c12.7,0,23-10.3,23-23V41.7z"/>
<path id="_x31___x28_cijfer_x29_" class="st0" d="M557.6,103.4V31.9h-15.3 M562.7,103.4V26.8h-20.4 M542.3,21.7h25.5v81.6"/>
<path id="_x32___x28_cijfer_x29_" class="st0" d="M599.2,44.7c0-7,5.7-12.8,12.8-12.8c7,0,12.8,5.7,12.8,12.8
	c0,7-5.7,12.8-12.8,12.8c-3.5,0-6.8,0.8-9.8,2.2c-1.7,0.8-3.2,1.8-4.6,2.9c-5.2,4.2-8.5,10.6-8.5,17.9v23h45.9 M589,44.7
	c0-12.7,10.3-23,23-23c12.7,0,23,10.3,23,23c0,7.2-3.3,13.6-8.5,17.9c-1.4,1.1-3,2.1-4.6,2.9c-3,1.4-6.3,2.2-9.8,2.2
	c-7,0-12.8,5.7-12.8,12.8v12.8h35.7 M594.1,44.7c0-9.9,8-17.9,17.9-17.9c9.9,0,17.9,8,17.9,17.9c0,6.3-3.2,11.8-8.1,14.9
	c-2.8,1.8-6.2,2.9-9.8,2.9c-3.6,0-7,1.1-9.8,2.9c-4.9,3.2-8.1,8.7-8.1,14.9v17.9h40.8"/>
<path id="_x33___x28_cijfer_x29_" class="st0" d="M666.3,80.4c0,7,5.7,12.8,12.8,12.8c7,0,12.8-5.7,12.8-12.8
	c0-7-5.7-12.8-12.8-12.8 M661.2,80.4c0,9.9,8,17.9,17.9,17.9c9.9,0,17.9-8,17.9-17.9c0-6.3-3.2-11.8-8.1-14.9
	c-2.8-1.8-6.2-2.9-9.8-2.9c3.6,0,7-1.1,9.8-2.9c4.9-3.2,8.1-8.7,8.1-14.9c0-9.9-8-17.9-17.9-17.9c-9.9,0-17.9,8-17.9,17.9
	 M656.1,44.7c0-12.7,10.3-23,23-23c12.7,0,23,10.3,23,23c0,7.2-3.3,13.6-8.5,17.9c5.2,4.2,8.5,10.6,8.5,17.9c0,12.7-10.3,23-23,23
	c-12.7,0-23-10.3-23-23 M666.3,44.7c0-7,5.7-12.8,12.8-12.8c7,0,12.8,5.7,12.8,12.8c0,7-5.7,12.8-12.7,12.8"/>
<path id="_x34___x28_cijfer_x29_" class="st0" d="M725.4,22.3v33.2h25.5l0-33.2 M715.2,22.3v43.4h35.7v38.3 M756,22.3v81.6
	 M720.3,22.3v38.3H756 M761.2,22.3v81.6"/>
<path id="_x35___x28_cijfer_x29_" class="st0" d="M278.3,199.4h23c12.7,0,23-10.3,23-23s-10.3-23-23-23h-12.8V128h33.2 M321.7,122.9
	h-38.3v35.7h17.9c3.6,0,7,1.1,9.8,2.9c4.9,3.2,8.1,8.7,8.1,14.9c0,9.9-8,17.9-17.9,17.9h-23 M301.3,163.7c7,0,12.7,5.7,12.7,12.8
	c0,7-5.7,12.8-12.8,12.8h-23 M301.3,163.7h-23v-45.9h43.4"/>
<path id="_x36___x28_cijfer_x29_" class="st0" d="M345.6,176.5c0,7,5.7,12.8,12.8,12.8c7,0,12.8-5.7,12.8-12.8
	c0-7-5.7-12.8-12.8-12.8C351.3,163.7,345.6,169.4,345.6,176.5 M345.6,164c-3.2,3.2-5.1,7.6-5.1,12.5c0,9.9,8,17.9,17.9,17.9
	c9.9,0,17.9-8,17.9-17.9c0-9.9-8-17.9-17.9-17.9C353.4,158.6,348.9,160.7,345.6,164 M371.1,140.7c0-7-5.7-12.8-12.8-12.8
	c-7,0-12.8,5.7-12.8,12.8v16.6c3.6-2.4,8-3.9,12.8-3.9c12.7,0,23,10.3,23,23h0c0,12.7-10.3,23-23,23c-12.7,0-23-10.3-23-23v-35.7
	c0-12.7,10.3-23,23-23c12.7,0,23,10.3,23,23 M340.5,176.5v-35.7c0-9.9,8-17.9,17.9-17.9c9.9,0,17.9,8,17.9,17.9"/>
<path id="_x37___x28_cijfer_x29_" class="st0" d="M403.6,128h35.7l0,12.8c0,7-5.7,12.8-12.8,12.8c-3.5,0-6.8,0.8-9.8,2.2
	c-1.7,0.8-3.2,1.8-4.6,2.9c-5.2,4.2-8.5,10.6-8.5,17.9v23 M403.6,117.8h45.9v23c0,7.2-3.3,13.6-8.5,17.9c-1.4,1.1-3,2.1-4.6,2.9
	c-3,1.4-6.3,2.2-9.8,2.2c-7,0-12.8,5.7-12.8,12.8v23 M403.6,122.9h40.8v17.9c0,6.3-3.2,11.8-8.1,14.9c-2.8,1.8-6.2,2.9-9.8,2.9
	c-3.6,0-7,1.1-9.8,2.9c-4.9,3.2-8.1,8.7-8.1,14.9l0,23"/>
<path id="_x38___x28_cijfer_x29_" class="st0" d="M494.4,176.5c0,7-5.7,12.8-12.8,12.8c-7,0-12.8-5.7-12.8-12.8
	c0-7,5.7-12.8,12.8-12.8C488.7,163.7,494.4,169.4,494.4,176.5z M481.6,158.6c3.6,0,7,1.1,9.8,2.9c4.9,3.2,8.1,8.7,8.1,14.9
	c0,9.9-8,17.9-17.9,17.9c-9.9,0-17.9-8-17.9-17.9c0-6.3,3.2-11.8,8.1-14.9C474.7,159.7,478,158.6,481.6,158.6 M467.2,158.6
	c-5.2,4.2-8.5,10.6-8.5,17.9c0,12.7,10.3,23,23,23s23-10.3,23-23c0-7.2-3.3-13.6-8.5-17.9c5.2-4.2,8.5-10.6,8.5-17.9
	c0-12.7-10.3-23-23-23s-23,10.3-23,23C458.7,148,462,154.4,467.2,158.6z M481.6,158.6c3.6,0,7-1.1,9.8-2.9c4.9-3.2,8.1-8.7,8.1-14.9
	c0-9.9-8-17.9-17.9-17.9c-9.9,0-17.9,8-17.9,17.9c0,6.3,3.2,11.8,8.1,14.9C474.7,157.5,478,158.6,481.6,158.6 M494.4,140.7
	c0,7-5.7,12.8-12.8,12.8c-7,0-12.8-5.7-12.8-12.8s5.7-12.8,12.8-12.8C488.7,128,494.4,133.7,494.4,140.7z"/>
<path id="_x39___x28_cijfer_x29_" class="st0" d="M549.5,140.7c0-7-5.7-12.8-12.8-12.8c-7,0-12.8,5.7-12.8,12.8l0,0
	c0,7,5.7,12.8,12.8,12.8C543.8,153.5,549.5,147.8,549.5,140.7 M549.5,153.2c3.2-3.2,5.1-7.6,5.1-12.5c0-9.9-8-17.9-17.9-17.9
	c-9.9,0-17.9,8-17.9,17.9c0,9.9,8,17.9,17.9,17.9C541.8,158.6,546.3,156.5,549.5,153.2 M524,176.5c0,7,5.7,12.8,12.8,12.8
	c7,0,12.8-5.7,12.8-12.8v-16.6c-3.6,2.4-8,3.9-12.8,3.9c-12.7,0-23-10.3-23-23s10.3-23,23-23c12.7,0,23,10.3,23,23v35.7
	c0,12.7-10.3,23-23,23c-12.7,0-23-10.3-23-23 M554.6,140.7v35.7c0,9.9-8,17.9-17.9,17.9c-9.9,0-17.9-8-17.9-17.9"/>
<path id="_x30___x28_cijfer_x29_" class="st0" d="M581.1,176.5c0,7,5.7,12.8,12.8,12.8c7,0,12.8-5.7,12.8-12.8v-35.7
	c0-7-5.7-12.8-12.8-12.8c-7,0-12.8,5.7-12.8,12.8V176.5z M576,176.5c0,9.9,8,17.9,17.9,17.9c9.9,0,17.9-8,17.9-17.9v-35.7
	c0-9.9-8-17.9-17.9-17.9c-9.9,0-17.9,8-17.9,17.9V176.5z M616.9,140.7c0-12.7-10.3-23-23-23s-23,10.3-23,23v35.7
	c0,12.7,10.3,23,23,23s23-10.3,23-23V140.7z"/>
<path id="P_1_" class="st2" d="M28.5,111V66.8h15.8c15.7,0,28.4-12.7,28.4-28.4c0-15.7-12.7-28.4-28.4-28.4H15.9V111 M22.2,60.5V111
	 M44.3,60.5c4.5,0,8.6-1.3,12.1-3.6c6-3.9,10-10.7,10-18.5c0-12.2-9.9-22.1-22.1-22.1H22.2v44.2h6.3H44.3z M44.3,54.2
	C53,54.2,60,47.2,60,38.5c0-8.7-7.1-15.8-15.8-15.8H28.5v31.5H44.3"/>
</svg>
