<?xml version="1.0" encoding="utf-8"?>
<!-- Generator: Adobe Illustrator 22.1.0, SVG Export Plug-In . SVG Version: 6.00 Build 0)  -->
<svg version="1.1" id="Layer_1" xmlns="http://www.w3.org/2000/svg" xmlns:xlink="http://www.w3.org/1999/xlink" x="0px" y="0px"
	 viewBox="0 0 225 228" style="enable-background:new 0 0 225 228;" xml:space="preserve">
<style type="text/css">
	.st0{fill:#692E47;}
	.st1{fill:#4E9687;}
	.st2{fill:#EFAF00;}
	.st3{fill:#FFFFFF;stroke:#000000;stroke-width:8;stroke-miterlimit:10;}
	.st4{fill:none;stroke:#000000;stroke-width:8;stroke-miterlimit:10;}
	.st5{fill:none;stroke:#000000;stroke-width:4;stroke-miterlimit:10;}
	.st6{fill:none;stroke:#000000;stroke-width:10;stroke-miterlimit:10;}
	.st7{fill:none;stroke:#000000;stroke-width:5;stroke-miterlimit:10;}
	.st8{fill:none;stroke:#CF4463;stroke-width:10;stroke-miterlimit:10;}
	.st9{fill:#EFAF00;stroke:#692E47;stroke-width:10;stroke-miterlimit:10;}
	.st10{fill:#EFAF00;stroke:#692E47;stroke-width:4;stroke-miterlimit:10;}
	.st11{fill:none;stroke:#692E47;stroke-width:10;stroke-miterlimit:10;}
	.st12{fill:#CF4463;}
	.st13{fill:#EFAF00;stroke:#CF4463;stroke-width:10;stroke-miterlimit:10;}
	.st14{fill:#EFAF00;stroke:#CF4463;stroke-width:5;stroke-miterlimit:10;}
	.st15{fill:none;stroke:#CF4463;stroke-width:5;stroke-miterlimit:10;}
	.st16{fill:none;stroke:#000000;stroke-width:2;stroke-miterlimit:10;}
	.st17{fill:none;stroke:#000000;stroke-width:3;stroke-miterlimit:10;}
	.st18{fill:none;stroke:#F70B49;stroke-width:2.551;stroke-linecap:square;}
	.st19{fill:none;stroke:#000000;stroke-width:2.551;stroke-linecap:square;}
	.st20{fill:#FFFFFF;}
	.st21{fill:none;stroke:#000000;stroke-width:2.551;}
	.st22{fill:none;}
	.st23{fill:#D94700;}
</style>
<g>
	<path class="st23" d="M93.8,211.7c-28.3,0-51.2-23-51.2-51.2s23-51.2,51.2-51.2c4.2,0,8.5,0.5,12.6,1.6l-2.4,9.7
		c-3.3-0.8-6.7-1.2-10.1-1.2c-22.7,0-41.2,18.5-41.2,41.2s18.5,41.2,41.2,41.2c11.9,0,23.3-5.2,31.1-14.2l7.5,6.6
		C122.7,205.3,108.6,211.7,93.8,211.7z"/>
	<g>
		<polygon class="st23" points="88.4,132 130.3,132.1 109.5,95.8 		"/>
	</g>
</g>
<g>
	<path class="st23" d="M121,172.7c-12.3,0-24.6-3.1-35.4-8.9l4.7-8.8c9.4,5,20,7.7,30.7,7.7c35.8,0,65-29.2,65-65s-29.2-65-65-65
		c-17.7,0-34.2,7-46.6,19.6l-7.2-7c14.2-14.6,33.3-22.7,53.7-22.7c41.4,0,75,33.6,75,75S162.4,172.7,121,172.7z"/>
	<g>
		<polygon class="st23" points="92.5,56 55,74.5 57.8,32.7 		"/>
	</g>
</g>
</svg>
