<?xml version="1.0" encoding="utf-8"?>
<!-- Generator: Adobe Illustrator 22.1.0, SVG Export Plug-In . SVG Version: 6.00 Build 0)  -->
<svg version="1.1" id="Layer_1" xmlns="http://www.w3.org/2000/svg" xmlns:xlink="http://www.w3.org/1999/xlink" x="0px" y="0px"
	 viewBox="0 0 303 303" style="enable-background:new 0 0 303 303;" xml:space="preserve">
<style type="text/css">
	.st0{clip-path:url(#XMLID_55_);}
	.st1{clip-path:url(#XMLID_56_);fill:none;stroke:#0C242D;stroke-width:4;stroke-miterlimit:10;}
	.st2{opacity:0.57;clip-path:url(#XMLID_57_);fill:none;stroke:#E2C991;stroke-width:4;stroke-miterlimit:10;}
	.st3{fill:#E2C991;}
	.st4{fill:#D6BB85;}
	.st5{fill:none;stroke:#000000;stroke-width:3;stroke-miterlimit:10;}
	.st6{opacity:4.000000e-02;}
	.st7{fill:#132126;}
	.st8{opacity:9.000000e-02;}
	.st9{fill:none;stroke:#000000;stroke-width:2;stroke-miterlimit:10;}
	.st10{clip-path:url(#XMLID_58_);fill:none;stroke:#0C242D;stroke-width:4;stroke-miterlimit:10;}
	.st11{opacity:0.57;clip-path:url(#XMLID_59_);fill:none;stroke:#E2C991;stroke-width:4;stroke-miterlimit:10;}
	.st12{fill:#1F3139;}
	.st13{opacity:0.1;clip-path:url(#XMLID_60_);}
	.st14{opacity:0.1;clip-path:url(#XMLID_61_);}
	.st15{fill:none;stroke:#EFAF00;stroke-width:5;stroke-miterlimit:10;}
	.st16{fill:#6D5525;}
	.st17{fill:#111D21;}
	.st18{clip-path:url(#XMLID_62_);}
	.st19{opacity:0.1;clip-path:url(#XMLID_63_);}
	.st20{opacity:0.1;clip-path:url(#XMLID_64_);}
	.st21{fill:#AA936B;}
	.st22{opacity:0.11;clip-path:url(#XMLID_65_);}
	.st23{clip-path:url(#XMLID_66_);fill:#FFFFFF;}
	.st24{opacity:0.14;clip-path:url(#XMLID_67_);}
	.st25{fill:none;stroke:#000000;stroke-width:5;stroke-miterlimit:10;}
	.st26{opacity:0.21;clip-path:url(#XMLID_68_);}
	.st27{clip-path:url(#XMLID_69_);}
	.st28{opacity:0.11;clip-path:url(#XMLID_70_);}
	.st29{clip-path:url(#XMLID_70_);fill:none;stroke:#B58A28;stroke-width:3;stroke-miterlimit:10;}
	.st30{clip-path:url(#XMLID_71_);fill:#FFFFFF;}
	.st31{opacity:0.14;clip-path:url(#XMLID_72_);}
	.st32{opacity:0.21;clip-path:url(#XMLID_73_);}
	.st33{clip-path:url(#XMLID_69_);fill:none;stroke:#B58A28;stroke-width:3;stroke-miterlimit:10;}
	.st34{fill:#CEB382;}
	.st35{clip-path:url(#XMLID_74_);fill:#D94700;}
	.st36{fill:#4E9687;}
	.st37{fill:none;stroke:#4E9687;stroke-width:2;stroke-miterlimit:10;}
	.st38{clip-path:url(#XMLID_75_);}
	.st39{clip-path:url(#XMLID_76_);fill:#D94700;}
	.st40{opacity:4.000000e-02;clip-path:url(#XMLID_75_);}
	.st41{fill:#B55515;}
	.st42{opacity:0.2;clip-path:url(#XMLID_77_);}
	.st43{fill:#FFFFFF;}
	.st44{fill:none;stroke:#000000;stroke-width:6;stroke-miterlimit:10;}
	.st45{clip-path:url(#XMLID_78_);}
	.st46{opacity:0.2;clip-path:url(#XMLID_79_);}
	.st47{clip-path:url(#XMLID_80_);fill:#B55515;}
	.st48{fill:none;stroke:#B55515;stroke-width:3;stroke-miterlimit:10;}
	.st49{opacity:4.000000e-02;clip-path:url(#XMLID_78_);}
	.st50{opacity:0.12;clip-path:url(#XMLID_81_);}
	.st51{opacity:0.24;clip-path:url(#XMLID_81_);}
	.st52{opacity:0.11;clip-path:url(#XMLID_82_);}
	.st53{fill:none;stroke:#FF2400;stroke-width:6;stroke-miterlimit:10;}
	.st54{opacity:0.12;clip-path:url(#XMLID_83_);}
	.st55{fill:#B6D4E3;}
	.st56{clip-path:url(#XMLID_84_);}
	.st57{opacity:0.12;clip-path:url(#XMLID_85_);}
	.st58{opacity:0.24;clip-path:url(#XMLID_85_);}
	.st59{opacity:0.11;clip-path:url(#XMLID_86_);}
	.st60{opacity:0.12;clip-path:url(#XMLID_87_);}
	.st61{fill:#89CEE8;}
	.st62{opacity:4.000000e-02;clip-path:url(#XMLID_84_);}
	.st63{clip-path:url(#XMLID_88_);}
	.st64{opacity:0.1;clip-path:url(#XMLID_89_);}
	.st65{opacity:0.1;clip-path:url(#XMLID_90_);}
	.st66{fill:none;stroke:#EFAF00;stroke-width:4.5338;stroke-miterlimit:10;}
	.st67{clip-path:url(#XMLID_91_);}
	.st68{opacity:0.11;clip-path:url(#XMLID_92_);}
	.st69{clip-path:url(#XMLID_92_);fill:none;stroke:#B58A28;stroke-width:2.7118;stroke-miterlimit:10;}
	.st70{clip-path:url(#XMLID_93_);fill:#FFFFFF;}
	.st71{opacity:0.14;clip-path:url(#XMLID_94_);}
	.st72{fill:none;stroke:#000000;stroke-width:2.7118;stroke-miterlimit:10;}
	.st73{opacity:0.21;clip-path:url(#XMLID_95_);}
	.st74{clip-path:url(#XMLID_91_);fill:none;stroke:#B58A28;stroke-width:2.7118;stroke-miterlimit:10;}
	.st75{clip-path:url(#XMLID_96_);}
	.st76{clip-path:url(#XMLID_97_);fill:none;stroke:#0C242D;stroke-width:3.627;stroke-miterlimit:10;}
	.st77{opacity:0.57;clip-path:url(#XMLID_98_);fill:none;stroke:#E2C991;stroke-width:3.627;stroke-miterlimit:10;}
	.st78{fill:none;stroke:#000000;stroke-width:2.7203;stroke-miterlimit:10;}
	.st79{fill:none;stroke:#000000;stroke-width:1.8135;stroke-miterlimit:10;}
	.st80{clip-path:url(#XMLID_99_);}
	.st81{clip-path:url(#XMLID_100_);fill:#D94700;}
	.st82{fill:none;stroke:#4E9687;stroke-width:1.8173;stroke-miterlimit:10;}
	.st83{opacity:4.000000e-02;clip-path:url(#XMLID_99_);}
	.st84{clip-path:url(#XMLID_101_);}
	.st85{opacity:0.2;clip-path:url(#XMLID_102_);}
	.st86{clip-path:url(#XMLID_103_);fill:#B55515;}
	.st87{fill:none;stroke:#000000;stroke-width:5.4295;stroke-miterlimit:10;}
	.st88{fill:none;stroke:#B55515;stroke-width:2.7148;stroke-miterlimit:10;}
	.st89{opacity:4.000000e-02;clip-path:url(#XMLID_101_);}
	.st90{clip-path:url(#XMLID_104_);}
	.st91{opacity:0.12;clip-path:url(#XMLID_105_);}
	.st92{opacity:0.24;clip-path:url(#XMLID_105_);}
	.st93{opacity:0.11;clip-path:url(#XMLID_106_);}
	.st94{fill:none;stroke:#000000;stroke-width:2.7114;stroke-miterlimit:10;}
	.st95{fill:none;stroke:#FF2400;stroke-width:5.4227;stroke-miterlimit:10;}
	.st96{opacity:0.12;clip-path:url(#XMLID_107_);}
	.st97{opacity:4.000000e-02;clip-path:url(#XMLID_104_);}
</style>
<g>
	<defs>
		<circle id="XMLID_37_" cx="160.3" cy="151.5" r="139.9"/>
	</defs>
	<use xlink:href="#XMLID_37_"  style="overflow:visible;fill:#D04200;"/>
	<clipPath id="XMLID_55_">
		<use xlink:href="#XMLID_37_"  style="overflow:visible;"/>
	</clipPath>
	<g class="st0">
		<path class="st12" d="M159.1,442.1L159.1,442.1c-51.3,0-93.3-42-93.3-93.3v-54.5c0-51.3,42-93.3,93.3-93.3h0
			c51.3,0,93.3,42,93.3,93.3v54.5C252.3,400.1,210.3,442.1,159.1,442.1z"/>
		<polygon class="st4" points="177.4,201.1 159.1,232.3 140.7,201.1 140.7,177 177.4,177 		"/>
		<g>
			<defs>
				<path id="XMLID_39_" d="M107.9,80.4c0,0-13.7-7.2-20,10.5c-6.3,17.7,1.8,48,10,58.4s11.7,23.5,10,41.7
					C106.1,209.2,97,229,97,229l11.3,10.4c0,0,19.7-22.4,19.7-42.7s0.6-42.5,0.6-42.5"/>
			</defs>
			<use xlink:href="#XMLID_39_"  style="overflow:visible;fill:#E2C991;"/>
			<clipPath id="XMLID_56_">
				<use xlink:href="#XMLID_39_"  style="overflow:visible;"/>
			</clipPath>
			<path style="opacity:0.1;clip-path:url(#XMLID_56_);" d="M105.5,77.1c0,0-12,18.1-5.8,45.7s30.4,51.9,30.4,51.9l4.6-44.6
				L105.5,77.1z"/>
		</g>
		<g>
			<defs>
				<path id="XMLID_38_" d="M209.4,83.1c0,0,8.1-8.7,13.5-6.3c13.4,6,0.2,32.7-5.5,46.2c-6,14.2-10.7,28.9-13.8,41.4
					c-3.1,12.5-3,38.6,5.8,48.5c-7.9,13-7.9,13-7.9,13s-7.8-12.1-12-24.8c-4.2-12.7-8.2-46.5-8.2-46.5"/>
			</defs>
			<use xlink:href="#XMLID_38_"  style="overflow:visible;fill:#E2C991;"/>
			<clipPath id="XMLID_57_">
				<use xlink:href="#XMLID_38_"  style="overflow:visible;"/>
			</clipPath>
			<path style="opacity:0.1;clip-path:url(#XMLID_57_);" d="M181.9,168.7c0,0,22-13.1,30.5-45.8c8.4-32.7-3.7-71.1-3.7-71.1
				L180.1,97L181.9,168.7z"/>
		</g>
		<path class="st3" d="M162.8,44.9h-9.7c-25.6,0-46.6,21-46.6,46.6v23.1c0,14.1,6.4,26.8,16.4,35.4l0,0v0c1.8,1.5,3.7,3,5.7,4.2
			c3.8,3.4,8.1,8.8,8.1,15.6c0,12.3-0.6,32,21.2,31.1c23.6-0.9,23.9-25.3,24-34.7c0.1-5.8,4.4-10.8,7.7-13.7
			c1.2-0.9,2.4-1.8,3.5-2.8l0,0l0,0c9.9-8.6,16.2-21.2,16.2-35.3V91.5C209.4,65.9,188.4,44.9,162.8,44.9z"/>
		<circle cx="125.9" cy="105.4" r="7.8"/>
		<circle cx="173.6" cy="105.4" r="7.8"/>
		<circle cx="144.6" cy="124.6" r="2.9"/>
		<circle cx="159.1" cy="123" r="2.9"/>
		
			<ellipse transform="matrix(0.9937 -0.1122 0.1122 0.9937 -16.3769 18.0897)" class="st16" cx="152.5" cy="154.5" rx="9.4" ry="15.2"/>
		<rect x="151.3" y="11.6" class="st6" width="160.2" height="346"/>
		<path class="st17" d="M109.8,209.3c0,0,21.7-4.5,28.2,13.6c-10.4,19-37.3,42.8-42.1,73.6c-4.9,30.8-30.5,58.5-37,39
			c-6.5-19.5,4.1-36.5,4.1-60.1S90.2,206.5,109.8,209.3z"/>
		<path class="st17" d="M207.7,205.4c0,0-20.3,9.7-20.3,21.2C212.5,251.3,237,326,241,338.2c4,12.2,17.9,10.1,17.9-11.6
			c0-21.7-0.8-46.9-9.7-76.9S207.7,205.4,207.7,205.4z"/>
	</g>
</g>
</svg>
