<?xml version="1.0" encoding="utf-8"?>
<!-- Generator: Adobe Illustrator 22.1.0, SVG Export Plug-In . SVG Version: 6.00 Build 0)  -->
<svg version="1.1" id="Layer_1" xmlns="http://www.w3.org/2000/svg" xmlns:xlink="http://www.w3.org/1999/xlink" x="0px" y="0px"
	 viewBox="0 0 302.5 302.5" style="enable-background:new 0 0 302.5 302.5;" xml:space="preserve">
<style type="text/css">
	.st0{fill:#D94700;}
	.st1{clip-path:url(#SVGID_3_);}
	.st2{fill:#1F3139;}
	.st3{fill:#D6BB85;}
	.st4{fill:#E2C991;}
	.st5{opacity:0.1;clip-path:url(#SVGID_5_);enable-background:new    ;}
	.st6{opacity:0.1;clip-path:url(#SVGID_7_);enable-background:new    ;}
	.st7{fill:#111D21;}
</style>
<g>
	<g>
		<rect id="SVGID_1_" class="st0" width="302.5" height="302.5"/>
	</g>
	<g>
		<defs>
			<rect id="SVGID_2_" width="302.5" height="302.5"/>
		</defs>
		<clipPath id="SVGID_3_">
			<use xlink:href="#SVGID_2_"  style="overflow:visible;"/>
		</clipPath>
		<g class="st1">
			<path class="st2" d="M152.5,415.9L152.5,415.9c-51.3,0-93.3-42-93.3-93.3v-54.5c0-51.3,42-93.3,93.3-93.3l0,0
				c51.3,0,93.3,42,93.3,93.3v54.5C245.8,374,203.8,415.9,152.5,415.9z"/>
			<polygon class="st3" points="170.9,175 152.5,206.2 134.1,174.9 134.1,150.9 170.9,150.9 			"/>
			<g>
				<g>
					<path id="XMLID_52_" class="st4" d="M101.3,54.2c0,0-13.7-7.2-20,10.5s1.8,48,10,58.4s11.7,23.5,10,41.7s-10.9,38.1-10.9,38.1
						l11.3,10.4c0,0,19.7-22.4,19.7-42.7s0.6-42.5,0.6-42.5"/>
				</g>
				<g>
					<defs>
						<path id="SVGID_4_" d="M101.3,54.2c0,0-13.7-7.2-20,10.5s1.8,48,10,58.4s11.7,23.5,10,41.7s-10.9,38.1-10.9,38.1l11.3,10.4
							c0,0,19.7-22.4,19.7-42.7s0.6-42.5,0.6-42.5"/>
					</defs>
					<clipPath id="SVGID_5_">
						<use xlink:href="#SVGID_4_"  style="overflow:visible;"/>
					</clipPath>
					<path class="st5" d="M99,51c0,0-12,18.1-5.8,45.7c6.1,27.7,30.4,51.9,30.4,51.9l4.6-44.6L99,51z"/>
				</g>
				<g>
					<path id="XMLID_51_" class="st4" d="M202.9,56.9c0,0,8.1-8.7,13.5-6.3c13.4,6,0.2,32.7-5.5,46.2c-6,14.2-10.7,28.9-13.8,41.4
						s-3,38.6,5.8,48.5c-7.9,13-7.9,13-7.9,13s-7.8-12.1-12-24.8s-8.2-46.5-8.2-46.5"/>
				</g>
				<g>
					<defs>
						<path id="SVGID_6_" d="M202.9,56.9c0,0,8.1-8.7,13.5-6.3c13.4,6,0.2,32.7-5.5,46.2c-6,14.2-10.7,28.9-13.8,41.4
							s-3,38.6,5.8,48.5c-7.9,13-7.9,13-7.9,13s-7.8-12.1-12-24.8s-8.2-46.5-8.2-46.5"/>
					</defs>
					<clipPath id="SVGID_7_">
						<use xlink:href="#SVGID_6_"  style="overflow:visible;"/>
					</clipPath>
					<path class="st6" d="M175.3,142.5c0,0,22-13.1,30.5-45.8c8.4-32.7-3.7-71.1-3.7-71.1l-28.6,45.2L175.3,142.5z"/>
				</g>
				<path class="st4" d="M156.3,18.8h-9.7c-25.6,0-46.6,21-46.6,46.6v23.1c0,14.1,6.4,26.8,16.4,35.4l0,0l0,0c1.8,1.5,3.7,3,5.7,4.2
					c3.8,3.4,8.1,8.8,8.1,15.6c0,12.3-0.6,32,21.2,31.1c23.6-0.9,23.9-25.3,24-34.7c0.1-5.8,4.4-10.8,7.7-13.7
					c1.2-0.9,2.4-1.8,3.5-2.8l0,0l0,0c9.9-8.6,16.2-21.2,16.2-35.3V65.4C202.9,39.8,181.9,18.8,156.3,18.8z"/>
				<path class="st7" d="M103.3,183.2c0,0,21.7-4.5,28.2,13.6c-10.4,19-37.3,42.8-42.1,73.6c-4.9,30.8-30.5,58.5-37,39
					s4.1-36.5,4.1-60.1S83.6,180.3,103.3,183.2z"/>
				<path class="st7" d="M201.1,179.3c0,0-20.3,9.7-20.3,21.2c25.2,24.6,49.6,99.3,53.6,111.5s17.9,10.1,17.9-11.6
					s-0.8-46.9-9.7-76.9C233.6,193.5,201.1,179.3,201.1,179.3z"/>
			</g>
		</g>
	</g>
</g>
</svg>
