<?xml version="1.0" encoding="utf-8"?>
<!-- Generator: Adobe Illustrator 22.1.0, SVG Export Plug-In . SVG Version: 6.00 Build 0)  -->
<svg version="1.1" id="Layer_1" xmlns="http://www.w3.org/2000/svg" xmlns:xlink="http://www.w3.org/1999/xlink" x="0px" y="0px"
	 viewBox="0 0 303 303" style="enable-background:new 0 0 303 303;" xml:space="preserve">
<style type="text/css">
	.st0{clip-path:url(#XMLID_55_);}
	.st1{clip-path:url(#XMLID_56_);fill:none;stroke:#0C242D;stroke-width:4;stroke-miterlimit:10;}
	.st2{opacity:0.57;clip-path:url(#XMLID_57_);fill:none;stroke:#E2C991;stroke-width:4;stroke-miterlimit:10;}
	.st3{fill:#E2C991;}
	.st4{fill:#D6BB85;}
	.st5{fill:none;stroke:#000000;stroke-width:3;stroke-miterlimit:10;}
	.st6{opacity:4.000000e-02;}
	.st7{fill:#132126;}
	.st8{opacity:9.000000e-02;}
	.st9{fill:none;stroke:#000000;stroke-width:2;stroke-miterlimit:10;}
	.st10{clip-path:url(#XMLID_58_);fill:none;stroke:#0C242D;stroke-width:4;stroke-miterlimit:10;}
	.st11{opacity:0.57;clip-path:url(#XMLID_59_);fill:none;stroke:#E2C991;stroke-width:4;stroke-miterlimit:10;}
	.st12{fill:#1F3139;}
	.st13{opacity:0.1;clip-path:url(#XMLID_60_);}
	.st14{opacity:0.1;clip-path:url(#XMLID_61_);}
	.st15{fill:none;stroke:#EFAF00;stroke-width:5;stroke-miterlimit:10;}
	.st16{fill:#6D5525;}
	.st17{fill:#111D21;}
	.st18{clip-path:url(#XMLID_62_);}
	.st19{opacity:0.1;clip-path:url(#XMLID_63_);}
	.st20{opacity:0.1;clip-path:url(#XMLID_64_);}
	.st21{fill:#AA936B;}
	.st22{opacity:0.11;clip-path:url(#XMLID_65_);}
	.st23{clip-path:url(#XMLID_66_);fill:#FFFFFF;}
	.st24{opacity:0.14;clip-path:url(#XMLID_67_);}
	.st25{fill:none;stroke:#000000;stroke-width:5;stroke-miterlimit:10;}
	.st26{opacity:0.21;clip-path:url(#XMLID_68_);}
	.st27{clip-path:url(#XMLID_69_);}
	.st28{opacity:0.11;clip-path:url(#XMLID_70_);}
	.st29{clip-path:url(#XMLID_70_);fill:none;stroke:#B58A28;stroke-width:3;stroke-miterlimit:10;}
	.st30{clip-path:url(#XMLID_71_);fill:#FFFFFF;}
	.st31{opacity:0.14;clip-path:url(#XMLID_72_);}
	.st32{opacity:0.21;clip-path:url(#XMLID_73_);}
	.st33{clip-path:url(#XMLID_69_);fill:none;stroke:#B58A28;stroke-width:3;stroke-miterlimit:10;}
	.st34{fill:#CEB382;}
	.st35{clip-path:url(#XMLID_74_);fill:#D94700;}
	.st36{fill:#4E9687;}
	.st37{fill:none;stroke:#4E9687;stroke-width:2;stroke-miterlimit:10;}
	.st38{clip-path:url(#XMLID_75_);}
	.st39{clip-path:url(#XMLID_76_);fill:#D94700;}
	.st40{opacity:4.000000e-02;clip-path:url(#XMLID_75_);}
	.st41{fill:#B55515;}
	.st42{opacity:0.2;clip-path:url(#XMLID_77_);}
	.st43{fill:#FFFFFF;}
	.st44{fill:none;stroke:#000000;stroke-width:6;stroke-miterlimit:10;}
	.st45{clip-path:url(#XMLID_78_);}
	.st46{opacity:0.2;clip-path:url(#XMLID_79_);}
	.st47{clip-path:url(#XMLID_80_);fill:#B55515;}
	.st48{fill:none;stroke:#B55515;stroke-width:3;stroke-miterlimit:10;}
	.st49{opacity:4.000000e-02;clip-path:url(#XMLID_78_);}
	.st50{opacity:0.12;clip-path:url(#XMLID_81_);}
	.st51{opacity:0.24;clip-path:url(#XMLID_81_);}
	.st52{opacity:0.11;clip-path:url(#XMLID_82_);}
	.st53{fill:none;stroke:#FF2400;stroke-width:6;stroke-miterlimit:10;}
	.st54{opacity:0.12;clip-path:url(#XMLID_83_);}
	.st55{fill:#B6D4E3;}
	.st56{clip-path:url(#XMLID_84_);}
	.st57{opacity:0.12;clip-path:url(#XMLID_85_);}
	.st58{opacity:0.24;clip-path:url(#XMLID_85_);}
	.st59{opacity:0.11;clip-path:url(#XMLID_86_);}
	.st60{opacity:0.12;clip-path:url(#XMLID_87_);}
	.st61{fill:#89CEE8;}
	.st62{opacity:4.000000e-02;clip-path:url(#XMLID_84_);}
	.st63{clip-path:url(#XMLID_88_);}
	.st64{opacity:0.1;clip-path:url(#XMLID_89_);}
	.st65{opacity:0.1;clip-path:url(#XMLID_90_);}
	.st66{fill:none;stroke:#EFAF00;stroke-width:4.5338;stroke-miterlimit:10;}
	.st67{clip-path:url(#XMLID_91_);}
	.st68{opacity:0.11;clip-path:url(#XMLID_92_);}
	.st69{clip-path:url(#XMLID_92_);fill:none;stroke:#B58A28;stroke-width:2.7118;stroke-miterlimit:10;}
	.st70{clip-path:url(#XMLID_93_);fill:#FFFFFF;}
	.st71{opacity:0.14;clip-path:url(#XMLID_94_);}
	.st72{fill:none;stroke:#000000;stroke-width:2.7118;stroke-miterlimit:10;}
	.st73{opacity:0.21;clip-path:url(#XMLID_95_);}
	.st74{clip-path:url(#XMLID_91_);fill:none;stroke:#B58A28;stroke-width:2.7118;stroke-miterlimit:10;}
	.st75{clip-path:url(#XMLID_96_);}
	.st76{clip-path:url(#XMLID_97_);fill:none;stroke:#0C242D;stroke-width:3.627;stroke-miterlimit:10;}
	.st77{opacity:0.57;clip-path:url(#XMLID_98_);fill:none;stroke:#E2C991;stroke-width:3.627;stroke-miterlimit:10;}
	.st78{fill:none;stroke:#000000;stroke-width:2.7203;stroke-miterlimit:10;}
	.st79{fill:none;stroke:#000000;stroke-width:1.8135;stroke-miterlimit:10;}
	.st80{clip-path:url(#XMLID_99_);}
	.st81{clip-path:url(#XMLID_100_);fill:#D94700;}
	.st82{fill:none;stroke:#4E9687;stroke-width:1.8173;stroke-miterlimit:10;}
	.st83{opacity:4.000000e-02;clip-path:url(#XMLID_99_);}
	.st84{clip-path:url(#XMLID_101_);}
	.st85{opacity:0.2;clip-path:url(#XMLID_102_);}
	.st86{clip-path:url(#XMLID_103_);fill:#B55515;}
	.st87{fill:none;stroke:#000000;stroke-width:5.4295;stroke-miterlimit:10;}
	.st88{fill:none;stroke:#B55515;stroke-width:2.7148;stroke-miterlimit:10;}
	.st89{opacity:4.000000e-02;clip-path:url(#XMLID_101_);}
	.st90{clip-path:url(#XMLID_104_);}
	.st91{opacity:0.12;clip-path:url(#XMLID_105_);}
	.st92{opacity:0.24;clip-path:url(#XMLID_105_);}
	.st93{opacity:0.11;clip-path:url(#XMLID_106_);}
	.st94{fill:none;stroke:#000000;stroke-width:2.7114;stroke-miterlimit:10;}
	.st95{fill:none;stroke:#FF2400;stroke-width:5.4227;stroke-miterlimit:10;}
	.st96{opacity:0.12;clip-path:url(#XMLID_107_);}
	.st97{opacity:4.000000e-02;clip-path:url(#XMLID_104_);}
</style>
<g>
	<defs>
		<circle id="XMLID_45_" cx="-193.6" cy="151.5" r="140.2"/>
	</defs>
	<use xlink:href="#XMLID_45_"  style="overflow:visible;fill:#E5D9C1;"/>
	<clipPath id="XMLID_55_">
		<use xlink:href="#XMLID_45_"  style="overflow:visible;"/>
	</clipPath>
	<rect x="-198.7" y="-62.1" style="opacity:4.000000e-02;clip-path:url(#XMLID_55_);" width="202.4" height="437.2"/>
</g>
<g>
	<defs>
		<circle id="XMLID_47_" cx="151.5" cy="151.5" r="139.7"/>
	</defs>
	<use xlink:href="#XMLID_47_"  style="overflow:visible;fill:#692E47;"/>
	<clipPath id="XMLID_56_">
		<use xlink:href="#XMLID_47_"  style="overflow:visible;"/>
	</clipPath>
	<g style="clip-path:url(#XMLID_56_);">
		<path class="st41" d="M200.6,143.1c0,0,3.3,7.1,0,16.6c-3.3,9.5-17.5,12.2-17.5,12.2l5.5-22.8L200.6,143.1z"/>
		<path class="st4" d="M188.4,151c0,0,9,0,15.2-10.2c6.2-10.2,5.6-21.1-1.9-22.8c-7.4-1.7-15.1,9.8-15.1,9.8L188.4,151z"/>
		<g>
			<defs>
				<path id="XMLID_49_" d="M292.1,257.8c0-1.3-37.7-55.9-59.7-64.7c-22-8.8-37-12.3-37-12.3l-7.3-15.3l-84.6,8l3.9,16.4
					c0,0-6.7,9-14.5,12c-7.8,3-37.7,10.9-42.5,27.6S23.9,350.2,23.9,350.2h266.5L292.1,257.8z"/>
			</defs>
			<use xlink:href="#XMLID_49_"  style="overflow:visible;fill:#1F3139;"/>
			<clipPath id="XMLID_57_">
				<use xlink:href="#XMLID_49_"  style="overflow:visible;"/>
			</clipPath>
			<path style="opacity:0.2;clip-path:url(#XMLID_57_);" d="M189.5,153.4c0,0,0.5,42.5,0,50.7c-0.5,8.2-27.7,32.3-27.7,32.3h-11.5
				v10c0,0-13.5,11.8-21.2,15.9c-7.7,4.1-9.8,38.6-9.8,38.6l-3.3,52.2l1.9-97.1L189.5,153.4z"/>
			<path style="opacity:0.2;clip-path:url(#XMLID_57_);" d="M108.6,179.3l-15.8,29.5l7.9,9.6l-7.9,12.2c0,0,16.5,2.3,17.6,27.7
				c1.1,25.4,2,87.6,2,87.6s1.7-148.4,2.2-160.2C115.1,173.8,108.6,179.3,108.6,179.3z"/>
		</g>
		<polygon class="st43" points="173.5,190 118.1,255.5 113.4,194.1 		"/>
		<g>
			<defs>
				<path id="XMLID_48_" d="M145.3,202H136c-24.4,0-44.4-20-44.4-44.4v-77c0-24.4,20-44.4,44.4-44.4h9.3c24.4,0,44.4,20,44.4,44.4
					v77C189.7,182,169.7,202,145.3,202z"/>
			</defs>
			<use xlink:href="#XMLID_48_"  style="overflow:visible;fill:#E2C991;"/>
			<clipPath id="XMLID_58_">
				<use xlink:href="#XMLID_48_"  style="overflow:visible;"/>
			</clipPath>
			<path style="clip-path:url(#XMLID_58_);fill:#B55515;" d="M89.1,167.2c0,0,9.7-12.5,25.3-11.9c15.6,0.6,29.4,10.6,29.4,10.6
				s48-23.8,48-43.2c0,32.5,6.1,59.7-30.5,79.8S88,184.9,89.1,167.2z"/>
		</g>
		<circle cx="144.5" cy="116" r="6"/>
		<circle cx="103.7" cy="116.1" r="5.4"/>
		<path class="st87" d="M107.4,167.7c0,0,5.9-2.2,11.5-2.2c5.6,0,12.7,2.2,12.7,2.2"/>
		<path class="st41" d="M96.8,61.6c0,0,6.8-8.7,28-10.3s46.8-0.5,55.8,37.5c9,37.9,9,37.9,9,37.9s21.6,4.8,22.1-6.8
			s2.9-40-14.1-61.8s-43.1-28.8-62.7-22.7S106.6,45.5,96.8,61.6z"/>
		<path class="st88" d="M110.8,100.5c-2.2-4.7-11.1-6.1-15.6-5.9"/>
		<path class="st88" d="M133.7,100.5c0,0,5.6-5.1,12.3-5.9c6.7-0.8,10,2.9,10,2.9"/>
	</g>
	<rect x="120" y="-66.2" style="opacity:4.000000e-02;clip-path:url(#XMLID_56_);" width="201.5" height="435.4"/>
</g>
</svg>
