<?xml version="1.0" encoding="utf-8"?>
<!-- Generator: Adobe Illustrator 22.1.0, SVG Export Plug-In . SVG Version: 6.00 Build 0)  -->
<svg version="1.1" id="Layer_1" xmlns="http://www.w3.org/2000/svg" xmlns:xlink="http://www.w3.org/1999/xlink" x="0px" y="0px"
	 viewBox="0 0 302.5 302.5" style="enable-background:new 0 0 302.5 302.5;" xml:space="preserve">
<style type="text/css">
	.st0{clip-path:url(#XMLID_61_);}
	.st1{clip-path:url(#XMLID_67_);fill:none;stroke:#0C242D;stroke-width:4;stroke-miterlimit:10;}
	.st2{opacity:0.57;clip-path:url(#XMLID_68_);fill:none;stroke:#E2C991;stroke-width:4;stroke-miterlimit:10;}
	.st3{fill:#E2C991;}
	.st4{fill:#D6BB85;}
	.st5{fill:none;stroke:#000000;stroke-width:3;stroke-miterlimit:10;}
	.st6{opacity:4.000000e-02;}
	.st7{fill:#132126;}
	.st8{opacity:9.000000e-02;}
	.st9{fill:none;stroke:#000000;stroke-width:2;stroke-miterlimit:10;}
	.st10{clip-path:url(#XMLID_69_);fill:none;stroke:#0C242D;stroke-width:4;stroke-miterlimit:10;}
	.st11{opacity:0.57;clip-path:url(#XMLID_70_);fill:none;stroke:#E2C991;stroke-width:4;stroke-miterlimit:10;}
	.st12{fill:#1F3139;}
	.st13{opacity:0.1;clip-path:url(#XMLID_71_);}
	.st14{opacity:0.1;clip-path:url(#XMLID_72_);}
	.st15{fill:none;stroke:#EFAF00;stroke-width:5;stroke-miterlimit:10;}
	.st16{fill:#6D5525;}
	.st17{fill:#111D21;}
	.st18{clip-path:url(#XMLID_73_);}
	.st19{opacity:0.1;clip-path:url(#XMLID_74_);}
	.st20{opacity:0.1;clip-path:url(#XMLID_75_);}
	.st21{fill:#AA936B;}
	.st22{opacity:0.11;clip-path:url(#XMLID_76_);}
	.st23{clip-path:url(#XMLID_77_);fill:#FFFFFF;}
	.st24{opacity:0.14;clip-path:url(#XMLID_78_);}
	.st25{fill:none;stroke:#000000;stroke-width:5;stroke-miterlimit:10;}
	.st26{opacity:0.21;clip-path:url(#XMLID_79_);}
	.st27{clip-path:url(#XMLID_80_);}
	.st28{opacity:0.11;clip-path:url(#XMLID_81_);}
	.st29{clip-path:url(#XMLID_81_);fill:none;stroke:#B58A28;stroke-width:3;stroke-miterlimit:10;}
	.st30{clip-path:url(#XMLID_82_);fill:#FFFFFF;}
	.st31{opacity:0.14;clip-path:url(#XMLID_83_);}
	.st32{opacity:0.21;clip-path:url(#XMLID_84_);}
	.st33{clip-path:url(#XMLID_80_);fill:none;stroke:#B58A28;stroke-width:3;stroke-miterlimit:10;}
	.st34{fill:#CEB382;}
	.st35{clip-path:url(#XMLID_85_);fill:#D94700;}
	.st36{fill:#4E9687;}
	.st37{fill:none;stroke:#4E9687;stroke-width:2;stroke-miterlimit:10;}
	.st38{clip-path:url(#XMLID_86_);}
	.st39{clip-path:url(#XMLID_87_);fill:#D94700;}
	.st40{opacity:4.000000e-02;clip-path:url(#XMLID_86_);}
	.st41{fill:#B55515;}
	.st42{opacity:0.2;clip-path:url(#XMLID_88_);}
	.st43{fill:#FFFFFF;}
	.st44{fill:none;stroke:#000000;stroke-width:6;stroke-miterlimit:10;}
	.st45{clip-path:url(#XMLID_89_);}
	.st46{opacity:0.2;clip-path:url(#XMLID_90_);}
	.st47{clip-path:url(#XMLID_91_);fill:#B55515;}
	.st48{fill:none;stroke:#B55515;stroke-width:3;stroke-miterlimit:10;}
	.st49{opacity:4.000000e-02;clip-path:url(#XMLID_89_);}
	.st50{opacity:0.12;clip-path:url(#XMLID_92_);}
	.st51{opacity:0.24;clip-path:url(#XMLID_92_);}
	.st52{opacity:0.11;clip-path:url(#XMLID_93_);}
	.st53{fill:none;stroke:#FF2400;stroke-width:6;stroke-miterlimit:10;}
	.st54{opacity:0.12;clip-path:url(#XMLID_94_);}
	.st55{fill:#B6D4E3;}
	.st56{clip-path:url(#XMLID_95_);}
	.st57{opacity:0.12;clip-path:url(#XMLID_96_);}
	.st58{opacity:0.24;clip-path:url(#XMLID_96_);}
	.st59{opacity:0.11;clip-path:url(#XMLID_97_);}
	.st60{opacity:0.12;clip-path:url(#XMLID_98_);}
	.st61{fill:#89CEE8;}
	.st62{opacity:4.000000e-02;clip-path:url(#XMLID_95_);}
	.st63{clip-path:url(#XMLID_99_);}
	.st64{opacity:0.1;clip-path:url(#XMLID_100_);}
	.st65{opacity:0.1;clip-path:url(#XMLID_101_);}
	.st66{fill:none;stroke:#EFAF00;stroke-width:4.5338;stroke-miterlimit:10;}
	.st67{clip-path:url(#XMLID_102_);}
	.st68{opacity:0.11;clip-path:url(#XMLID_103_);}
	.st69{clip-path:url(#XMLID_103_);fill:none;stroke:#B58A28;stroke-width:2.7118;stroke-miterlimit:10;}
	.st70{clip-path:url(#XMLID_104_);fill:#FFFFFF;}
	.st71{opacity:0.14;clip-path:url(#XMLID_105_);}
	.st72{fill:none;stroke:#000000;stroke-width:2.7118;stroke-miterlimit:10;}
	.st73{opacity:0.21;clip-path:url(#XMLID_106_);}
	.st74{clip-path:url(#XMLID_102_);fill:none;stroke:#B58A28;stroke-width:2.7118;stroke-miterlimit:10;}
	.st75{clip-path:url(#XMLID_107_);}
	.st76{clip-path:url(#XMLID_108_);fill:none;stroke:#0C242D;stroke-width:3.627;stroke-miterlimit:10;}
	.st77{opacity:0.57;clip-path:url(#XMLID_109_);fill:none;stroke:#E2C991;stroke-width:3.627;stroke-miterlimit:10;}
	.st78{fill:none;stroke:#000000;stroke-width:2.7203;stroke-miterlimit:10;}
	.st79{fill:none;stroke:#000000;stroke-width:1.8135;stroke-miterlimit:10;}
	.st80{clip-path:url(#XMLID_110_);}
	.st81{clip-path:url(#XMLID_111_);fill:#D94700;}
	.st82{fill:none;stroke:#4E9687;stroke-width:1.8173;stroke-miterlimit:10;}
	.st83{opacity:4.000000e-02;clip-path:url(#XMLID_110_);}
	.st84{clip-path:url(#XMLID_112_);}
	.st85{opacity:0.2;clip-path:url(#XMLID_113_);}
	.st86{clip-path:url(#XMLID_114_);fill:#B55515;}
	.st87{fill:none;stroke:#000000;stroke-width:5.4295;stroke-miterlimit:10;}
	.st88{fill:none;stroke:#B55515;stroke-width:2.7148;stroke-miterlimit:10;}
	.st89{opacity:4.000000e-02;clip-path:url(#XMLID_112_);}
	.st90{clip-path:url(#SVGID_1_);}
	.st91{opacity:0.1;clip-path:url(#XMLID_115_);}
	.st92{opacity:0.1;clip-path:url(#XMLID_116_);}
	.st93{clip-path:url(#XMLID_117_);}
	.st94{opacity:0.2;clip-path:url(#XMLID_118_);}
	.st95{clip-path:url(#XMLID_119_);fill:#B55515;}
	.st96{fill:none;stroke:#E2C991;stroke-width:3;stroke-miterlimit:10;}
	.st97{clip-path:url(#XMLID_120_);}
	.st98{opacity:0.11;clip-path:url(#XMLID_121_);}
	.st99{clip-path:url(#XMLID_122_);fill:#FFFFFF;}
	.st100{opacity:0.14;clip-path:url(#XMLID_123_);}
	.st101{opacity:0.21;clip-path:url(#XMLID_124_);}
	.st102{clip-path:url(#XMLID_125_);}
	.st103{clip-path:url(#XMLID_126_);fill:none;stroke:#0C242D;stroke-width:3.8745;stroke-miterlimit:10;}
	.st104{opacity:0.57;clip-path:url(#XMLID_127_);fill:none;stroke:#E2C991;stroke-width:3.8745;stroke-miterlimit:10;}
</style>
<g>
	<defs>
		<rect id="XMLID_50_" x="-0.2" width="302.5" height="302.5"/>
	</defs>
	<use xlink:href="#XMLID_50_"  style="overflow:visible;fill:#692E47;"/>
	<clipPath id="XMLID_61_">
		<use xlink:href="#XMLID_50_"  style="overflow:visible;"/>
	</clipPath>
	<g class="st0">
		<path class="st41" d="M190.2,168.3c0,0,3.5,7.7,0,18c-3.5,10.3-19,13.2-19,13.2l6-24.8L190.2,168.3z"/>
		<path class="st4" d="M176.9,176.9c0,0,9.8,0,16.5-11.1s6.1-23-2-24.8c-8.1-1.8-16.4,10.6-16.4,10.6L176.9,176.9z"/>
		<g>
			<defs>
				<path id="XMLID_52_" d="M289.7,293c0-1.4-41-60.8-64.9-70.3c-23.9-9.6-40.3-13.4-40.3-13.4l-7.9-16.6l-92,8.7l4.2,17.9
					c0,0-7.3,9.8-15.8,13.1c-8.5,3.3-41,11.9-46.3,30.1S-2.1,393.6-2.1,393.6h290L289.7,293z"/>
			</defs>
			<use xlink:href="#XMLID_52_"  style="overflow:visible;fill:#1F3139;"/>
			<clipPath id="XMLID_67_">
				<use xlink:href="#XMLID_52_"  style="overflow:visible;"/>
			</clipPath>
			<path style="opacity:0.2;clip-path:url(#XMLID_67_);" d="M178.1,179.4c0,0,0.5,46.2,0,55.1c-0.5,8.9-30.2,35.1-30.2,35.1h-12.5
				v10.9c0,0-14.7,12.8-23.1,17.3c-8.4,4.4-10.7,42-10.7,42L98,396.6l2.1-105.6L178.1,179.4z"/>
			<path style="opacity:0.2;clip-path:url(#XMLID_67_);" d="M90.1,207.6l-17.2,32.1l8.6,10.4l-8.6,13.3c0,0,17.9,2.5,19.1,30.1
				c1.2,27.7,2.2,95.3,2.2,95.3s1.8-161.5,2.4-174.3C97.1,201.7,90.1,207.6,90.1,207.6z"/>
		</g>
		<polygon class="st43" points="160.7,219.3 100.4,290.5 95.2,223.8 		"/>
		<g>
			<defs>
				<path id="XMLID_51_" d="M133.9,232.3h-17.9c-24.4,0-44.4-20-44.4-44.4V96.4c0-24.4,20-44.4,44.4-44.4h17.9
					c24.4,0,44.4,20,44.4,44.4v91.5C178.3,212.3,158.3,232.3,133.9,232.3z"/>
			</defs>
			<use xlink:href="#XMLID_51_"  style="overflow:visible;fill:#E2C991;"/>
			<clipPath id="XMLID_68_">
				<use xlink:href="#XMLID_51_"  style="overflow:visible;"/>
			</clipPath>
			<path style="clip-path:url(#XMLID_68_);fill:#B55515;" d="M68.8,194.5c0,0,10.6-13.6,27.6-12.9s32,11.5,32,11.5
				s52.2-25.9,52.2-47c0,35.4,6.6,65-33.2,86.9S67.6,213.8,68.8,194.5z"/>
		</g>
		<path class="st96" d="M88.7,195c0,0,6.4-2.4,12.5-2.4c6.1,0,13.8,2.4,13.8,2.4"/>
		<path class="st41" d="M76.2,75.5c0,0,7.4-9.4,30.5-11.2c23.1-1.8,50.9-0.5,60.7,40.7s9.8,41.2,9.8,41.2s23.5,5.2,24-7.4
			s3.1-43.5-15.4-67.3S138.9,40.3,117.6,47S86.9,57.9,76.2,75.5z"/>
	</g>
</g>
</svg>
