<?xml version="1.0" encoding="utf-8"?>
<!-- Generator: Adobe Illustrator 22.1.0, SVG Export Plug-In . SVG Version: 6.00 Build 0)  -->
<svg version="1.1" id="Layer_1" xmlns="http://www.w3.org/2000/svg" xmlns:xlink="http://www.w3.org/1999/xlink" x="0px" y="0px"
	 viewBox="0 0 108 91" style="enable-background:new 0 0 108 91;" xml:space="preserve">
<style type="text/css">
	.st0{fill:none;stroke:#000000;stroke-width:2.551;stroke-linecap:square;}
	.st1{fill:none;stroke:#000000;stroke-width:2.551;}
	.st2{opacity:0.44;fill:none;stroke:#FFFFFF;stroke-width:3.1534;stroke-linecap:square;}
	.st3{opacity:0.44;fill:none;stroke:#FFFFFF;stroke-width:2.551;stroke-linecap:square;}
</style>
<path id="W_1_" class="st3" d="M25.7,3.7v58.7c0,7,5.7,12.8,12.8,12.8c7,0,12.8-5.7,12.8-12.8V3.7 M20.6,3.7v58.7
	c0,9.9,8,17.9,17.9,17.9c6.3,0,11.8-3.2,14.9-8.1c1.8-2.8,2.9-6.2,2.9-9.8V3.7 M15.5,3.7v58.7c0,12.7,10.3,23,23,23
	c7.2,0,13.6-3.3,17.9-8.5c4.2,5.2,10.6,8.5,17.9,8.5c12.7,0,23-10.3,23-23V3.7 M61.4,3.7v58.7c0,7,5.7,12.8,12.8,12.8
	c7,0,12.8-5.7,12.8-12.8V3.7 M56.3,62.4c0,3.6,1.1,7,2.9,9.8c3.2,4.9,8.7,8.1,14.9,8.1c9.9,0,17.9-8,17.9-17.9V3.7"/>
</svg>
