<?xml version="1.0" encoding="utf-8"?>
<!-- Generator: Adobe Illustrator 22.1.0, SVG Export Plug-In . SVG Version: 6.00 Build 0)  -->
<svg version="1.1" id="Layer_1" xmlns="http://www.w3.org/2000/svg" xmlns:xlink="http://www.w3.org/1999/xlink" x="0px" y="0px"
	 viewBox="0 0 303 303" style="enable-background:new 0 0 303 303;" xml:space="preserve">
<style type="text/css">
	.st0{clip-path:url(#XMLID_55_);}
	.st1{clip-path:url(#XMLID_56_);fill:none;stroke:#0C242D;stroke-width:4;stroke-miterlimit:10;}
	.st2{opacity:0.57;clip-path:url(#XMLID_57_);fill:none;stroke:#E2C991;stroke-width:4;stroke-miterlimit:10;}
	.st3{fill:#E2C991;}
	.st4{fill:#D6BB85;}
	.st5{fill:none;stroke:#000000;stroke-width:3;stroke-miterlimit:10;}
	.st6{opacity:4.000000e-02;}
	.st7{fill:#132126;}
	.st8{opacity:9.000000e-02;}
	.st9{fill:none;stroke:#000000;stroke-width:2;stroke-miterlimit:10;}
	.st10{clip-path:url(#XMLID_58_);fill:none;stroke:#0C242D;stroke-width:4;stroke-miterlimit:10;}
	.st11{opacity:0.57;clip-path:url(#XMLID_59_);fill:none;stroke:#E2C991;stroke-width:4;stroke-miterlimit:10;}
	.st12{fill:#1F3139;}
	.st13{opacity:0.1;clip-path:url(#XMLID_60_);}
	.st14{opacity:0.1;clip-path:url(#XMLID_61_);}
	.st15{fill:none;stroke:#EFAF00;stroke-width:5;stroke-miterlimit:10;}
	.st16{fill:#6D5525;}
	.st17{fill:#111D21;}
	.st18{clip-path:url(#XMLID_62_);}
	.st19{opacity:0.1;clip-path:url(#XMLID_63_);}
	.st20{opacity:0.1;clip-path:url(#XMLID_64_);}
	.st21{fill:#AA936B;}
	.st22{opacity:0.11;clip-path:url(#XMLID_65_);}
	.st23{clip-path:url(#XMLID_66_);fill:#FFFFFF;}
	.st24{opacity:0.14;clip-path:url(#XMLID_67_);}
	.st25{fill:none;stroke:#000000;stroke-width:5;stroke-miterlimit:10;}
	.st26{opacity:0.21;clip-path:url(#XMLID_68_);}
	.st27{clip-path:url(#XMLID_69_);}
	.st28{opacity:0.11;clip-path:url(#XMLID_70_);}
	.st29{clip-path:url(#XMLID_70_);fill:none;stroke:#B58A28;stroke-width:3;stroke-miterlimit:10;}
	.st30{clip-path:url(#XMLID_71_);fill:#FFFFFF;}
	.st31{opacity:0.14;clip-path:url(#XMLID_72_);}
	.st32{opacity:0.21;clip-path:url(#XMLID_73_);}
	.st33{clip-path:url(#XMLID_69_);fill:none;stroke:#B58A28;stroke-width:3;stroke-miterlimit:10;}
	.st34{fill:#CEB382;}
	.st35{clip-path:url(#XMLID_74_);fill:#D94700;}
	.st36{fill:#4E9687;}
	.st37{fill:none;stroke:#4E9687;stroke-width:2;stroke-miterlimit:10;}
	.st38{clip-path:url(#XMLID_75_);}
	.st39{clip-path:url(#XMLID_76_);fill:#D94700;}
	.st40{opacity:4.000000e-02;clip-path:url(#XMLID_75_);}
	.st41{fill:#B55515;}
	.st42{opacity:0.2;clip-path:url(#XMLID_77_);}
	.st43{fill:#FFFFFF;}
	.st44{fill:none;stroke:#000000;stroke-width:6;stroke-miterlimit:10;}
	.st45{clip-path:url(#XMLID_78_);}
	.st46{opacity:0.2;clip-path:url(#XMLID_79_);}
	.st47{clip-path:url(#XMLID_80_);fill:#B55515;}
	.st48{fill:none;stroke:#B55515;stroke-width:3;stroke-miterlimit:10;}
	.st49{opacity:4.000000e-02;clip-path:url(#XMLID_78_);}
	.st50{opacity:0.12;clip-path:url(#XMLID_81_);}
	.st51{opacity:0.24;clip-path:url(#XMLID_81_);}
	.st52{opacity:0.11;clip-path:url(#XMLID_82_);}
	.st53{fill:none;stroke:#FF2400;stroke-width:6;stroke-miterlimit:10;}
	.st54{opacity:0.12;clip-path:url(#XMLID_83_);}
	.st55{fill:#B6D4E3;}
	.st56{clip-path:url(#XMLID_84_);}
	.st57{opacity:0.12;clip-path:url(#XMLID_85_);}
	.st58{opacity:0.24;clip-path:url(#XMLID_85_);}
	.st59{opacity:0.11;clip-path:url(#XMLID_86_);}
	.st60{opacity:0.12;clip-path:url(#XMLID_87_);}
	.st61{fill:#89CEE8;}
	.st62{opacity:4.000000e-02;clip-path:url(#XMLID_84_);}
	.st63{clip-path:url(#XMLID_88_);}
	.st64{opacity:0.1;clip-path:url(#XMLID_89_);}
	.st65{opacity:0.1;clip-path:url(#XMLID_90_);}
	.st66{fill:none;stroke:#EFAF00;stroke-width:4.5338;stroke-miterlimit:10;}
	.st67{clip-path:url(#XMLID_91_);}
	.st68{opacity:0.11;clip-path:url(#XMLID_92_);}
	.st69{clip-path:url(#XMLID_92_);fill:none;stroke:#B58A28;stroke-width:2.7118;stroke-miterlimit:10;}
	.st70{clip-path:url(#XMLID_93_);fill:#FFFFFF;}
	.st71{opacity:0.14;clip-path:url(#XMLID_94_);}
	.st72{fill:none;stroke:#000000;stroke-width:2.7118;stroke-miterlimit:10;}
	.st73{opacity:0.21;clip-path:url(#XMLID_95_);}
	.st74{clip-path:url(#XMLID_91_);fill:none;stroke:#B58A28;stroke-width:2.7118;stroke-miterlimit:10;}
	.st75{clip-path:url(#XMLID_96_);}
	.st76{clip-path:url(#XMLID_97_);fill:none;stroke:#0C242D;stroke-width:3.627;stroke-miterlimit:10;}
	.st77{opacity:0.57;clip-path:url(#XMLID_98_);fill:none;stroke:#E2C991;stroke-width:3.627;stroke-miterlimit:10;}
	.st78{fill:none;stroke:#000000;stroke-width:2.7203;stroke-miterlimit:10;}
	.st79{fill:none;stroke:#000000;stroke-width:1.8135;stroke-miterlimit:10;}
	.st80{clip-path:url(#XMLID_99_);}
	.st81{clip-path:url(#XMLID_100_);fill:#D94700;}
	.st82{fill:none;stroke:#4E9687;stroke-width:1.8173;stroke-miterlimit:10;}
	.st83{opacity:4.000000e-02;clip-path:url(#XMLID_99_);}
	.st84{clip-path:url(#XMLID_101_);}
	.st85{opacity:0.2;clip-path:url(#XMLID_102_);}
	.st86{clip-path:url(#XMLID_103_);fill:#B55515;}
	.st87{fill:none;stroke:#000000;stroke-width:5.4295;stroke-miterlimit:10;}
	.st88{fill:none;stroke:#B55515;stroke-width:2.7148;stroke-miterlimit:10;}
	.st89{opacity:4.000000e-02;clip-path:url(#XMLID_101_);}
	.st90{clip-path:url(#XMLID_104_);}
	.st91{opacity:0.12;clip-path:url(#XMLID_105_);}
	.st92{opacity:0.24;clip-path:url(#XMLID_105_);}
	.st93{opacity:0.11;clip-path:url(#XMLID_106_);}
	.st94{fill:none;stroke:#000000;stroke-width:2.7114;stroke-miterlimit:10;}
	.st95{fill:none;stroke:#FF2400;stroke-width:5.4227;stroke-miterlimit:10;}
	.st96{opacity:0.12;clip-path:url(#XMLID_107_);}
	.st97{opacity:4.000000e-02;clip-path:url(#XMLID_104_);}
</style>
<g>
	<defs>
		<circle id="XMLID_50_" cx="151.5" cy="151.5" r="139.5"/>
	</defs>
	<use xlink:href="#XMLID_50_"  style="overflow:visible;fill:#4E9687;"/>
	<clipPath id="XMLID_55_">
		<use xlink:href="#XMLID_50_"  style="overflow:visible;"/>
	</clipPath>
	<g class="st0">
		<rect x="113" y="182.6" class="st34" width="68.1" height="85.8"/>
		<g>
			<defs>
				<path id="XMLID_53_" d="M84.2,193.2c0,0-11-12.3-12.6-23.1c-1.5-10.8,0.8-12.1-6.6-22.3s9.6-33.3,9.6-33.3s-8.4-14.7-3-30.1
					C77,69,96.7,56.3,101.7,54.4c5-1.9,7.3-11.2,28.9-8.5s25.4-2.9,34.7-0.5s25.1,12.8,27,20.9c1.9,8.1,9.3,6.6,18.1,7.3
					c8.9,0.8,20.4,10.8,21.2,18.9s1.2,17,2.7,23.9c1.5,6.9,6.6,4.6,5,15.4c-1.5,10.8-4.2,9.3-4.2,24.7s2.3,21.2-0.8,24.7
					c-3.1,3.5-16.2,15.8-20.4,23.5c-4.2,7.7-1.9,15.4-10,17s-18.9-5.4-18.9-5.4l-74.5,12.5c0,0-1.5,4.1-8,2.6
					c-6.6-1.5-5.4-5.8-12.7-13.5c-7.3-7.7-10-11.2-10-15.8S84.2,193.2,84.2,193.2z"/>
			</defs>
			<use xlink:href="#XMLID_53_"  style="overflow:visible;fill:#FFE61F;"/>
			<clipPath id="XMLID_56_">
				<use xlink:href="#XMLID_53_"  style="overflow:visible;"/>
			</clipPath>
			<path style="opacity:0.12;clip-path:url(#XMLID_56_);" d="M113.8,24.6c-12.4,21.3-28.2,73.9-25,104.1s25.6,97.9,7.3,117
				s-125.4-8-125.4-59.2S-5.5,51.2,34,40.6S113.8,24.6,113.8,24.6z"/>
			<path style="opacity:0.24;clip-path:url(#XMLID_56_);" d="M249.4,120.6c0.5,12.6-25.1,64.3-42.7,69.9c-17.5,5.7-37.7,19.4-35,32
				c2.7,12.5,32.6,41.9,43.4,23.3C225.9,227.3,249.4,120.6,249.4,120.6z"/>
		</g>
		<g>
			<defs>
				<path id="XMLID_52_" d="M146,236.1h-17.3c-24.5,0-44.6-20.1-44.6-44.6v-60.3c0-24.5,20.1-44.6,44.6-44.6H146
					c24.5,0,44.6,20.1,44.6,44.6v60.3C190.6,216.1,170.6,236.1,146,236.1z"/>
			</defs>
			<use xlink:href="#XMLID_52_"  style="overflow:visible;fill:#E2C991;"/>
			<clipPath id="XMLID_57_">
				<use xlink:href="#XMLID_52_"  style="overflow:visible;"/>
			</clipPath>
			<path style="opacity:0.11;clip-path:url(#XMLID_57_);" d="M155.1,84.9c-4.9,6.9,28.4,15.9,31.5,53.3c1.3,16-0.1,45.7-9.5,50.4
				c-9.4,4.7,5.1,19.2-5.3,32.7c-8,10.3-33.5,49.1-1.5,32.9s58.9-58.6,52.8-101C216.9,110.7,155.1,84.9,155.1,84.9z"/>
		</g>
		<path class="st94" d="M118,148.2c0,0-8-6.8-18.6-5.1c-5.1,0.8-6.8,5.1-6.8,5.1"/>
		<path class="st94" d="M152.5,152c0,0,8.4-6.1,14.8-6.4c6.5-0.3,14.8,6.4,14.8,6.4"/>
		<path class="st95" d="M118,189.3c0,0,4.8,5.4,12.3,6.5c7.5,1,17-4.8,17-4.8"/>
		<path class="st4" d="M181.9,251.9c68.4-0.1,67.5,78,67.5,78s-67.5,15-110.9,15.1c-69.6,0.1-84.9-16.7-84.9-16.7
			s-1.2-28.8,12.8-49.9c14-21.1,47.3-26.4,47.3-26.4s16.2,36.6,67-0.1"/>
		<g>
			<defs>
				<path id="XMLID_51_" d="M140.2,94.6c-6.5,1.1-11.2,10.1-16.7,4.3c-5.4-5.8-21.3-0.4-21.7,6.2c-0.4,6.6,7.7,18.6,0,22.5
					c-7.7,3.9-17.7,3.5-17.7,18c0,14.5,0.4,43.8,0.4,43.8L80.2,107l21.7-36.8l49.5,5.4l49.3,18.2l-3.5,77.5l-6.6,11.6
					c0,0-0.4-34.5,0-49.6S176,88.5,140.2,94.6z"/>
			</defs>
			<use xlink:href="#XMLID_51_"  style="overflow:visible;fill:#FFE61F;"/>
			<clipPath id="XMLID_58_">
				<use xlink:href="#XMLID_51_"  style="overflow:visible;"/>
			</clipPath>
			<path style="opacity:0.12;clip-path:url(#XMLID_58_);" d="M115.4,16.1c-12.4,21.3-28.2,73.9-25,104.1c3.1,30.2,25.6,97.9,7.3,117
				s-125.4-8-125.4-59.2S-3.9,42.7,35.6,32.1S115.4,16.1,115.4,16.1z"/>
		</g>
		<path class="st61" d="M118.5,156.6c2.3-0.6,1-2.7-0.3-4.6c-1.2-1.9-5.6-4.3-10.2-4.5c-10.5-0.3-17.5,5.4-15.4,8.4
			c3.6,5.2,11.7-2,15.2-2.6C112.3,152.6,117.1,157,118.5,156.6z"/>
		<circle cx="110" cy="159.8" r="5.4"/>
		<path class="st61" d="M154.3,156.9c-2.1-4.2,9.1-8.8,17.5-5.9s12.1,9.6,6.6,11c-5.2,1.3-9-6.9-15-7.6
			C159.1,153.9,155.1,158.5,154.3,156.9z"/>
		<circle cx="162.8" cy="161.8" r="5.9"/>
	</g>
	<rect x="134.3" y="-65.9" style="opacity:4.000000e-02;clip-path:url(#XMLID_55_);" width="201.3" height="434.9"/>
</g>
</svg>
