<?xml version="1.0" encoding="utf-8"?>
<!-- Generator: Adobe Illustrator 22.1.0, SVG Export Plug-In . SVG Version: 6.00 Build 0)  -->
<svg version="1.1" id="Layer_1" xmlns="http://www.w3.org/2000/svg" xmlns:xlink="http://www.w3.org/1999/xlink" x="0px" y="0px"
	 viewBox="0 0 60 53" style="enable-background:new 0 0 60 53;" xml:space="preserve">
<style type="text/css">
	.st0{fill:none;stroke:#000000;stroke-miterlimit:10;}
	.st1{fill:none;stroke:#000000;stroke-width:5.1095;stroke-miterlimit:10;}
	.st2{fill:#EFAF00;}
</style>
<g>
	<polygon class="st2" points="29.9,6 28.7,7.1 48.9,27 28.8,47 30,48.1 51.3,27 	"/>
	<polygon class="st2" points="32.7,3.1 31.6,4.3 54.7,27 31.7,49.8 32.9,51 57,27 	"/>
	<polygon class="st2" points="4.1,30 4.1,31.6 38.8,31.6 26.1,44.2 27.2,45.4 42.8,30 	"/>
	<polygon class="st2" points="44.8,26.2 4.1,26.2 4.1,27.8 44.9,27.8 45.7,27 	"/>
	<polygon class="st2" points="4.1,22.3 4.1,23.9 42.6,23.9 27.2,8.7 26,9.8 38.6,22.3 	"/>
</g>
</svg>
